<?xml version="1.0" standalone="no"?>
<!DOCTYPE svg PUBLIC "-//W3C//DTD SVG 1.1//EN" "http://www.w3.org/Graphics/SVG/1.1/DTD/svg11.dtd" >
<svg>
<metadata>
Created by FontForge 20120731 at Fri Nov  8 00:45:23 2019
 By www
Copyright (c) 2015 by Andrew Herndon. All rights reserved.
</metadata>
<defs>
<font id="Exodus-PersonalUse-Striped" horiz-adv-x="252" >
  <font-face 
    font-family="Exodus - Personal Use Striped"
    font-weight="400"
    font-stretch="normal"
    units-per-em="1000"
    panose-1="0 0 5 0 0 0 0 0 0 0"
    ascent="810"
    descent="-190"
    x-height="731"
    cap-height="731"
    bbox="50 -197 1051 810"
    underline-thickness="50"
    underline-position="-50"
    unicode-range="U+0020-201D"
  />
<missing-glyph horiz-adv-x="500" 
d="M410 810v-1000h-317v1000h317zM333 743h-165v-33h65v-37h-66v-33h166v33h-66v37h66v33zM267 614h-100v-104h166v34h-66v70zM233 580v-36h-33v36h33zM333 483h-166v-33h66v-37h-66v-33h100v70h66v33zM333 423h-33v-66h-133v-34h166v100zM333 301h-100v-56h34v23h33v-47
h-100v80h-33v-113h166v113zM333 128h-166v-113h166v113zM300 95v-47h-100v47h100zM333 -8h-166v-33h70l-70 -47v-33h166v33h-102l70 47h32v33z" />
    <glyph glyph-name=".notdef" horiz-adv-x="500" 
d="M410 810v-1000h-317v1000h317zM333 743h-165v-33h65v-37h-66v-33h166v33h-66v37h66v33zM267 614h-100v-104h166v34h-66v70zM233 580v-36h-33v36h33zM333 483h-166v-33h66v-37h-66v-33h100v70h66v33zM333 423h-33v-66h-133v-34h166v100zM333 301h-100v-56h34v23h33v-47
h-100v80h-33v-113h166v113zM333 128h-166v-113h166v113zM300 95v-47h-100v47h100zM333 -8h-166v-33h70l-70 -47v-33h166v33h-102l70 47h32v33z" />
    <glyph glyph-name=".null" horiz-adv-x="0" 
 />
    <glyph glyph-name="nonmarkingreturn" horiz-adv-x="333" 
 />
    <glyph glyph-name="space" unicode=" " horiz-adv-x="300" 
 />
    <glyph glyph-name="exclam" unicode="!" 
d="M141 349h-29q-5 78 -19 218.5t-14 184.5q0 58 47 58q21 0 34.5 -14.5t13.5 -43.5q0 -44 -14 -184.5t-19 -218.5zM126 119q27 0 46.5 -19.5t19.5 -46.5t-19.5 -46.5t-46.5 -19.5t-46.5 19.5t-19.5 46.5t19.5 46.5t46.5 19.5z" />
    <glyph glyph-name="quotedbl" unicode="&#x22;" horiz-adv-x="440" 
d="M77 522q22 -32 61 -32q28 0 47 18.5t19 47.5q0 30 -19 48t-47 18q-20 0 -38 -14q-3 9 -3 22q0 30 23 59t56 42l-10 19q-106 -49 -106 -159q0 -41 17 -69zM253 522q22 -32 61 -32q28 0 47 18.5t19 47.5q0 30 -19 48t-47 18q-20 0 -38 -14q-3 9 -3 22q0 30 23 59t55 42
l-9 19q-107 -50 -107 -159q0 -41 18 -69z" />
    <glyph glyph-name="ampersand" unicode="&#x26;" horiz-adv-x="903" 
d="M794 91h29q-2 -6 -3 -8q-4 -9 -12 -19q-8 -11 -20 -21q-16 -14 -25 -20q-13 -9 -31 -18q-19 -8 -35 -12q-17 -4 -38 -4t-40 6q-21 6 -39 18q-14 10 -24 18q-2 1 -3.5 3t-4 4.5l-3.5 3.5q-19 21 -36 45q-2 2 -6 8q-5 6 -5 7q-27 -32 -56 -54q-44 -34 -85 -47
q-23 -8 -49 -10q-82 -5 -140 33q-45 30 -68 79q-34 77 -11 149q13 37 34 63q16 21 43 45q20 17 80 59l9 6l5 2l-2 3q-44 54 -56 110q-14 63 8 108q14 28 37 52q38 36 94 41h22q79 -4 122 -57q21 -26 22 -60.5t-17 -61.5q-10 -14 -15 -19q-7 -9 -24 -23q-32 -26 -43 -4
q-4 10 12 28q22 28 25 63t-13 64q-6 10 -10 15q-29 35 -79 28q-54 -9 -70 -53q-12 -34 5 -80q10 -31 24 -55q12 -21 67 -96q10 -13 47 -64q64 -88 97 -131q5 -8 25 -35q2 3 5 8l12 20t16.5 29.5t15.5 35t12 38t3.5 36t-8.5 31.5q-10 15 -29 24.5t-33 11.5l-14 1v26h236v-26
q-11 0 -29 -6q-43 -18 -77 -72q-16 -25 -43.5 -88.5t-49.5 -93.5q1 -1 2.5 -3t3 -4.5t2.5 -3.5q2 -2 14 -20t15.5 -22.5t15 -19t19 -20t18.5 -14.5t23 -13t25 -6q38 -5 72 18l8 6q1 1 4 3t4 3q5 3 8 8q1 0 3 2q0 2 2 2zM458 98l24 25q-3 5 -9 13l-72 98l-72 99l-18 24
q-7 9 -35 49l-2 2q-41 -30 -63 -56q-42 -47 -51 -94q-11 -63 38 -131q37 -52 87 -72q46 -15 84.5 -5.5t63.5 28.5z" />
    <glyph glyph-name="quotesingle" unicode="'" horiz-adv-x="244" 
d="M67 522q21 -33 61 -33q28 0 47 19t19 47q0 30 -19 48t-47 18q-21 0 -38 -14q-3 11 -3 22q0 30 23 59t56 43l-10 18q-106 -49 -106 -159q0 -41 17 -68z" />
    <glyph glyph-name="plus" unicode="+" horiz-adv-x="638" 
d="M578 379h-240v244h-37v-244h-241v-31h241v-243h37v243h240v31z" />
    <glyph glyph-name="comma" unicode="," horiz-adv-x="265" 
d="M187 87q-21 33 -61 33q-28 0 -47 -19t-19 -47q0 -31 18.5 -48.5t47.5 -17.5q22 0 38 13q3 -9 3 -21q0 -30 -23 -59t-56 -43l10 -18q107 50 107 159q0 40 -18 68z" />
    <glyph glyph-name="hyphen" unicode="-" horiz-adv-x="493" 
d="M60 242h373v59h-373v-59z" />
    <glyph glyph-name="period" unicode="." 
d="M192 54q0 28 -19 47.5t-47 19.5q-27 0 -46.5 -19.5t-19.5 -47.5q0 -26 19.5 -46t46.5 -20t46.5 19.5t19.5 46.5z" />
    <glyph glyph-name="slash" unicode="/" horiz-adv-x="435" 
d="M60 -22h34l281 761h-33z" />
    <glyph glyph-name="zero" unicode="0" horiz-adv-x="626" 
d="M313 731q97 0 165 -108.5t68 -262.5t-68 -263t-165 -109t-165 109t-68 263t68 262.5t165 108.5zM313 7q60 0 102.5 103.5t42.5 249.5t-42.5 249t-102.5 103t-102.5 -103t-42.5 -249t42.5 -249.5t102.5 -103.5z" />
    <glyph glyph-name="one" unicode="1" horiz-adv-x="445" 
d="M282 66q7 -24 27.5 -37t38.5 -14l17 -1v-14h-261v14h7.5t17 2.5t22.5 7.5t21 16t15 26q2 14 2 20v6v13v22v28v33v38v41v42v44v43v42v40v35v32v25v18q0 21 -1 25q-2 9 -6 16q-6 6 -13 9q-5 2 -23 4h-15q-5 1 -17 1q-6 1 -17 1q-2 0 -6 0.5t-6 0.5h-5v25q23 2 57.5 11
t62.5 19t52.5 19t26.5 9v-642q0 -10 3 -20z" />
    <glyph glyph-name="two" unicode="2" horiz-adv-x="617" 
d="M522 146h15v-146h-457l29 27q108 107 186 195q45 54 71 90.5t49.5 89.5t23.5 99q0 73 -36 113t-100 40q-56 0 -104 -43q-13 -13 -19 -20l-27 25q4 5 14.5 20t17.5 23q44 52 110 67q25 5 47 5q79 0 136 -53.5t57 -140.5q0 -30 -8.5 -58.5t-19.5 -50.5t-36.5 -54.5
t-44.5 -53.5t-59 -64l-163 -172h15h71h88h62q28 0 45 10q27 16 36 44z" />
    <glyph glyph-name="three" unicode="3" horiz-adv-x="557" 
d="M444 347q29 -35 32 -81q5 -51 -10 -94q-9 -30 -29 -54q-33 -44 -98 -77q-51 -23 -111 -36q-24 -5 -74 -11l-9 -1v17q7 1 18 2.5t41.5 9t57 19.5t55 35t43.5 53q24 50 17 111q0 10 -3 20q-11 51 -50.5 85t-91.5 34q-33 0 -74 -13l-8 25q89 29 136.5 66.5t47.5 97.5
q0 51 -30.5 79.5t-78.5 28.5q-63 0 -118 -64l-27 20l3 6q66 91 147 105q18 2 29 2q77 0 124.5 -43t47.5 -109q0 -31 -19 -58.5t-36.5 -41t-51.5 -35.5l-14 -9q-1 0 -3.5 -2t-5.5 -3.5t-4 -1.5q28 -5 48 -13q63 -23 99 -69z" />
    <glyph glyph-name="four" unicode="4" horiz-adv-x="665" 
d="M570 319h15v-103h-115v-130q0 -10 3 -20q7 -24 27.5 -37t37.5 -14l17 -1v-14h-260v14h7.5t17 2.5t22.5 7.5t20.5 16t14.5 26q3 11 3 20v130h-300v21q196 292 345 490h45v-47v-421h29q19 0 33 7q0 1 2 1q26 16 35 44zM380 259v344l-240 -344h240z" />
    <glyph glyph-name="five" unicode="5" horiz-adv-x="566" 
d="M484 278q3 -17 1 -39q-4 -34 -11 -56q-9 -28 -28 -56q-35 -46 -98 -78q-50 -24 -110 -37q-19 -4 -31 -5q-21 -4 -44 -6l-7 -1h-1v16h1v1q2 1 7 1l17 3q8 1 24 5q7 1 29 8q18 7 31 13q9 3 33 16q25 17 30 22q17 16 26 28q13 17 23 42q6 18 7 26q2 10 2 14q1 8 1 24
q0 81 -48 129.5t-139 48.5q-60 0 -119 -24l45 358h339l-34 -86l-281 -3l-30 -217q103 37 147 38q63 2 118 -29q18 -12 26 -19q20 -15 35 -35q7 -10 14 -22l6 -12q2 -4 2 -6q3 -3 3 -5q8 -18 11 -36q3 -11 3 -21z" />
    <glyph glyph-name="six" unicode="6" horiz-adv-x="628" 
d="M81 243q-8 157 74 278q53 79 138 133q84 52 230 77v-30q-62 -13 -119 -39q-67 -33 -126 -99.5t-82 -173.5q27 23 74 37q62 20 113 8q28 -6 52 -19q23 -13 37 -25q79 -66 76 -165q-2 -61 -16 -96q-34 -81 -104 -120q-52 -29 -111 -29q-89 0 -152 60q-77 73 -84 203z
M194 360q-11 -40 -11 -90q0 -107 42.5 -182.5t110.5 -75.5q42 0 71.5 30t41.5 69t12 81q0 82 -33 138.5t-106 56.5q-76 0 -128 -27z" />
    <glyph glyph-name="seven" unicode="7" horiz-adv-x="618" 
d="M538 717q-303 -640 -340 -717h-88q210 333 350 635h-249h-2h-20q-16 0 -24 -1q-21 -2 -34 -9q-25 -13 -35 -43l-2 -8h-14v143h458z" />
    <glyph glyph-name="eight" unicode="8" horiz-adv-x="603" 
d="M493 561q0 71 -52 120.5t-132 49.5q-88 0 -146.5 -57t-58.5 -132q0 -104 126 -178q-37 -24 -52.5 -35.5t-44 -37t-41 -52.5t-12.5 -58q0 -90 61.5 -142t155.5 -52q81 0 153.5 58.5t72.5 152.5q0 68 -39.5 111.5t-112.5 85.5q30 21 45 33t36.5 34t31 46.5t9.5 52.5z
M193 576q0 47 28.5 82.5t76.5 35.5q44 0 81.5 -38.5t37.5 -105.5q0 -92 -65 -145q-76 37 -117.5 75.5t-41.5 95.5zM430 165q0 -65 -34.5 -103.5t-87.5 -38.5q-57 0 -101 47t-44 123q0 47 24 89.5t65 70.5q82 -42 130 -86t48 -102z" />
    <glyph glyph-name="nine" unicode="9" horiz-adv-x="627" 
d="M546 469q10 -157 -73 -279q-54 -79 -139 -132q-84 -53 -229 -78v31q61 12 118 39q67 31 126.5 98t82.5 175q-26 -23 -74 -38q-63 -19 -113 -8q-25 6 -52 19q-23 13 -37 25q-79 68 -76 166q2 62 16 96q31 78 104 120q53 28 111 28q88 0 152 -59q76 -73 83 -203zM434 352
q11 40 11 89q0 107 -42.5 183t-110.5 76q-42 0 -71.5 -30.5t-41.5 -69.5t-12 -81q0 -52 12 -93.5t44.5 -71t82.5 -29.5q79 0 128 27z" />
    <glyph glyph-name="colon" unicode=":" 
d="M192 481q0 27 -19.5 46.5t-46.5 19.5t-46.5 -19.5t-19.5 -46.5t19.5 -46.5t46.5 -19.5t46.5 19.5t19.5 46.5zM192 53q0 27 -19.5 46.5t-46.5 19.5t-46.5 -19.5t-19.5 -46.5t19.5 -46.5t46.5 -19.5t46.5 19.5t19.5 46.5z" />
    <glyph glyph-name="semicolon" unicode=";" horiz-adv-x="265" 
d="M199 481q0 27 -19 46.5t-47 19.5q-27 0 -46.5 -19.5t-19.5 -46.5t19.5 -46.5t46.5 -19.5q28 0 47 19.5t19 46.5zM187 86q-20 33 -61 33q-27 0 -46.5 -19t-19.5 -47q0 -30 19 -48t47 -18q21 0 39 13q3 -9 3 -21q0 -30 -23.5 -59t-55.5 -43l10 -18q106 49 106 159
q0 40 -18 68z" />
    <glyph glyph-name="question" unicode="?" horiz-adv-x="526" 
d="M464 655q10 -67 -22.5 -123.5t-92.5 -91.5q-28 -16 -54 -26q-2 -1 -17.5 -6t-29.5 -10l-14 -4v-151h-21v161q95 35 128 82.5t33 117.5q0 94 -38.5 139.5t-105.5 45.5q-47 0 -75 -16q-5 -1 -8 -5q-8 -4 -17 -14q-27 -29 -18 -64h-51v1q0 1 -0.5 3t-0.5 4.5t0.5 5.5t1 6.5
t2 8t3.5 8.5t5 9t7 10q12 15 30 27q21 14 46 22q42 15 94 15q127 0 184 -79q24 -32 31 -76zM225 119q27 0 46.5 -19.5t19.5 -46.5t-19.5 -46.5t-46.5 -19.5q-28 0 -47.5 19.5t-19.5 46.5t19.5 46.5t47.5 19.5z" />
    <glyph glyph-name="A" unicode="A" horiz-adv-x="808" 
d="M732 17l6 -1v-16h-247v16h8.5t19 4t23.5 11t16 23t3 39q-1 10 -6 26l-47 123l-14 35h-252l-14 -35l-45 -119q-10 -33 -3 -58q7 -24 29.5 -36t41.5 -13h19v-16h-200v16q2 0 5 0.5t12.5 4.5t18 11t20.5 21t22 33l93 246l115 302l16 44l13 32l34 16h1v-1q235 -616 237 -620
q9 -23 24 -46q17 -24 36 -36q7 -5 15 -6zM249 297h238l-14 35l-105 277l-1 -3l-104 -274z" />
    <glyph glyph-name="B" unicode="B" horiz-adv-x="714" 
d="M410 387q22 -2 44.5 -5.5t57 -16t59.5 -31t44 -52.5t19 -77q0 -129 -130 -182q-57 -23 -117 -23h-307v20q1 1 9 0t21.5 3t26 10t21.5 22t9 38v297h180h4l-269 324v17h288q9 0 23 -0.5t50 -8.5t64 -23.5t50.5 -50t22.5 -82.5q0 -35 -12 -64t-30 -47.5t-42 -33.5t-44 -22
t-41 -12h-1zM335 714h-136l239 -288q43 43 43 121q0 54 -15 92q-24 58 -86 71q-2 0 -4.5 0.5t-3.5 0.5h-2q-18 3 -35 3zM408 31q123 33 123 154q0 27 -4 48q-3 24 -14 51q-9 21 -21 36q-9 12 -25 24q-11 8 -26 15q-8 3 -24 7t-60 4h-43h-39h-18v-283q0 -5 2 -15
q7 -36 45 -48q11 -4 26 -4q44 2 68 8z" />
    <glyph glyph-name="C" unicode="C" horiz-adv-x="752" 
d="M670 130l2 -130h-22v5t-1.5 12t-3.5 16.5t-6.5 15t-9.5 11.5t-14 2.5t-19 -9.5q-83 -69 -184 -69h-3q-71 0 -128.5 22.5t-94 59.5t-61 86t-35 98.5t-10.5 101.5q0 79 17.5 143.5t45 104.5t60.5 69.5t66.5 43.5t61 22.5t45.5 9.5l17 1h19q98 0 180 -68q4 -4 8 -5
q19 -11 30.5 3.5t13.5 34.5l2 20h22l-3 -130l1 -106h-25v3q-1 14 -5 42q-9 41 -23 70q-4 8 -14 24q-28 43 -82 68q-49 24 -105 24q-31 0 -63 -8q-14 -4 -28.5 -12t-37 -30t-40.5 -52.5t-34 -83.5t-22 -120q-11 -116 25 -223q0 -2 2 -5.5t2 -5.5q14 -38 33 -72q25 -40 50 -62
q34 -29 71 -40q46 -14 100 -1q27 7 51 18q34 17 47 28q31 26 50 74t22 83l3 34h27v-118z" />
    <glyph glyph-name="D" unicode="D" horiz-adv-x="805" 
d="M454 727q39 -5 73.5 -16.5t73 -37.5t65.5 -63t44 -98t15 -138q-2 -95 -30.5 -166.5t-68 -109.5t-94 -61.5t-98 -30t-90.5 -6.5h-263v19q1 1 9 0t20.5 2.5t25 8.5t21.5 19.5t10 34.5v213h90v-213q1 -24 7 -38.5t20.5 -20t25 -6.5t34.5 -1q156 0 225 99l-488 594l-1 1v19
h143h175q32 0 56 -4zM611 209q16 61 16 157q0 51 -8 107q-10 58 -27 97q-18 39 -41 66q-25 26 -50 41q-37 24 -83 30q-17 3 -79 5q-14 0 -41.5 -0.5t-41.5 -0.5h-59l54 -65z" />
    <glyph glyph-name="E" unicode="E" horiz-adv-x="694" 
d="M590 205h24v-205h-449h-85v14h8.5t19.5 3.5t25 9.5t20.5 20t11.5 33v298h162q12 0 28 4l-100 121l-175 214v14h12h93h70h86h191h58v-184h-24q0 38 -5 65t-19 51t-43 36t-72 12h-86h-10h-130l215 -262q6 24 6 63h18v-286h-18q0 29 -3 49t-12 40t-28.5 31t-48.5 12h-75
v-276q5 -61 86 -61h111q43 0 72 15t42.5 43.5t18.5 57.5t5 68z" />
    <glyph glyph-name="F" unicode="F" horiz-adv-x="671" 
d="M591 731v-217h-24q0 197 -139 197h-86h-10h-130l54 -66l171 -207q6 28 6 63h17v-286h-17q0 60 -18.5 95t-73.5 37h-85v-261q2 -34 26 -51t46.5 -15t31.5 1h2v-21h-281v14h8.5t19 3.5t24.5 9.5t21 20t12 33v287h172q18 2 27 4l-109 132l-175 214h-1l1 1v13h261h249z" />
    <glyph glyph-name="G" unicode="G" horiz-adv-x="796" 
d="M652 311q40 0 64 3v-21q-11 0 -25 -4q-21 -10 -21 -41v-4l-1 -114l3 -130h-29q-1 20 -8.5 39.5t-19.5 19.5q-10 0 -34 -18q-67 -51 -145 -56q-4 0 -12 -0.5t-12 -0.5h-3q-125 0 -207 69q-92 73 -115 214q-7 41 -7 85q0 251 167 349q50 30 111 41q4 0 14 2q15 2 45 2
q41 0 76.5 -11t55 -22.5t51.5 -33.5q18 -13 25 -7q4 2 8 8q6 10 10 28l3 18v5h24q-4 -67 -4 -232v-4v-1h-25v1q0 6 -2 18q-10 63 -28 99q-9 20 -27 41q-14 17 -33 30q-64 43 -139 43q-26 0 -45 -4q-65 -17 -109 -76q-58 -80 -71 -226q-11 -116 25 -223q53 -161 166 -187
q21 -4 52 -4h9q48 4 96 30l3 2q16 11 23 24q4 9 6 23v9v22l-2 103q0 48 -34 65q-20 7 -68 9v21l76 -3h113z" />
    <glyph glyph-name="H" unicode="H" horiz-adv-x="855" 
d="M165 644q0 19 -5 30q-8 16 -21 26q-11 8 -27 13l-32 4v14h261v-14h-7.5t-17.5 -2.5t-23.5 -8t-21 -17t-14.5 -27.5q-2 -12 -2 -18v-269h345v269q0 6 -2 18q-6 26 -27 39.5t-39 14.5l-18 1v14h261v-14h-7.5t-17.5 -2.5t-23.5 -8t-20.5 -17t-14 -27.5q-2 -6 -2 -18v-558
q0 -13 2 -20q7 -24 28 -37t38 -14l17 -1v-14h-261v14h8t18 3t23.5 8t21 17.5t13.5 29.5q2 10 2 16v267h-345v-270q2 -33 23.5 -51t41.5 -19l21 -1v-14h-261v14h7.5t17 2.5t23 7.5t21 16t14.5 26q2 7 2 20v558z" />
    <glyph glyph-name="I" unicode="I" horiz-adv-x="401" 
d="M245 85q2 -33 23.5 -51t41.5 -19l21 -1v-14h-261v14h7.5t17 2.5t22.5 7.5t20.5 16t14.5 26q3 11 3 20v558q0 6 -2 18q-6 26 -27 39.5t-38 14.5l-18 1v14h260v-14h-7.5t-17.5 -2.5t-23 -8t-20.5 -17t-14.5 -27.5q-2 -12 -2 -18v-559z" />
    <glyph glyph-name="J" unicode="J" horiz-adv-x="452" 
d="M382 731v-14h-7.5t-17.5 -2.5t-23.5 -8t-21 -17t-14.5 -27.5q-2 -12 -2 -18v-476q0 -120 -16 -184q-46 -181 -210 -181v12q43 0 73 36.5t42 88.5t17.5 103.5t4.5 88.5l-1 36v476q0 12 -1 18q-6 26 -27 39.5t-39 14.5l-18 1v14h86h175z" />
    <glyph glyph-name="K" unicode="K" horiz-adv-x="788" 
d="M708 19v-19h-226v18h3.5t8.5 0.5t11.5 2t11 4.5t8.5 7.5t3 11.5t-5 16l-163 235q-3 3 -4 5q-4 5 -12 17q-2 2 -11 16q-1 2 -3.5 4t-3.5 4q-12 13 -26 19l-7 3q-7 4 -18 6q-7 1 -20 1v-285q2 -33 23.5 -50.5t41.5 -18.5l21 -2v-14h-261v14h2q8 0 18 2t25.5 7.5t26.5 20
t13 36.5v310h18h45q37 0 48 2h3h1q2 1 3 1h1q1 0 2 1h3l-65 92l-30 43q-29 41 -29 90v31q-3 32 -24 48.5t-41 17.5l-20 1v14h261v-14h-8.5t-19.5 -3t-25.5 -9.5t-21 -20.5t-11.5 -34v-16q0 -36 22 -67l91 -128q1 1 3.5 4t3.5 4l2 2l2 3l3 3v1l131 174q23 42 11.5 60.5
t-36.5 20.5l-26 2v18h207v-16h-4q-5 0 -19 -3q-53 -11 -88 -55l-177 -236l53 -76l8 -11l178 -255q44 -55 85 -59z" />
    <glyph glyph-name="L" unicode="L" horiz-adv-x="690" 
d="M586 217h24v-217h-530v14h8.5t20 3.5t26 10t21 21.5t10.5 36v560q0 9 -3 20q-7 24 -27.5 37t-37.5 14l-18 1v14h282v-14h-10t-23 -3t-30.5 -9t-26 -19t-15.5 -31q-1 -4 -1 -13v-557q0 -8 1 -11q8 -54 84 -54h106q139 0 139 197z" />
    <glyph glyph-name="M" unicode="M" horiz-adv-x="1084" 
d="M933 105q16 -40 36.5 -62.5t32.5 -24.5l13 -2v-16h-222v16q71 0 48 81l-161 483l-130 -410l23 -70q15 -38 32.5 -59t27.5 -23l10 -2v-16h-231v16q84 0 69 72q-1 4 -5 17l-155 466l-138 -434q-10 -39 -5.5 -63t19 -36t30 -16.5t27.5 -4.5h13v-17h-197v16q27 0 47.5 25
t31.5 58l207 650l183 -547l177 554l217 -650v-1z" />
    <glyph glyph-name="N" unicode="N" horiz-adv-x="842" 
d="M80 731h174l388 -601v-130h-23l-433 672v-585q0 -12 2 -18q6 -26 26.5 -39.5t38.5 -14.5l18 -1v-14h-191v14h7.5t17.5 3t23.5 8t21 16.5t14.5 28.5q2 12 2 18v561q-3 32 -24.5 48.5t-41.5 16.5l-20 1v16zM563 731h199v-14h-8.5t-20 -3.5t-26 -10t-21 -21.5t-10.5 -36
v-314l1 -2v-131h-23l-343 532h107l238 -368v283q-2 33 -25 50.5t-45 19.5l-23 1v14z" />
    <glyph glyph-name="O" unicode="O" horiz-adv-x="782" 
d="M391 742q135 0 230.5 -112t95.5 -271q0 -158 -95.5 -270.5t-230.5 -112.5t-230.5 112.5t-95.5 270.5q0 159 95.5 271t230.5 112zM391 2q97 0 165 106t68 256t-68 256t-165 106q-96 0 -164 -106t-68 -256t68 -256t164 -106z" />
    <glyph glyph-name="P" unicode="P" horiz-adv-x="686" 
d="M351 731q1 -2 14.5 0t36.5 -2t49.5 -8.5t54 -18t50 -31t36.5 -48t14 -68.5q0 -145 -155 -191q-51 -16 -99 -16h-1h-96v-262q1 -12 4 -22.5t8 -17t12 -12t14 -8.5t15 -5t15.5 -2.5t14 -0.5t11.5 0.5t9 1.5h3v-20h-106h-90h-85v14h8t18.5 3t24.5 9t20.5 19t12.5 31
q1 4 1 13v279h173q-58 82 -87 122q-42 59 -90 123q-50 66 -81 100v9v9h271zM509 534v16t-2.5 26.5t-7.5 35.5t-17 35t-28 34t-42.5 22.5t-60.5 9.5h-13h-140l53 -70q49 -65 181 -253v-1l1 -1q76 42 76 146z" />
    <glyph glyph-name="Q" unicode="Q" horiz-adv-x="862" 
d="M280 4q-95 40 -155 138.5t-60 221.5q0 159 95.5 271t230.5 112t230.5 -112t95.5 -271q0 -154 -91 -265.5t-222 -117.5h1q-64 -3 -125 23zM392 731q-97 0 -165 -106t-68 -256t68 -256t165 -106q96 0 164 106t68 256t-68 256t-164 106zM783 -25l-21 -30q-7 -7 -10 -11
q-44 -48 -167 -48q-10 0 -30 2q-7 1 -20.5 2.5t-20.5 2.5q-8 1 -24 3.5t-24 3.5q-30 6 -50 8l-47 9q-14 2 -42 8l-31 6q-9 1 -25 5q-38 7 -80 12q-9 1 -29 1h-5h-6q45 -13 116 -37q7 -2 70 -27q14 -6 48 -21.5t53 -22.5q19 -8 57 -20q30 -8 46 -10q45 -9 81 -6q41 3 71 21h1
q1 0 2 1l6 3q22 14 34 28q15 14 25 31q9 12 18 31q8 18 11 27l3 8q2 5 4 15z" />
    <glyph glyph-name="R" unicode="R" horiz-adv-x="801" 
d="M732 26q6 -2 9 -2l-5 -29h-8q-38 0 -81 8q-58 12 -106 77q-20 27 -58 81q-56 78 -83 118q-24 33 -48 69h-1h-96v-262q1 -12 4 -22.5t8 -17t12 -12t14 -8.5t15 -5t15.5 -2.5t14 -0.5t11.5 0.5t9 1.5h3v-20h-106h-90h-85v14h8t18.5 3t24.5 9t20.5 19t12.5 31q1 4 1 13v279
h173q-58 82 -87 122q-42 59 -90 123q-50 66 -81 100v9v9h271q1 -2 14.5 0t36.5 -2t49.5 -8.5t54 -18t50 -31t36.5 -48t14 -68.5q0 -145 -155 -191q7 -12 23 -34q3 -4 17.5 -25t22.5 -33q35 -50 82 -116q30 -40 46 -59q1 -1 11 -14q17 -20 40 -38q16 -11 19 -12q8 -5 20 -7z
M432 390v-1l1 -1q76 42 76 146v16t-2.5 26.5t-7.5 35.5t-17 35t-28 34t-42.5 22.5t-60.5 9.5h-13h-140l53 -70q49 -65 181 -253z" />
    <glyph glyph-name="S" unicode="S" horiz-adv-x="615" 
d="M256 424q-27 16 -47 36.5t-29 39t-14.5 34.5t-5.5 26l-1 9q-3 52 14 88q21 41 66 64q33 14 66 17q8 1 23 1h2q22 0 42 -6q28 -7 57 -26q34 -21 45 -6q7 10 10 22l2 12h17l-2 -101v-82h-19q-3 26 -13 59q-11 33 -31 61q-10 12 -25 26q-11 8 -39 17q-63 19 -103 -10
q-17 -12 -32 -32q-3 -4 -7.5 -12t-7.5 -32t4.5 -47.5t39 -54.5t86.5 -58q87 -43 134 -98.5t47 -111.5q0 -19 -3 -40l-88 55q-35 64 -188 150zM280 362q86 -42 133 -97.5t47 -111.5q0 -25 -4 -45q-14 -60 -62 -93q-35 -24 -82 -31q-30 -6 -61 -3q-35 3 -60 14q-16 7 -28 13
q-23 16 -27 17q-15 8 -25 -1q-8 -8 -12 -24q-2 -8 -2 -13h-17l2 103l-1 111h20v-5q2 -44 17 -87q13 -35 32 -59q12 -14 26 -26q11 -10 36 -19l25 -6q30 -5 56 1q73 14 88 107q5 30 -10.5 60t-50 58t-64 47.5t-75.5 45.5q-27 16 -47 36.5t-29 39t-14.5 34.5t-6.5 26v9v31
l95 -59q33 -40 101 -73z" />
    <glyph glyph-name="T" unicode="T" horiz-adv-x="733" 
d="M653 729v-217h-24q0 197 -139 197h-78v-624q0 -9 3 -20q8 -25 33.5 -38t47.5 -14l22 -1v-14h-303v14h9t22 2.5t28.5 7.5t26 16t18.5 27q3 11 3 20v624h-79q-139 0 -139 -197h-24v217h573z" />
    <glyph glyph-name="U" unicode="U" horiz-adv-x="809" 
d="M527 731h202v-14h-9t-21 -4t-26 -11t-20.5 -23t-9.5 -38v-342q0 -73 -10 -126t-35 -99t-73.5 -69.5t-120.5 -23.5q-62 0 -106 20q-41 17 -69 50q-24 25 -40 64q-12 30 -18 62q-6 34 -6 84v58v80v86v79v58v23q0 6 -2 20q-7 24 -28 37t-38 14l-17 1v14h261v-14h-8.5
t-20 -3.5t-26 -10t-21 -21.5t-10.5 -36v-17v-52l340 -450q28 61 28 172v342q0 22 -10 38.5t-24 23t-28 10.5t-24 4h-10v14zM345 37q29 -15 66 -15q77 0 126 34l-282 371v-104q0 -117 5 -147q15 -102 85 -139z" />
    <glyph glyph-name="V" unicode="V" horiz-adv-x="828" 
d="M748 731v-16q-8 -1 -8 -2q-11 -3 -20.5 -9t-16.5 -11.5t-14 -16.5t-11.5 -17.5t-10 -20.5t-8 -19.5t-8 -21t-6.5 -18.5q-5 -14 -19 -50.5t-22 -56.5l-30 -80q-3 -8 -9 -23.5t-9 -23.5l-3.5 -10.5t-4.5 -11.5q-3 -7 -10.5 -27t-11.5 -31q-7 -18 -16 -43q-4 -8 -10 -26
q-9 -22 -25 -66q-10 -24 -14 -36l-49 -127l-256 673q-8 20 -20 37q-13 18 -27 27.5t-21 9.5l-8 1v16h668zM639 626q5 28 -3.5 47.5t-26 27.5t-30.5 11t-25 3h-6q-19 0 -21 -2q-30 -4 -44 -23q-7 -9 -7.5 -21t0.5 -18.5t7.5 -23t7.5 -18.5q26 -66 38 -99q12 -30 34 -90
l69 181q4 9 7 25zM489 224l26 69l-132 347q-9 24 -20 37q-24 33 -53 36q-36 3 -55 -23q-5 -7 -7 -15t0 -18l3 -15t6.5 -18t6.5 -15q7 -16 19.5 -49t18.5 -50l48 -127q17 -42 49 -126l36 -97q3 -6 8 -18.5t7 -19.5z" />
    <glyph glyph-name="W" unicode="W" horiz-adv-x="1121" 
d="M851 731h200v-16h-1q-2 0 -4 -1h-3q-12 -4 -22.5 -10t-19 -16.5t-14 -18t-12.5 -23t-9.5 -22t-9 -24t-7.5 -21.5l-233 -612l-157 413l-157 -413l-256 673q-7 19 -20 38q-13 17 -27 26.5t-21 9.5l-8 1v16h246v-16q-2 1 -6.5 0.5t-11.5 -1.5h-8q-32 -6 -45 -24
q-5 -7 -7 -15t0 -18.5t3 -14.5t7 -17.5t6 -14.5l134 -353q1 -4 52 -135l108 286l-88 232q-7 19 -20 38q-13 17 -27 26.5t-21 9.5l-8 1v16h354v-15l-8 -2q-12 -4 -22 -9.5t-18.5 -15.5t-14.5 -17.5t-12.5 -22t-9.5 -22t-9.5 -25t-8.5 -23.5q-3 -9 -13 -34t-15 -39
q32 -82 47 -123l48 -126q13 -32 37 -96l15 -39q182 470 188 504q5 27 -2.5 46t-21.5 27t-29.5 12t-26.5 4h-11v16zM568 610q5 -12 14.5 -37t13.5 -38l26 66q6 15 7 25q8 51 -23 71q-14 8 -24.5 6.5t-16.5 -7.5l-6 -6q-15 -22 3 -64z" />
    <glyph glyph-name="X" unicode="X" horiz-adv-x="791" 
d="M711 21v-21h-235v21q74 0 74 17q0 7 -12 26q-7 9 -86 131t-85 131q-128 -185 -142 -217q-10 -24 -10 -39q0 -47 92 -50v-20h-227v20q35 6 67 36q17 15 35 41l170 251q1 1 -94 145.5t-101 152.5q-18 30 -30 43q-13 15 -40 20l-6 1v21h234v-21q-69 0 -69 -23q0 -7 10 -24
l155 -238q3 4 55.5 79t61.5 87q35 53 35 78q0 22 -20 31.5t-61 10.5v20h207v-20q-59 -8 -116 -95l-145 -216q205 -313 220 -334q17 -26 26 -33q13 -11 37 -12z" />
    <glyph glyph-name="Y" unicode="Y" horiz-adv-x="771" 
d="M496 731h195v-16q-40 0 -76 -72l-171 -352v-202v-13q4 -29 25.5 -44.5t40.5 -16.5l19 -1v-14h-261v14h7.5t17.5 3t23.5 8t21 16.5t14.5 28.5q2 10 2 17v158l-211 423q-3 6 -11 18q-21 29 -52 29v16h235v-16q-2 0 -5 -0.5t-12 -1.5t-16.5 -2.5t-17.5 -4.5t-14.5 -8
t-9 -11.5t0.5 -14.5l185 -371l151 309q8 20 9 30q7 38 -15.5 56.5t-48.5 18.5h-26v16z" />
    <glyph glyph-name="Z" unicode="Z" horiz-adv-x="734" 
d="M453 20q139 0 139 197h24v-217h-536l455 711h-247q-139 0 -139 -196h-24v216h529l-455 -711h254z" />
    <glyph glyph-name="a" unicode="a" horiz-adv-x="808" 
d="M732 17l6 -1v-16h-247v16h8.5t19 4t23.5 11t16 23t3 39q-1 10 -6 26l-47 123l-14 35h-252l-14 -35l-45 -119q-10 -33 -3 -58q7 -24 29.5 -36t41.5 -13h19v-16h-200v16q2 0 5 0.5t12.5 4.5t18 11t20.5 21t22 33l93 246l115 302l16 44l13 32l34 16h1v-1q235 -616 237 -620
q9 -23 24 -46q17 -24 36 -36q7 -5 15 -6zM249 297h238l-14 35l-105 277l-1 -3l-104 -274z" />
    <glyph glyph-name="b" unicode="b" horiz-adv-x="714" 
d="M410 387q22 -2 44.5 -5.5t57 -16t59.5 -31t44 -52.5t19 -77q0 -129 -130 -182q-57 -23 -117 -23h-307v20q1 1 9 0t21.5 3t26 10t21.5 22t9 38v297h180h4l-269 324v17h288q9 0 23 -0.5t50 -8.5t64 -23.5t50.5 -50t22.5 -82.5q0 -35 -12 -64t-30 -47.5t-42 -33.5t-44 -22
t-41 -12h-1zM335 714h-136l239 -288q43 43 43 121q0 54 -15 92q-24 58 -86 71q-2 0 -4.5 0.5t-3.5 0.5h-2q-18 3 -35 3zM408 31q123 33 123 154q0 27 -4 48q-3 24 -14 51q-9 21 -21 36q-9 12 -25 24q-11 8 -26 15q-8 3 -24 7t-60 4h-43h-39h-18v-283q0 -5 2 -15
q7 -36 45 -48q11 -4 26 -4q44 2 68 8z" />
    <glyph glyph-name="c" unicode="c" horiz-adv-x="752" 
d="M670 130l2 -130h-22v5t-1.5 12t-3.5 16.5t-6.5 15t-9.5 11.5t-14 2.5t-19 -9.5q-83 -69 -184 -69h-3q-71 0 -128.5 22.5t-94 59.5t-61 86t-35 98.5t-10.5 101.5q0 79 17.5 143.5t45 104.5t60.5 69.5t66.5 43.5t61 22.5t45.5 9.5l17 1h19q98 0 180 -68q4 -4 8 -5
q19 -11 30.5 3.5t13.5 34.5l2 20h22l-3 -130l1 -106h-25v3q-1 14 -5 42q-9 41 -23 70q-4 8 -14 24q-28 43 -82 68q-49 24 -105 24q-31 0 -63 -8q-14 -4 -28.5 -12t-37 -30t-40.5 -52.5t-34 -83.5t-22 -120q-11 -116 25 -223q0 -2 2 -5.5t2 -5.5q14 -38 33 -72q25 -40 50 -62
q34 -29 71 -40q46 -14 100 -1q27 7 51 18q34 17 47 28q31 26 50 74t22 83l3 34h27v-118z" />
    <glyph glyph-name="d" unicode="d" horiz-adv-x="805" 
d="M454 727q39 -5 73.5 -16.5t73 -37.5t65.5 -63t44 -98t15 -138q-2 -95 -30.5 -166.5t-68 -109.5t-94 -61.5t-98 -30t-90.5 -6.5h-263v19q1 1 9 0t20.5 2.5t25 8.5t21.5 19.5t10 34.5v213h90v-213q1 -24 7 -38.5t20.5 -20t25 -6.5t34.5 -1q156 0 225 99l-488 594l-1 1v19
h143h175q32 0 56 -4zM611 209q16 61 16 157q0 51 -8 107q-10 58 -27 97q-18 39 -41 66q-25 26 -50 41q-37 24 -83 30q-17 3 -79 5q-14 0 -41.5 -0.5t-41.5 -0.5h-59l54 -65z" />
    <glyph glyph-name="e" unicode="e" horiz-adv-x="694" 
d="M590 205h24v-205h-449h-85v14h8.5t19.5 3.5t25 9.5t20.5 20t11.5 33v298h162q12 0 28 4l-100 121l-175 214v14h12h93h70h86h191h58v-184h-24q0 38 -5 65t-19 51t-43 36t-72 12h-86h-10h-130l215 -262q6 24 6 63h18v-286h-18q0 29 -3 49t-12 40t-28.5 31t-48.5 12h-75
v-276q5 -61 86 -61h111q43 0 72 15t42.5 43.5t18.5 57.5t5 68z" />
    <glyph glyph-name="f" unicode="f" horiz-adv-x="671" 
d="M591 731v-217h-24q0 197 -139 197h-86h-10h-130l54 -66l171 -207q6 28 6 63h17v-286h-17q0 60 -18.5 95t-73.5 37h-85v-261q2 -34 26 -51t46.5 -15t31.5 1h2v-21h-281v14h8.5t19 3.5t24.5 9.5t21 20t12 33v287h172q18 2 27 4l-109 132l-175 214h-1l1 1v13h261h249z" />
    <glyph glyph-name="g" unicode="g" horiz-adv-x="796" 
d="M652 311q40 0 64 3v-21q-11 0 -25 -4q-21 -10 -21 -41v-4l-1 -114l3 -130h-29q-1 20 -8.5 39.5t-19.5 19.5q-10 0 -34 -18q-67 -51 -145 -56q-4 0 -12 -0.5t-12 -0.5h-3q-125 0 -207 69q-92 73 -115 214q-7 41 -7 85q0 251 167 349q50 30 111 41q4 0 14 2q15 2 45 2
q41 0 76.5 -11t55 -22.5t51.5 -33.5q18 -13 25 -7q4 2 8 8q6 10 10 28l3 18v5h24q-4 -67 -4 -232v-4v-1h-25v1q0 6 -2 18q-10 63 -28 99q-9 20 -27 41q-14 17 -33 30q-64 43 -139 43q-26 0 -45 -4q-65 -17 -109 -76q-58 -80 -71 -226q-11 -116 25 -223q53 -161 166 -187
q21 -4 52 -4h9q48 4 96 30l3 2q16 11 23 24q4 9 6 23v9v22l-2 103q0 48 -34 65q-20 7 -68 9v21l76 -3h113z" />
    <glyph glyph-name="h" unicode="h" horiz-adv-x="855" 
d="M165 644q0 19 -5 30q-8 16 -21 26q-11 8 -27 13l-32 4v14h261v-14h-7.5t-17.5 -2.5t-23.5 -8t-21 -17t-14.5 -27.5q-2 -12 -2 -18v-269h345v269q0 6 -2 18q-6 26 -27 39.5t-39 14.5l-18 1v14h261v-14h-7.5t-17.5 -2.5t-23.5 -8t-20.5 -17t-14 -27.5q-2 -6 -2 -18v-558
q0 -13 2 -20q7 -24 28 -37t38 -14l17 -1v-14h-261v14h8t18 3t23.5 8t21 17.5t13.5 29.5q2 10 2 16v267h-345v-270q2 -33 23.5 -51t41.5 -19l21 -1v-14h-261v14h7.5t17 2.5t23 7.5t21 16t14.5 26q2 7 2 20v558z" />
    <glyph glyph-name="i" unicode="i" horiz-adv-x="401" 
d="M245 85q2 -33 23.5 -51t41.5 -19l21 -1v-14h-261v14h7.5t17 2.5t22.5 7.5t20.5 16t14.5 26q3 11 3 20v558q0 6 -2 18q-6 26 -27 39.5t-38 14.5l-18 1v14h260v-14h-7.5t-17.5 -2.5t-23 -8t-20.5 -17t-14.5 -27.5q-2 -12 -2 -18v-559z" />
    <glyph glyph-name="j" unicode="j" horiz-adv-x="452" 
d="M382 731v-14h-7.5t-17.5 -2.5t-23.5 -8t-21 -17t-14.5 -27.5q-2 -12 -2 -18v-476q0 -120 -16 -184q-46 -181 -210 -181v12q43 0 73 36.5t42 88.5t17.5 103.5t4.5 88.5l-1 36v476q0 12 -1 18q-6 26 -27 39.5t-39 14.5l-18 1v14h86h175z" />
    <glyph glyph-name="k" unicode="k" horiz-adv-x="788" 
d="M708 19v-19h-226v18h3.5t8.5 0.5t11.5 2t11 4.5t8.5 7.5t3 11.5t-5 16l-163 235q-3 3 -4 5q-4 5 -12 17q-2 2 -11 16q-1 2 -3.5 4t-3.5 4q-12 13 -26 19l-7 3q-7 4 -18 6q-7 1 -20 1v-285q2 -33 23.5 -50.5t41.5 -18.5l21 -2v-14h-261v14h2q8 0 18 2t25.5 7.5t26.5 20
t13 36.5v310h18h45q37 0 48 2h3h1q2 1 3 1h1q1 0 2 1h3l-65 92l-30 43q-29 41 -29 90v31q-3 32 -24 48.5t-41 17.5l-20 1v14h261v-14h-8.5t-19.5 -3t-25.5 -9.5t-21 -20.5t-11.5 -34v-16q0 -36 22 -67l91 -128q1 1 3.5 4t3.5 4l2 2l2 3l3 3v1l131 174q23 42 11.5 60.5
t-36.5 20.5l-26 2v18h207v-16h-4q-5 0 -19 -3q-53 -11 -88 -55l-177 -236l53 -76l8 -11l178 -255q44 -55 85 -59z" />
    <glyph glyph-name="l" unicode="l" horiz-adv-x="690" 
d="M586 217h24v-217h-530v14h8.5t20 3.5t26 10t21 21.5t10.5 36v560q0 9 -3 20q-7 24 -27.5 37t-37.5 14l-18 1v14h282v-14h-10t-23 -3t-30.5 -9t-26 -19t-15.5 -31q-1 -4 -1 -13v-557q0 -8 1 -11q8 -54 84 -54h106q139 0 139 197z" />
    <glyph glyph-name="m" unicode="m" horiz-adv-x="1084" 
d="M933 105q16 -40 36.5 -62.5t32.5 -24.5l13 -2v-16h-222v16q71 0 48 81l-161 483l-130 -410l23 -70q15 -38 32.5 -59t27.5 -23l10 -2v-16h-231v16q84 0 69 72q-1 4 -5 17l-155 466l-138 -434q-10 -39 -5.5 -63t19 -36t30 -16.5t27.5 -4.5h13v-17h-197v16q27 0 47.5 25
t31.5 58l207 650l183 -547l177 554l217 -650v-1z" />
    <glyph glyph-name="n" unicode="n" horiz-adv-x="842" 
d="M80 731h174l388 -601v-130h-23l-433 672v-585q0 -12 2 -18q6 -26 26.5 -39.5t38.5 -14.5l18 -1v-14h-191v14h7.5t17.5 3t23.5 8t21 16.5t14.5 28.5q2 12 2 18v561q-3 32 -24.5 48.5t-41.5 16.5l-20 1v16zM563 731h199v-14h-8.5t-20 -3.5t-26 -10t-21 -21.5t-10.5 -36
v-314l1 -2v-131h-23l-343 532h107l238 -368v283q-2 33 -25 50.5t-45 19.5l-23 1v14z" />
    <glyph glyph-name="o" unicode="o" horiz-adv-x="782" 
d="M391 742q135 0 230.5 -112t95.5 -271q0 -158 -95.5 -270.5t-230.5 -112.5t-230.5 112.5t-95.5 270.5q0 159 95.5 271t230.5 112zM391 2q97 0 165 106t68 256t-68 256t-165 106q-96 0 -164 -106t-68 -256t68 -256t164 -106z" />
    <glyph glyph-name="p" unicode="p" horiz-adv-x="686" 
d="M351 731q1 -2 14.5 0t36.5 -2t49.5 -8.5t54 -18t50 -31t36.5 -48t14 -68.5q0 -145 -155 -191q-51 -16 -99 -16h-1h-96v-262q1 -12 4 -22.5t8 -17t12 -12t14 -8.5t15 -5t15.5 -2.5t14 -0.5t11.5 0.5t9 1.5h3v-20h-106h-90h-85v14h8t18.5 3t24.5 9t20.5 19t12.5 31
q1 4 1 13v279h173q-58 82 -87 122q-42 59 -90 123q-50 66 -81 100v9v9h271zM509 534v16t-2.5 26.5t-7.5 35.5t-17 35t-28 34t-42.5 22.5t-60.5 9.5h-13h-140l53 -70q49 -65 181 -253v-1l1 -1q76 42 76 146z" />
    <glyph glyph-name="q" unicode="q" horiz-adv-x="862" 
d="M280 4q-95 40 -155 138.5t-60 221.5q0 159 95.5 271t230.5 112t230.5 -112t95.5 -271q0 -154 -91 -265.5t-222 -117.5h1q-64 -3 -125 23zM392 731q-97 0 -165 -106t-68 -256t68 -256t165 -106q96 0 164 106t68 256t-68 256t-164 106zM783 -25l-21 -30q-7 -7 -10 -11
q-44 -48 -167 -48q-10 0 -30 2q-7 1 -20.5 2.5t-20.5 2.5q-8 1 -24 3.5t-24 3.5q-30 6 -50 8l-47 9q-14 2 -42 8l-31 6q-9 1 -25 5q-38 7 -80 12q-9 1 -29 1h-5h-6q45 -13 116 -37q7 -2 70 -27q14 -6 48 -21.5t53 -22.5q19 -8 57 -20q30 -8 46 -10q45 -9 81 -6q41 3 71 21h1
q1 0 2 1l6 3q22 14 34 28q15 14 25 31q9 12 18 31q8 18 11 27l3 8q2 5 4 15z" />
    <glyph glyph-name="r" unicode="r" horiz-adv-x="801" 
d="M732 26q6 -2 9 -2l-5 -29h-8q-38 0 -81 8q-58 12 -106 77q-20 27 -58 81q-56 78 -83 118q-24 33 -48 69h-1h-96v-262q1 -12 4 -22.5t8 -17t12 -12t14 -8.5t15 -5t15.5 -2.5t14 -0.5t11.5 0.5t9 1.5h3v-20h-106h-90h-85v14h8t18.5 3t24.5 9t20.5 19t12.5 31q1 4 1 13v279
h173q-58 82 -87 122q-42 59 -90 123q-50 66 -81 100v9v9h271q1 -2 14.5 0t36.5 -2t49.5 -8.5t54 -18t50 -31t36.5 -48t14 -68.5q0 -145 -155 -191q7 -12 23 -34q3 -4 17.5 -25t22.5 -33q35 -50 82 -116q30 -40 46 -59q1 -1 11 -14q17 -20 40 -38q16 -11 19 -12q8 -5 20 -7z
M432 390v-1l1 -1q76 42 76 146v16t-2.5 26.5t-7.5 35.5t-17 35t-28 34t-42.5 22.5t-60.5 9.5h-13h-140l53 -70q49 -65 181 -253z" />
    <glyph glyph-name="s" unicode="s" horiz-adv-x="615" 
d="M256 424q-27 16 -47 36.5t-29 39t-14.5 34.5t-5.5 26l-1 9q-3 52 14 88q21 41 66 64q33 14 66 17q8 1 23 1h2q22 0 42 -6q28 -7 57 -26q34 -21 45 -6q7 10 10 22l2 12h17l-2 -101v-82h-19q-3 26 -13 59q-11 33 -31 61q-10 12 -25 26q-11 8 -39 17q-63 19 -103 -10
q-17 -12 -32 -32q-3 -4 -7.5 -12t-7.5 -32t4.5 -47.5t39 -54.5t86.5 -58q87 -43 134 -98.5t47 -111.5q0 -19 -3 -40l-88 55q-35 64 -188 150zM280 362q86 -42 133 -97.5t47 -111.5q0 -25 -4 -45q-14 -60 -62 -93q-35 -24 -82 -31q-30 -6 -61 -3q-35 3 -60 14q-16 7 -28 13
q-23 16 -27 17q-15 8 -25 -1q-8 -8 -12 -24q-2 -8 -2 -13h-17l2 103l-1 111h20v-5q2 -44 17 -87q13 -35 32 -59q12 -14 26 -26q11 -10 36 -19l25 -6q30 -5 56 1q73 14 88 107q5 30 -10.5 60t-50 58t-64 47.5t-75.5 45.5q-27 16 -47 36.5t-29 39t-14.5 34.5t-6.5 26v9v31
l95 -59q33 -40 101 -73z" />
    <glyph glyph-name="t" unicode="t" horiz-adv-x="733" 
d="M653 729v-217h-24q0 197 -139 197h-78v-624q0 -9 3 -20q8 -25 33.5 -38t47.5 -14l22 -1v-14h-303v14h9t22 2.5t28.5 7.5t26 16t18.5 27q3 11 3 20v624h-79q-139 0 -139 -197h-24v217h573z" />
    <glyph glyph-name="u" unicode="u" horiz-adv-x="809" 
d="M527 731h202v-14h-9t-21 -4t-26 -11t-20.5 -23t-9.5 -38v-342q0 -73 -10 -126t-35 -99t-73.5 -69.5t-120.5 -23.5q-62 0 -106 20q-41 17 -69 50q-24 25 -40 64q-12 30 -18 62q-6 34 -6 84v58v80v86v79v58v23q0 6 -2 20q-7 24 -28 37t-38 14l-17 1v14h261v-14h-8.5
t-20 -3.5t-26 -10t-21 -21.5t-10.5 -36v-17v-52l340 -450q28 61 28 172v342q0 22 -10 38.5t-24 23t-28 10.5t-24 4h-10v14zM345 37q29 -15 66 -15q77 0 126 34l-282 371v-104q0 -117 5 -147q15 -102 85 -139z" />
    <glyph glyph-name="v" unicode="v" horiz-adv-x="828" 
d="M748 731v-16q-8 -1 -8 -2q-11 -3 -20.5 -9t-16.5 -11.5t-14 -16.5t-11.5 -17.5t-10 -20.5t-8 -19.5t-8 -21t-6.5 -18.5q-5 -14 -19 -50.5t-22 -56.5l-30 -80q-3 -8 -9 -23.5t-9 -23.5l-3.5 -10.5t-4.5 -11.5q-3 -7 -10.5 -27t-11.5 -31q-7 -18 -16 -43q-4 -8 -10 -26
q-9 -22 -25 -66q-10 -24 -14 -36l-49 -127l-256 673q-8 20 -20 37q-13 18 -27 27.5t-21 9.5l-8 1v16h668zM639 626q5 28 -3.5 47.5t-26 27.5t-30.5 11t-25 3h-6q-19 0 -21 -2q-30 -4 -44 -23q-7 -9 -7.5 -21t0.5 -18.5t7.5 -23t7.5 -18.5q26 -66 38 -99q12 -30 34 -90
l69 181q4 9 7 25zM489 224l26 69l-132 347q-9 24 -20 37q-24 33 -53 36q-36 3 -55 -23q-5 -7 -7 -15t0 -18l3 -15t6.5 -18t6.5 -15q7 -16 19.5 -49t18.5 -50l48 -127q17 -42 49 -126l36 -97q3 -6 8 -18.5t7 -19.5z" />
    <glyph glyph-name="w" unicode="w" horiz-adv-x="1121" 
d="M851 731h200v-16h-1q-2 0 -4 -1h-3q-12 -4 -22.5 -10t-19 -16.5t-14 -18t-12.5 -23t-9.5 -22t-9 -24t-7.5 -21.5l-233 -612l-157 413l-157 -413l-256 673q-7 19 -20 38q-13 17 -27 26.5t-21 9.5l-8 1v16h246v-16q-2 1 -6.5 0.5t-11.5 -1.5h-8q-32 -6 -45 -24
q-5 -7 -7 -15t0 -18.5t3 -14.5t7 -17.5t6 -14.5l134 -353q1 -4 52 -135l108 286l-88 232q-7 19 -20 38q-13 17 -27 26.5t-21 9.5l-8 1v16h354v-15l-8 -2q-12 -4 -22 -9.5t-18.5 -15.5t-14.5 -17.5t-12.5 -22t-9.5 -22t-9.5 -25t-8.5 -23.5q-3 -9 -13 -34t-15 -39
q32 -82 47 -123l48 -126q13 -32 37 -96l15 -39q182 470 188 504q5 27 -2.5 46t-21.5 27t-29.5 12t-26.5 4h-11v16zM568 610q5 -12 14.5 -37t13.5 -38l26 66q6 15 7 25q8 51 -23 71q-14 8 -24.5 6.5t-16.5 -7.5l-6 -6q-15 -22 3 -64z" />
    <glyph glyph-name="x" unicode="x" horiz-adv-x="791" 
d="M711 21v-21h-235v21q74 0 74 17q0 7 -12 26q-7 9 -86 131t-85 131q-128 -185 -142 -217q-10 -24 -10 -39q0 -47 92 -50v-20h-227v20q35 6 67 36q17 15 35 41l170 251q1 1 -94 145.5t-101 152.5q-18 30 -30 43q-13 15 -40 20l-6 1v21h234v-21q-69 0 -69 -23q0 -7 10 -24
l155 -238q3 4 55.5 79t61.5 87q35 53 35 78q0 22 -20 31.5t-61 10.5v20h207v-20q-59 -8 -116 -95l-145 -216q205 -313 220 -334q17 -26 26 -33q13 -11 37 -12z" />
    <glyph glyph-name="y" unicode="y" horiz-adv-x="771" 
d="M496 731h195v-16q-40 0 -76 -72l-171 -352v-202v-13q4 -29 25.5 -44.5t40.5 -16.5l19 -1v-14h-261v14h7.5t17.5 3t23.5 8t21 16.5t14.5 28.5q2 10 2 17v158l-211 423q-3 6 -11 18q-21 29 -52 29v16h235v-16q-2 0 -5 -0.5t-12 -1.5t-16.5 -2.5t-17.5 -4.5t-14.5 -8
t-9 -11.5t0.5 -14.5l185 -371l151 309q8 20 9 30q7 38 -15.5 56.5t-48.5 18.5h-26v16z" />
    <glyph glyph-name="z" unicode="z" horiz-adv-x="734" 
d="M453 20q139 0 139 197h24v-217h-536l455 711h-247q-139 0 -139 -196h-24v216h529l-455 -711h254z" />
    <glyph glyph-name="quotedblleft" unicode="&#x201c;" horiz-adv-x="440" 
d="M77 522q22 -32 61 -32q28 0 47 18.5t19 47.5q0 30 -19 48t-47 18q-20 0 -38 -14q-3 9 -3 22q0 30 23 59t56 42l-10 19q-106 -49 -106 -159q0 -41 17 -69zM253 522q22 -32 61 -32q28 0 47 18.5t19 47.5q0 30 -19 48t-47 18q-20 0 -38 -14q-3 9 -3 22q0 30 23 59t55 42
l-9 19q-107 -50 -107 -159q0 -41 18 -69z" />
    <glyph glyph-name="quotedblright" unicode="&#x201d;" horiz-adv-x="441" 
d="M363 717q-24 32 -61 31q-28 0 -47.5 -18.5t-18.5 -46.5q0 -30 19 -48.5t47 -17.5q22 0 38 14q1 -2 3 -22q0 -30 -23 -59.5t-56 -42.5l10 -19q107 51 107 159q-3 45 -18 70zM186 716q-20 32 -61 32q-28 -1 -47 -19.5t-18 -47.5q1 -30 19.5 -48t46.5 -17q18 0 38 13
q3 -8 2 -21q1 -29 -22 -58.5t-55 -43.5l10 -19q106 52 106 160q0 42 -19 69z" />
    </font>
</defs>
</svg>
