<?xml version="1.0" standalone="no"?>
<!DOCTYPE svg PUBLIC "-//W3C//DTD SVG 1.1//EN" "http://www.w3.org/Graphics/SVG/1.1/DTD/svg11.dtd" >
<svg>
<metadata>
Created by FontForge 20120731 at Fri Aug 30 17:38:12 2019
 By www
Copyright (c) 2011 by Tom Grace. All rights reserved.
</metadata>
<defs>
<font id="IskraW04-Regular" horiz-adv-x="361" >
  <font-face 
    font-family="IskraW04-Regular"
    font-weight="400"
    font-stretch="normal"
    units-per-em="1000"
    panose-1="2 11 5 4 6 1 3 3 0 3"
    ascent="800"
    descent="-200"
    x-height="481"
    cap-height="648"
    bbox="-130 -249 1171 925"
    underline-thickness="50"
    underline-position="-75"
    unicode-range="U+0020-FB04"
  />
<missing-glyph horiz-adv-x="733" 
d="M80 -100v823h574v-823h-574z" />
    <glyph glyph-name="uniFB00" unicode="ff" horiz-adv-x="665" 
d="M93 0v358l-71 27q1 11 5 24.5t12 21.5h54v27q0 42 11.5 77.5t34 62t55 41.5t74.5 15q12 0 24.5 -2.5t23.5 -9t18 -17t7 -26.5v-30q-8 2 -20 4t-22 2q-67 0 -94.5 -33.5t-27.5 -99.5v-11h225v27q0 42 11.5 77.5t34 62t55 41.5t74.5 15q11 0 24 -2.5t23.5 -9t17.5 -17
t7 -26.5v-30q-8 2 -20 4t-22 2q-66 0 -93.5 -33.5t-27.5 -99.5v-11h114q24 0 28 -18t4 -59h-146v-354h-84v354h-225v-354h-84z" />
    <glyph glyph-name="uniFB01" unicode="fi" horiz-adv-x="547" 
d="M93 0v358l-71 27q1 11 5 24.5t12 21.5h54v27q0 42 11.5 77.5t34 62t55 41.5t73.5 15q12 0 24.5 -2.5t23.5 -9t18 -17t7 -26.5v-30q-8 2 -20 4t-22 2q-66 0 -93.5 -33.5t-27.5 -99.5v-11h301v-431h-84v354h-217v-354h-84zM499 646q0 -60 -59 -60q-33 0 -46 15t-13 45
q0 29 13 44.5t46 15.5q31 0 45 -15.5t14 -44.5z" />
    <glyph glyph-name="uniFB02" unicode="fl" horiz-adv-x="567" 
d="M413 0v465q0 27 -9.5 47.5t-25.5 34.5t-37 21t-44 7q-52 0 -86 -33.5t-34 -99.5v-11h107q24 0 28 -18.5t4 -58.5h-139v-354h-84v360l-71 25q1 11 5 24.5t12 21.5h54v27q0 42 12.5 77.5t35.5 62t55 41.5t72 15q48 0 84.5 -16t60.5 -44v41q0 17 3 26t12 13.5t25.5 5
t43.5 0.5v-680h-84z" />
    <glyph glyph-name="uniFB03" unicode="ffi" horiz-adv-x="856" 
d="M93 0v359l-71 26q1 11 5 24.5t12 21.5h54v27q0 42 11.5 77.5t34 62t55 41.5t74.5 15q12 0 24.5 -2.5t23.5 -9t18 -17t7 -26.5v-30q-8 2 -20 4t-22 2q-67 0 -94.5 -33.5t-27.5 -99.5v-11h225v27q0 42 11.5 77.5t34 62t55 41.5t73.5 15q12 0 24.5 -2.5t23.5 -9t18 -17
t7 -26.5v-30q-8 2 -20 4t-22 2q-66 0 -93.5 -33.5t-27.5 -99.5v-11h300v-431h-84v354h-216v-354h-84v354h-225v-354h-84zM807 646q0 -30 -13.5 -45t-45.5 -15t-45.5 15t-13.5 45q0 29 13.5 44.5t45.5 15.5t45.5 -15.5t13.5 -44.5z" />
    <glyph glyph-name="uniFB04" unicode="ffl" horiz-adv-x="875" 
d="M93 0v359l-71 26q1 11 5 24.5t12 21.5h54v27q0 42 11.5 77.5t34 62t55 41.5t74.5 15q12 0 24.5 -2.5t23.5 -9t18 -17t7 -26.5v-30q-8 2 -20 4t-22 2q-67 0 -94.5 -33.5t-27.5 -99.5v-11h225v27q0 42 12.5 77.5t35.5 62t55 41.5t72 15q48 0 84 -16t61 -44v41q0 17 2.5 26
t11.5 13.5t25.5 5t44.5 0.5v-680h-84v465q0 27 -9.5 47.5t-25.5 34.5t-37 21t-44 7q-53 0 -86.5 -33.5t-33.5 -99.5v-11h107q23 0 27 -18.5t4 -58.5h-138v-354h-84v354h-225v-354h-84z" />
    <glyph glyph-name=".notdef" horiz-adv-x="733" 
d="M80 -100v823h574v-823h-574z" />
    <glyph glyph-name="glyph1" horiz-adv-x="0" 
 />
    <glyph glyph-name="glyph1" horiz-adv-x="0" 
 />
    <glyph glyph-name="nonmarkingreturn" horiz-adv-x="333" 
 />
    <glyph glyph-name="space" unicode=" " horiz-adv-x="220" 
 />
    <glyph glyph-name="space" unicode="&#xa0;" horiz-adv-x="220" 
 />
    <glyph glyph-name="exclam" unicode="!" horiz-adv-x="320" 
d="M220 60q0 -68 -67 -68q-68 0 -68 68q0 32 16.5 50t51.5 18t51 -18t16 -50zM120 217l-22 384q-1 18 6 27.5t22 14t36.5 5t49.5 0.5l-22 -431h-70z" />
    <glyph glyph-name="quotedbl" unicode="&#x22;" horiz-adv-x="433" 
d="M98 429l-19 255h102l-19 -255h-64zM270 429l-18 255h102l-19 -255h-65z" />
    <glyph glyph-name="numbersign" unicode="#" horiz-adv-x="511" 
d="M103 -10l19 169h-82v70h90l15 126h-115v70h123l18 157h74l-18 -157h89l18 157h74l-18 -157h64q20 0 23 -18t3 -52h-98l-15 -126h80q20 0 23 -17.5t3 -52.5h-114l-19 -169h-74l19 169h-89l-19 -169h-74zM204 229h89l15 126h-89z" />
    <glyph glyph-name="dollar" unicode="$" horiz-adv-x="511" 
d="M226 -101v91q-64 2 -102.5 22.5t-38.5 61.5v30q29 -15 68 -25t79 -10q23 0 44.5 4t38 13t26.5 23t10 35q0 28 -21 45t-52 29.5t-67.5 25t-67.5 32t-52 49t-21 77.5q0 73 43.5 118.5t112.5 57.5v95h71v-93q31 -3 58.5 -13t47.5 -25t31.5 -35t11.5 -42q0 -35 -14 -50.5
t-34 -15.5h-28v20q0 16 -7 31t-20 27t-32.5 19t-44.5 7q-49 0 -77 -24.5t-28 -62.5q0 -34 21 -53.5t52 -33t68 -25.5t68 -30t52 -46t21 -74q0 -33 -11.5 -59.5t-31.5 -46t-46.5 -32.5t-56.5 -19v-98h-71z" />
    <glyph glyph-name="percent" unicode="%" horiz-adv-x="831" 
d="M810 211q0 -44 -10 -83.5t-30 -70t-50 -48.5t-70 -18q-41 0 -71 18t-49.5 48.5t-29.5 70t-10 83.5q0 43 9.5 79t29.5 61.5t50 39.5t71 14q40 0 70 -14t50 -39.5t30 -61.5t10 -79zM730 211q0 57 -17.5 92t-62.5 35t-62.5 -36t-17.5 -91q0 -28 4 -55.5t13.5 -49t24.5 -35
t38 -13.5q22 0 37.5 13t25 34.5t13.5 49t4 56.5zM272 -40h-82l371 752h82zM340 467q0 -44 -10 -83.5t-30 -70t-50 -48.5t-70 -18q-41 0 -70.5 18t-49.5 48.5t-29.5 70t-9.5 83.5q0 43 9.5 79t29.5 61.5t49.5 39.5t70.5 14q40 0 70 -14t50 -39.5t30 -61.5t10 -79zM261 467
q0 57 -17.5 92t-63.5 35q-45 0 -62.5 -36t-17.5 -91q0 -28 4 -55.5t13.5 -49t24.5 -35t38 -13.5t38.5 13t25 34.5t13.5 49t4 56.5z" />
    <glyph glyph-name="ampersand" unicode="&#x26;" horiz-adv-x="529" 
d="M481 190q0 -42 -18.5 -77.5t-50.5 -61.5q17 -31 35.5 -60t33.5 -51v-12h-94q-11 17 -24 38.5t-24 42.5q-52 -19 -110 -19q-40 0 -75 10t-61.5 31t-41.5 52.5t-15 74.5q0 59 33.5 94t92.5 58q-42 20 -64 53t-22 76q0 35 14 62t38 45t55 27.5t64 9.5q38 0 69 -10t53.5 -29
t35 -45.5t12.5 -59.5q0 -36 -11.5 -61.5t-31 -43.5t-44.5 -30t-51 -22q-27 -10 -53.5 -20t-47.5 -23.5t-33.5 -33t-12.5 -47.5q0 -41 29.5 -64t74.5 -23q34 0 63.5 11t51.5 32t34.5 53t12.5 74v22h20q27 0 45 -17t18 -56zM248 354q32 0 55.5 21t23.5 59q0 37 -23.5 55
t-55.5 18q-34 0 -56.5 -20.5t-22.5 -56.5q0 -29 21.5 -52.5t57.5 -23.5z" />
    <glyph glyph-name="quotesingle" unicode="'" horiz-adv-x="261" 
d="M98 429l-19 255h102l-19 -255h-64z" />
    <glyph glyph-name="parenleft" unicode="(" horiz-adv-x="321" 
d="M231 -129q-43 61 -73.5 117t-50 113t-28.5 118t-9 132q0 57 10.5 109t28 98.5t40.5 86.5t48 75q15 21 30 21q17 0 51 -25q-60 -87 -93 -178t-33 -187q0 -128 33.5 -236t99.5 -207z" />
    <glyph glyph-name="parenright" unicode=")" horiz-adv-x="321" 
d="M251 350q0 -71 -10.5 -134.5t-28.5 -119.5t-42.5 -105t-52.5 -90q-13 -22 -29 -22q-10 0 -22.5 6.5t-29.5 18.5q66 100 99 209t33 237q0 96 -33 186.5t-93 178.5l55 37q73 -95 113.5 -191.5t40.5 -210.5z" />
    <glyph glyph-name="asterisk" unicode="*" horiz-adv-x="345" 
d="M188 516l-22 -123q-16 1 -37 8t-33 15l54 113l-122 -18q-4 15 -4 38t4 37l123 -18l-53 113q11 9 32 15.5t36 7.5l22 -123l90 87q11 -10 24 -28t18 -32l-110 -59l110 -59q-5 -14 -18 -32t-24 -29z" />
    <glyph glyph-name="plus" unicode="+" horiz-adv-x="511" 
d="M218 24v180h-177v74h177v180h75v-180h177v-74h-177v-180h-75z" />
    <glyph glyph-name="comma" unicode="," horiz-adv-x="261" 
d="M124 -127q-6 -12 -11.5 -18t-14.5 -6q-7 0 -18 4t-28 10q17 64 23.5 124.5t10.5 126.5h104q-5 -72 -23 -133t-43 -108z" />
    <glyph glyph-name="hyphen" unicode="-" horiz-adv-x="363" 
d="M308 226h-252v81h252v-81z" />
    <glyph glyph-name="hyphen" unicode="&#xad;" horiz-adv-x="363" 
d="M308 226h-252v81h252v-81z" />
    <glyph glyph-name="period" unicode="." horiz-adv-x="261" 
d="M131 -8q-36 0 -52.5 18t-16.5 52q0 32 16.5 50.5t52.5 18.5q34 0 50.5 -18.5t16.5 -50.5q0 -70 -67 -70z" />
    <glyph glyph-name="slash" unicode="/" horiz-adv-x="360" 
d="M-14 -100l310 823h79l-310 -823h-79z" />
    <glyph glyph-name="slash" unicode="&#x2215;" horiz-adv-x="360" 
d="M-14 -100l310 823h79l-310 -823h-79z" />
    <glyph glyph-name="zero" unicode="0" horiz-adv-x="511" 
d="M475 304q0 -62 -13 -118.5t-39.5 -100t-68 -69.5t-98.5 -26q-58 0 -99.5 26t-68.5 69.5t-39.5 100t-12.5 118.5t12.5 113t39.5 88t68.5 57t99.5 20q57 0 98.5 -20t68 -57t39.5 -88t13 -113zM378 304q0 97 -28.5 147.5t-93.5 50.5q-66 0 -94.5 -50.5t-28.5 -147.5
q0 -48 7 -91t22 -74.5t38 -50t56 -18.5q32 0 55 18.5t38 50t22 74.5t7 91z" />
    <glyph glyph-name="one" unicode="1" horiz-adv-x="511" 
d="M84 403q23 6 55 17t60.5 25t48.5 30.5t20 33.5v20q0 18 3.5 27.5t13.5 14t27.5 5t45.5 0.5v-576h-90v389q-34 -22 -73.5 -38t-86.5 -30z" />
    <glyph glyph-name="two" unicode="2" horiz-adv-x="511" 
d="M51 0q-2 21 0.5 43t10.5 39q53 26 105.5 59.5t94 72.5t67.5 82.5t26 90.5q0 60 -32 87.5t-82 27.5q-29 0 -50 -8.5t-35.5 -23t-21.5 -32t-7 -35.5v-21h-34q-15 0 -27.5 12t-12.5 37q0 34 15.5 62t42.5 47.5t62 30.5t74 11q44 0 81.5 -12.5t65 -36t43 -57t15.5 -75.5
q0 -48 -19 -93t-51.5 -85t-75.5 -76t-91 -66h231v-81h-395z" />
    <glyph glyph-name="three" unicode="3" horiz-adv-x="511" 
d="M429 165q0 -45 -18 -78t-48 -54.5t-68 -32t-78 -10.5q-66 0 -107 20t-41 66v30q29 -14 64.5 -24.5t74.5 -10.5q24 0 46.5 6t40 17.5t27.5 29t10 41.5q0 23 -11 38t-29.5 23.5t-42.5 11.5t-49 3h-42v75h25q77 0 111.5 30.5t34.5 77.5q0 35 -25.5 56.5t-68.5 21.5
q-25 0 -43.5 -7.5t-30.5 -19t-17.5 -26t-5.5 -28.5v-21h-34q-15 0 -27.5 12t-12.5 36q0 34 15.5 59.5t40.5 42t57.5 24.5t67.5 8q40 0 73.5 -10.5t57.5 -30t37.5 -46.5t13.5 -60q0 -48 -27.5 -84.5t-75.5 -58.5q49 -14 77 -45t28 -82z" />
    <glyph glyph-name="four" unicode="4" horiz-adv-x="511" 
d="M310 0v116h-281q-2 21 1 42t11 37q67 94 126 189t107 188h97v-12q-55 -100 -111.5 -187.5t-122.5 -176.5h173v87q0 17 4 26.5t13.5 14t26.5 5t43 0.5v-133h86v-80h-86v-116h-87z" />
    <glyph glyph-name="five" unicode="5" horiz-adv-x="511" 
d="M451 169q0 -44 -19 -77.5t-50 -56t-71 -34t-81 -11.5q-33 0 -62 5t-50.5 15.5t-34 26.5t-12.5 39v30q33 -16 67.5 -25.5t76.5 -9.5q29 0 54.5 6.5t44.5 19t30 30t11 39.5q0 21 -7 37.5t-23 28t-42.5 17.5t-65.5 6q-22 0 -50 -2.5t-57 -9.5q-10 17 -16 33t-11 37l12 259
h321q26 0 30.5 -17.5t4.5 -62.5h-282l-9 -166q17 2 33.5 3.5t29.5 1.5q118 0 173 -39.5t55 -122.5z" />
    <glyph glyph-name="six" unicode="6" horiz-adv-x="511" 
d="M463 179q0 -44 -17 -79t-45 -59.5t-64.5 -37.5t-76.5 -13q-57 0 -98 22t-67.5 58.5t-38.5 84t-12 98.5q0 72 18.5 132.5t54 104t86 68t114.5 24.5q31 0 59 -7.5t48 -21t32 -33t12 -43.5q0 -32 -18 -48t-44 -16h-22v22q0 32 -21 49t-56 17t-65.5 -16.5t-53 -45.5
t-35 -69.5t-12.5 -88.5v-17t1 -18q30 37 73.5 57.5t93.5 20.5q31 0 59 -8t49 -25.5t33.5 -45t12.5 -66.5zM366 163q0 35 -21 59t-72 24q-21 0 -41 -6t-35.5 -17.5t-24.5 -28t-9 -36.5q0 -17 6.5 -33.5t19 -29t30.5 -20t41 -7.5q26 0 45.5 8t33 21.5t20.5 30.5t7 35z" />
    <glyph glyph-name="seven" unicode="7" horiz-adv-x="511" 
d="M112 0v12q30 66 59.5 127.5t60.5 120t64 115.5t69 116h-311q0 44 4 62.5t29 18.5h380q2 -21 -0.5 -43t-10.5 -38q-35 -64 -66 -123t-59.5 -118t-56.5 -120t-56 -130h-106z" />
    <glyph glyph-name="eight" unicode="8" horiz-adv-x="511" 
d="M461 155q0 -39 -17 -69.5t-45.5 -52t-65.5 -32.5t-77 -11t-77 11t-65.5 32.5t-45.5 52t-17 69.5q0 51 30 84.5t81 50.5q-51 18 -79.5 53t-28.5 81q0 42 18 72t46.5 49t65 28t72.5 9t72.5 -9t65 -28t46.5 -49t18 -72q0 -46 -29.5 -81t-80.5 -53q51 -17 82 -50.5t31 -84.5z
M364 161q0 39 -30 63t-78 24t-78 -24t-30 -63q0 -42 30 -68t78 -26t78 26t30 68zM361 414q0 42 -28.5 66.5t-76.5 24.5t-76.5 -24.5t-28.5 -66.5q0 -19 7.5 -36t21.5 -30t33.5 -20.5t42.5 -7.5t42 7.5t33 20.5t22 30t8 36z" />
    <glyph glyph-name="nine" unicode="9" horiz-adv-x="511" 
d="M458 319q0 -72 -21 -132.5t-59 -104t-91 -68t-117 -24.5q-14 0 -33.5 1.5t-37 8.5t-29.5 20t-12 36v31q24 -9 48 -12.5t48 -3.5q48 0 86 16.5t65 46t41.5 70t14.5 87.5v11t-1 11q-35 -45 -77.5 -65t-93.5 -20q-30 0 -57.5 9.5t-48 29t-33 48.5t-12.5 69q0 44 15.5 80.5
t43 62.5t64.5 40.5t80 14.5q57 0 98 -22t67.5 -58.5t39 -84t12.5 -98.5zM339 405q0 19 -6.5 37t-19 31.5t-30.5 21.5t-41 8q-26 0 -46 -8.5t-33.5 -22.5t-20.5 -32.5t-7 -39.5q0 -19 5 -36t16 -29.5t29 -20t44 -7.5q21 0 41 7t35.5 19.5t24.5 30.5t9 41z" />
    <glyph glyph-name="colon" unicode=":" horiz-adv-x="261" 
d="M131 -8q-36 0 -52.5 18t-16.5 52q0 32 16.5 50.5t52.5 18.5q34 0 50.5 -18.5t16.5 -50.5q0 -70 -67 -70zM131 330q-36 0 -52.5 18t-16.5 52q0 32 16.5 50.5t52.5 18.5q34 0 50.5 -18.5t16.5 -50.5q0 -70 -67 -70z" />
    <glyph glyph-name="semicolon" unicode=";" horiz-adv-x="261" 
d="M131 330q-36 0 -52.5 18t-16.5 52q0 32 16.5 50.5t52.5 18.5q34 0 50.5 -18.5t16.5 -50.5q0 -70 -67 -70zM114 -127q-6 -12 -11.5 -18t-14.5 -6q-7 0 -18 4t-28 10q17 64 23.5 124.5t10.5 126.5h104q-5 -72 -23 -133t-43 -108z" />
    <glyph glyph-name="less" unicode="&#x3c;" horiz-adv-x="511" 
d="M61 196v89l388 166v-83l-305 -128l305 -127v-83z" />
    <glyph glyph-name="equal" unicode="=" horiz-adv-x="511" 
d="M41 105v74h429v-74h-429zM41 303v74h429v-74h-429z" />
    <glyph glyph-name="greater" unicode="&#x3e;" horiz-adv-x="511" 
d="M62 30v83l304 127l-304 128v83l388 -166v-89z" />
    <glyph glyph-name="question" unicode="?" horiz-adv-x="402" 
d="M208 60q0 -68 -67 -68q-35 0 -51 17.5t-16 50.5q0 32 16 50t51 18t51 -18t16 -50zM347 520q0 -34 -13.5 -60t-34 -47t-44 -38t-44 -32t-34 -30t-13.5 -31q0 -18 12.5 -26.5t29.5 -8.5v-16q0 -18 -14.5 -27t-34.5 -9q-39 0 -60 26t-21 64q0 24 12.5 44.5t31.5 38t40.5 34
t40.5 33.5t31.5 36.5t12.5 42.5q0 32 -23.5 47t-55.5 15q-26 0 -49 -8t-45 -22l-12 27q-6 15 4 29.5t30.5 26t46.5 18.5t52 7q30 0 58 -8t49.5 -24.5t34 -41.5t12.5 -60z" />
    <glyph glyph-name="at" unicode="@" horiz-adv-x="804" 
d="M267 137q0 41 28.5 65.5t92.5 32.5l91 10v2q-2 46 -29 63t-66 17q-23 0 -43.5 -6t-40.5 -14v22q0 15 11 26t28 18t37 10.5t38 3.5q22 0 45 -5t42.5 -19.5t33.5 -41t17 -69.5l11 -148q35 10 60 31t41 48t23.5 59.5t7.5 65.5q0 42 -16 85.5t-49.5 79t-86 57.5t-125.5 22
q-72 0 -129 -22.5t-97 -64t-61.5 -98.5t-21.5 -126q0 -66 20 -123t58.5 -99t94 -66t127.5 -24q10 0 25 1t30.5 3.5t30 5.5t23.5 8v-22q0 -14 -11 -24t-28 -16t-39.5 -8.5t-44.5 -2.5q-82 0 -145.5 29t-107 79t-66.5 116.5t-23 142.5q0 79 26 146.5t73.5 116t115 76
t150.5 27.5t145.5 -25t104 -66.5t62.5 -95.5t21 -112q0 -55 -17.5 -103.5t-50.5 -85t-81.5 -58t-110.5 -22.5l-4 63q-20 -32 -48.5 -49.5t-69.5 -17.5q-27 0 -46 9t-31.5 23.5t-18.5 33t-6 36.5zM348 142q0 -22 12.5 -37t37.5 -15q18 0 33 9.5t25.5 24.5t16.5 34t7 39
l-82 -10q-23 -3 -36.5 -15t-13.5 -30z" />
    <glyph glyph-name="A" unicode="A" horiz-adv-x="669" 
d="M530 0l-51 140h-296q-12 -35 -22.5 -70t-21.5 -70h-105q24 72 50.5 144t55.5 142t59.5 136.5t62.5 126.5q22 44 12 72q26 15 52.5 22t54.5 9l254 -640v-12h-105zM340 519q-35 -69 -66.5 -143.5t-60.5 -151.5h236z" />
    <glyph glyph-name="B" unicode="B" horiz-adv-x="564" 
d="M510 183q0 -46 -20.5 -80.5t-54.5 -57t-76.5 -34t-87.5 -11.5h-28q-84 0 -124 37.5t-40 128.5v417q0 23 3 35.5t12.5 18t27.5 6.5t47 1h109q43 0 84 -8.5t73.5 -28t52.5 -51t20 -77.5q0 -60 -30 -98.5t-81 -58.5q51 -14 82 -46t31 -93zM414 188q0 28 -13.5 45.5t-36 27.5
t-51.5 13.5t-60 3.5h-84v-110q0 -42 18 -63t61 -21h19q25 0 51 5t47.5 17t35 32t13.5 50zM411 463q0 28 -12 47t-32 30.5t-46 16.5t-55 5h-97v-210h72q85 0 127.5 29.5t42.5 81.5z" />
    <glyph glyph-name="C" unicode="C" horiz-adv-x="627" 
d="M565 88q0 -28 -17.5 -46.5t-45 -30t-62 -16.5t-67.5 -5q-72 0 -131 23t-101 67.5t-65 110t-23 150.5q0 69 23 126.5t64 99t99 64.5t127 23q46 0 85.5 -11.5t69 -31.5t46.5 -48.5t17 -62.5q0 -33 -18 -51.5t-41 -18.5h-31v22q0 53 -35 84.5t-98 31.5q-45 0 -83.5 -18
t-67 -48.5t-44.5 -72t-16 -88.5q0 -56 15.5 -103.5t46.5 -82.5t78 -55t110 -20q45 0 85.5 10.5t79.5 28.5v-31z" />
    <glyph glyph-name="D" unicode="D" horiz-adv-x="680" 
d="M626 343q0 -78 -26 -141.5t-70 -108.5t-103.5 -69t-125.5 -24h-50q-84 0 -124 37.5t-40 128.5v391h-52q0 43 4 65t29 22h245q65 0 122 -18.5t99.5 -56t67 -94t24.5 -132.5zM177 557v-381q0 -44 19 -66.5t64 -22.5h38q46 0 88.5 16.5t74 48.5t50.5 80t19 111
q0 58 -18.5 99t-50 66.5t-73.5 37t-90 11.5h-121z" />
    <glyph glyph-name="E" unicode="E" horiz-adv-x="524" 
d="M472 0h-242q-42 0 -71 8t-46.5 25.5t-25.5 46t-8 69.5v447q0 18 3.5 27.5t13 14t27 5.5t46.5 1h263q25 0 29.5 -22t4.5 -65h-297v-204h243v-82h-243v-111q0 -38 17.5 -55.5t58.5 -17.5h227v-87z" />
    <glyph glyph-name="F" unicode="F" horiz-adv-x="494" 
d="M79 0v596q0 18 3.5 27.5t13 14t27.5 5.5t47 1h261q25 0 29 -21.5t4 -65.5h-294v-228h253v-83h-253v-246h-91z" />
    <glyph glyph-name="G" unicode="G" horiz-adv-x="685" 
d="M557 197v-115q0 -26 -19 -43.5t-48 -28.5t-63.5 -15.5t-65.5 -4.5q-71 0 -128 24t-97 69t-61.5 110t-21.5 148q0 69 23 126.5t64 99t99 64.5t128 23q49 0 89.5 -10.5t69.5 -30t45 -46.5t16 -60q0 -34 -18 -55.5t-41 -21.5h-31v22q0 54 -35 85t-98 31q-50 0 -89.5 -17.5
t-67.5 -48t-42.5 -72t-14.5 -89.5q0 -57 14 -105.5t43 -84.5t75 -56t109 -20q38 0 76 11v146q0 18 3.5 27.5t13 14t27.5 5.5t47 1h95v-83h-96z" />
    <glyph glyph-name="H" unicode="H" horiz-adv-x="676" 
d="M597 44q0 -18 -3 -28t-13 -14.5t-27.5 -5t-46.5 -0.5v273h-337v-269h-91v600q0 18 3.5 27.5t13.5 14t28 5.5t46 1v-294h337v290h90v-600z" />
    <glyph glyph-name="I" unicode="I" horiz-adv-x="249" 
d="M79 0v600q0 18 3.5 27.5t13.5 14t28 5.5t46 1v-648h-91z" />
    <glyph glyph-name="J" unicode="J" horiz-adv-x="308" 
d="M229 46q0 -41 -13 -70.5t-34.5 -49.5t-48 -29.5t-53.5 -9.5q-35 0 -61.5 14.5t-26.5 47.5v32q12 -5 28 -7.5t31 -2.5q41 0 64.5 24t23.5 66v539q0 18 3.5 27.5t13.5 14t27.5 5.5t45.5 1v-602v0z" />
    <glyph glyph-name="K" unicode="K" horiz-adv-x="617" 
d="M588 52q0 -17 -7 -28.5t-18.5 -19t-25.5 -11t-28 -3.5q-15 0 -29 2.5t-27.5 10.5t-28.5 22.5t-32 39.5l-142 201h-80v-266h-91v600q0 18 3.5 27.5t13.5 14t28 5.5t46 1v-297h70q28 28 58.5 64.5t59.5 76.5t55 79.5t46 72.5h104v-12q-23 -36 -50.5 -76t-59 -81t-65.5 -81
t-68 -75l150 -199q23 -31 47.5 -40.5t55.5 -9.5h15v-18z" />
    <glyph glyph-name="K" unicode="&#x212a;" horiz-adv-x="617" 
d="M588 52q0 -17 -7 -28.5t-18.5 -19t-25.5 -11t-28 -3.5q-15 0 -29 2.5t-27.5 10.5t-28.5 22.5t-32 39.5l-142 201h-80v-266h-91v600q0 18 3.5 27.5t13.5 14t28 5.5t46 1v-297h70q28 28 58.5 64.5t59.5 76.5t55 79.5t46 72.5h104v-12q-23 -36 -50.5 -76t-59 -81t-65.5 -81
t-68 -75l150 -199q23 -31 47.5 -40.5t55.5 -9.5h15v-18z" />
    <glyph glyph-name="L" unicode="L" horiz-adv-x="490" 
d="M230 0q-42 0 -71 8t-46.5 25.5t-25.5 46t-8 69.5v451q0 18 3.5 27.5t13 14t27 5.5t46.5 1v-488q0 -38 17.5 -55t58.5 -17h205v-88h-220z" />
    <glyph glyph-name="M" unicode="M" horiz-adv-x="818" 
d="M738 57q0 -23 -1.5 -35.5t-10 -18t-26 -6.5t-48.5 -1v492q-45 -106 -93.5 -204t-104.5 -195q-21 -9 -45 -13t-44 -5q-54 97 -104.5 203t-95.5 213v-487h-86v623q26 13 54.5 18t58.5 8q21 -51 46 -110t53 -120.5t58 -122t60 -115.5q33 60 61 116t53.5 110t49 107t46.5 107
q29 15 57.5 20.5t61.5 7.5v-592v0z" />
    <glyph glyph-name="N" unicode="N" horiz-adv-x="691" 
d="M611 20q-20 -14 -41.5 -20.5t-45.5 -8.5l-355 496v-487h-90v622q21 14 42.5 20.5t44.5 8.5l355 -491v484h90v-624v0z" />
    <glyph glyph-name="O" unicode="O" horiz-adv-x="714" 
d="M661 341q0 -74 -22.5 -138.5t-63 -111.5t-96.5 -74t-123 -27q-66 0 -122 27t-96 74t-62.5 111.5t-22.5 138.5t22 132t62 98.5t95.5 61.5t123.5 21t124.5 -21t96.5 -61.5t62 -98.5t22 -132zM565 341q0 111 -56.5 170t-152.5 59q-47 0 -85 -15.5t-65 -45t-41.5 -72
t-14.5 -96.5q0 -58 15 -106.5t42 -83.5t65 -54.5t84 -19.5t84.5 19t66.5 53.5t43 83t15 108.5z" />
    <glyph glyph-name="P" unicode="P" horiz-adv-x="556" 
d="M514 442q0 -54 -21.5 -96.5t-59 -71t-89.5 -43.5t-113 -15h-61v-216h-91v596q0 18 3.5 27.5t13.5 14t28 5.5t46 1h76q59 0 108 -10.5t84.5 -34t55.5 -62t20 -95.5zM419 442q0 36 -15.5 59.5t-40 36.5t-56 18t-62.5 5h-75v-263h62q40 0 74.5 9t59.5 27t39 45t14 63z" />
    <glyph glyph-name="Q" unicode="Q" horiz-adv-x="714" 
d="M661 341q0 -60 -15 -114t-42.5 -98t-66 -76t-86.5 -48q-23 -14 -23 -35q0 -17 17.5 -28t46.5 -17.5t68 -9t83 -2.5q0 -44 -9.5 -66t-34.5 -22q-47 0 -93.5 5t-83.5 17t-59.5 32.5t-22.5 52.5q0 34 33 59q-5 -1 -9 -1h-8q-66 0 -122 27t-96 74t-62.5 111.5t-22.5 138.5
t22 132t62 98.5t95.5 61.5t123.5 21t124.5 -21t96.5 -61.5t62 -98.5t22 -132zM565 341q0 111 -56.5 170t-152.5 59q-47 0 -85 -15.5t-65 -45t-41.5 -72t-14.5 -96.5q0 -58 15 -106.5t42 -83.5t65 -54.5t84 -19.5t84.5 19t66.5 53.5t43 83t15 108.5z" />
    <glyph glyph-name="R" unicode="R" horiz-adv-x="605" 
d="M527 452q0 -78 -40.5 -128t-114.5 -73l101 -130q23 -31 47 -41t55 -10h16v-18q0 -17 -7 -28.5t-18.5 -19t-25.5 -11t-28 -3.5q-15 0 -29 2.5t-28 10.5t-29 23t-32 40l-110 155h-114v-221h-91v596q0 18 3.5 27.5t13.5 14t28 5.5t46 1h123q48 0 90.5 -12.5t74.5 -37
t50.5 -60.5t18.5 -82zM431 438q0 33 -12.5 56.5t-34 38t-50 21.5t-59.5 7h-105v-256h115q29 0 55.5 9t46.5 26t32 41.5t12 56.5z" />
    <glyph glyph-name="S" unicode="S" horiz-adv-x="520" 
d="M451 178q0 -47 -18 -82t-48 -58.5t-69.5 -35.5t-82.5 -12q-29 0 -57 4.5t-50 15t-35 28t-13 43.5v37q32 -17 71 -27.5t81 -10.5q24 0 47 5t40 15.5t27.5 26.5t10.5 39q0 31 -22.5 49.5t-56 32t-73 26.5t-73 34.5t-56 55t-22.5 87.5q0 48 17 85.5t47 64t71 40t90 13.5
q41 0 76.5 -10.5t61.5 -28.5t41 -42.5t15 -52.5q0 -39 -18 -55t-41 -16h-25v22q0 40 -30 68.5t-87 28.5q-55 0 -89 -27.5t-34 -72.5q0 -39 22.5 -61.5t56.5 -38t73 -28.5t73 -32t56.5 -49.5t22.5 -80.5z" />
    <glyph glyph-name="T" unicode="T" horiz-adv-x="565" 
d="M237 0v556h-207v88h471q25 0 29.5 -22.5t4.5 -65.5h-208v-556h-90z" />
    <glyph glyph-name="U" unicode="U" horiz-adv-x="670" 
d="M593 264q0 -73 -21.5 -125t-57.5 -85t-83 -48.5t-99 -15.5t-98 17t-81 51.5t-55.5 86t-20.5 119.5v336q0 18 3.5 27.5t13.5 14t28 5.5t46 1v-372q0 -56 12 -94t33.5 -61.5t51.5 -34t67 -10.5t68.5 10.5t54 34t35.5 61.5t13 94v368h90v-380v0z" />
    <glyph glyph-name="V" unicode="V" horiz-adv-x="635" 
d="M612 644q-26 -83 -56.5 -167.5t-63.5 -166.5t-67 -158t-67 -141q-22 -9 -40.5 -12.5t-41.5 -5.5l-244 639v12h106l182 -515q27 61 53.5 127t50.5 133t45 131.5t38 123.5h105v0z" />
    <glyph glyph-name="W" unicode="W" horiz-adv-x="929" 
d="M897 644q-18 -82 -42 -168t-51.5 -169.5t-57 -159t-56.5 -136.5q-21 -9 -39.5 -12.5t-41.5 -5.5l-131 476q-35 -128 -78 -247t-83 -211q-22 -9 -40.5 -12.5t-41.5 -5.5l-196 639v12h105l136 -505q20 52 39.5 106t37 105.5t32.5 100.5t26 91q6 24 8 46t-3 36
q26 15 52 20.5t55 7.5l130 -504q21 58 41 122t38.5 128.5t34.5 127t27 118.5h99v0z" />
    <glyph glyph-name="X" unicode="X" horiz-adv-x="624" 
d="M489 0l-183 257q-46 -54 -84.5 -118t-73.5 -139h-109q25 51 49.5 95.5t51 85t55.5 77.5t62 74l-209 300v12h106l177 -251q45 59 84 125t64 126h107q-18 -40 -41.5 -83t-50 -85.5t-55.5 -82.5t-58 -75l214 -306v-12h-106z" />
    <glyph glyph-name="Y" unicode="Y" horiz-adv-x="606" 
d="M258 0v207l-230 425v12h100l180 -339q51 82 94 167t76 172h108q-29 -63 -56.5 -120t-56 -109.5t-59.5 -103t-66 -101.5v-210h-90z" />
    <glyph glyph-name="Z" unicode="Z" horiz-adv-x="575" 
d="M46 0q-2 21 0.5 45.5t10.5 41.5l345 469h-354q0 45 4 66.5t29 21.5h446q2 -21 -0.5 -45.5t-10.5 -41.5l-345 -469h349v-88h-474z" />
    <glyph glyph-name="bracketleft" unicode="[" horiz-adv-x="321" 
d="M283 -100h-199v823h199v-67h-124v-689h124v-67z" />
    <glyph glyph-name="backslash" unicode="\" horiz-adv-x="360" 
d="M296 -100l-310 823h79l310 -823h-79z" />
    <glyph glyph-name="bracketright" unicode="]" horiz-adv-x="321" 
d="M38 -33h124v689h-124v67h199v-823h-199v67z" />
    <glyph glyph-name="asciicircum" unicode="^" horiz-adv-x="511" 
d="M384 190l-129 304l-129 -304h-80l166 392h86l166 -392h-80z" />
    <glyph glyph-name="underscore" unicode="_" horiz-adv-x="462" 
d="M462 -159h-462v76h462v-76z" />
    <glyph glyph-name="grave" unicode="`" horiz-adv-x="501" 
d="M134 646q6 27 21 54t37 48l174 -142l-24 -45h-10l-198 85v0z" />
    <glyph glyph-name="grave" unicode="&#x300;" horiz-adv-x="501" 
d="M134 646q6 27 21 54t37 48l174 -142l-24 -45h-10l-198 85v0z" />
    <glyph glyph-name="grave" unicode="&#x2cb;" horiz-adv-x="501" 
d="M134 646q6 27 21 54t37 48l174 -142l-24 -45h-10l-198 85v0z" />
    <glyph glyph-name="a" unicode="a" horiz-adv-x="508" 
d="M39 136q0 55 40 90.5t128 46.5l137 16v2q-2 34 -13 57.5t-29.5 37.5t-43 20.5t-54.5 6.5q-32 0 -61.5 -8.5t-57.5 -19.5v30q0 18 15 32.5t38 24t50 14.5t52 5q28 0 60 -6.5t60 -27t47.5 -58t23.5 -99.5l18 -259q1 -17 -2.5 -26t-13 -13.5t-27.5 -5t-45 -0.5l-6 96
q-26 -48 -68 -75t-102 -27q-39 0 -66.5 13t-45 34t-26 47t-8.5 52zM139 139q0 -35 19 -58t58 -23q29 0 52 15t39.5 38.5t25.5 53.5t11 60l-128 -16q-35 -5 -56 -23t-21 -47z" />
    <glyph glyph-name="b" unicode="b" horiz-adv-x="571" 
d="M154 376q27 55 72.5 85t108.5 30q46 0 81.5 -17t59.5 -47.5t36.5 -73t12.5 -92.5q0 -55 -16.5 -104t-46.5 -86t-71 -59t-90 -22q-46 0 -84 19t-63 58v-67h-85v601q0 18 3 27.5t12 14t25.5 5t44.5 0.5v-272zM435 261q0 30 -7 57.5t-22 49t-39 34t-57 12.5q-34 0 -61 -15.5
t-46 -43t-29 -65.5t-10 -83q0 -24 8.5 -49t24 -44.5t38 -32t50.5 -12.5q37 0 65 16.5t47 43.5t28.5 61.5t9.5 70.5z" />
    <glyph glyph-name="c" unicode="c" horiz-adv-x="488" 
d="M429 65q0 -21 -14.5 -35.5t-37 -23.5t-48.5 -12.5t-49 -3.5q-53 0 -96 17.5t-73.5 51.5t-47.5 83.5t-17 114.5q0 54 19 97.5t51.5 74t76 46.5t93.5 16q30 0 59 -7t52 -21.5t37 -36.5t14 -53q0 -29 -13.5 -45t-33.5 -16h-29v20q0 47 -27.5 65t-65.5 18q-32 0 -58.5 -12.5
t-45.5 -34t-29 -50t-10 -61.5q0 -41 9.5 -75t31 -59t55.5 -39t82 -14q61 0 115 24v-29z" />
    <glyph glyph-name="d" unicode="d" horiz-adv-x="569" 
d="M46 219q0 55 16.5 104.5t45.5 86.5t70 59t90 22q46 0 84 -18t63 -56v227h84v-601q0 -18 -2.5 -27.5t-11.5 -14t-25.5 -5t-44.5 -0.5v111q-29 -56 -76.5 -86.5t-107.5 -30.5q-43 0 -77.5 17t-58.5 47.5t-36.5 72.5t-12.5 92zM136 220q0 -30 7.5 -57.5t22 -48t36 -33
t50.5 -12.5q33 0 60.5 15t48 42t32 65t11.5 83q0 24 -7 49t-21.5 45.5t-37.5 33t-54 12.5q-38 0 -66 -17t-46 -44t-27 -62t-9 -71z" />
    <glyph glyph-name="e" unicode="e" horiz-adv-x="514" 
d="M437 62q0 -20 -13.5 -33.5t-35.5 -22t-50 -12.5t-56 -4q-51 0 -94.5 16.5t-75 49.5t-49 83t-17.5 117q0 51 16.5 94t46.5 74.5t71 49t91 17.5q48 0 85.5 -16t64 -44.5t40 -68.5t13.5 -89q0 -20 -7 -33.5t-18.5 -21.5t-26.5 -11t-30 -3h-252q11 -66 55 -100t127 -34
q30 0 59 6t56 17v-31zM269 417q-34 0 -58.5 -11.5t-40.5 -31t-24.5 -46t-9.5 -56.5h215q18 0 25 11.5t7 21.5q0 56 -32.5 84t-81.5 28z" />
    <glyph glyph-name="f" unicode="f" horiz-adv-x="357" 
d="M93 0v359l-71 26q1 11 5 24.5t12 21.5h54v27q0 42 11.5 77.5t34 62t55 41.5t74.5 15q12 0 24.5 -2.5t23.5 -9t18 -17t7 -26.5v-30q-8 2 -20 4t-22 2q-67 0 -94.5 -33.5t-27.5 -99.5v-11h114q24 0 28 -18t4 -59h-146v-354h-84z" />
    <glyph glyph-name="g" unicode="g" horiz-adv-x="489" 
d="M477 521q-25 2 -47.5 -2t-40 -11.5t-27.5 -17.5t-10 -20q0 -6 1 -9q34 -21 54 -54.5t20 -78.5q0 -39 -15.5 -69t-41.5 -50.5t-60.5 -31t-72.5 -10.5h-8q-44 -1 -67.5 -10t-23.5 -27q0 -17 18 -27t56 -10h67q41 0 74.5 -5.5t57 -18.5t36.5 -34.5t13 -53.5q0 -44 -22 -73.5
t-56.5 -48t-77 -26.5t-84.5 -8q-43 0 -79.5 7t-63.5 21t-42 36.5t-15 53.5q0 40 22 63.5t56 36.5q-17 11 -27.5 27.5t-10.5 39.5q0 35 19.5 53.5t48.5 28.5q-36 20 -58.5 54t-22.5 82q0 39 15 69.5t40.5 51t60.5 31.5t74 11q31 0 63 -8v9q0 31 13 53.5t33 36.5t45 20.5
t48 6.5q26 0 32 -19.5t6 -68.5zM344 323q0 42 -29 68t-78 26q-48 0 -76.5 -24.5t-28.5 -69.5q0 -44 30 -68t75 -24t76 25.5t31 66.5zM212 21q-54 0 -80 -17.5t-26 -46.5q0 -35 32 -52t90 -17q28 0 54 4.5t45.5 14.5t31 25t11.5 35q0 32 -29.5 43t-81.5 11h-47z" />
    <glyph glyph-name="h" unicode="h" horiz-adv-x="557" 
d="M493 43q0 -18 -2.5 -27.5t-11.5 -14t-25.5 -5t-44.5 -0.5v287q0 63 -28.5 96t-83.5 33q-27 0 -52.5 -10t-45.5 -30t-32.5 -49t-12.5 -68v-255h-85v601q0 18 3 27.5t12 14t25.5 5t44.5 0.5v-252q32 48 79 71.5t99 23.5q77 0 119 -44t42 -122v-282v0z" />
    <glyph glyph-name="i" unicode="i" horiz-adv-x="223" 
d="M69 0v437q0 18 3 27.5t12 14t25.5 5.5t44.5 1v-485h-85zM175 646q0 -30 -14 -45t-46 -15t-45.5 15t-13.5 45q0 29 13.5 44.5t45.5 15.5t46 -15.5t14 -44.5z" />
    <glyph glyph-name="j" unicode="j" horiz-adv-x="230" 
d="M161 -58q0 -53 -31 -85t-80 -32q-11 0 -23.5 2.5t-22.5 8t-16.5 15t-6.5 24.5v36q9 -3 18 -4t19 -1q27 0 42.5 17.5t15.5 43.5v470q0 18 3 27.5t12 14t25.5 5.5t44.5 1v-543zM182 646q0 -60 -59 -60q-33 0 -46.5 15t-13.5 45q0 29 13.5 44.5t46.5 15.5q31 0 45 -15.5
t14 -44.5z" />
    <glyph glyph-name="k" unicode="k" horiz-adv-x="504" 
d="M492 29q0 -11 -7 -18t-18 -12t-24 -7t-24 -2q-17 0 -29.5 2.5t-23 10t-21 19.5t-23.5 32l-102 141h-66v-195h-85v601q0 18 3 27.5t12 14t25.5 5t44.5 0.5v-381h63q21 21 43 47.5t43 55.5t40 57.5t34 53.5h95v-12q-35 -54 -81 -116t-99 -114l114 -142q17 -21 35.5 -33
t41.5 -12h9v-23z" />
    <glyph glyph-name="l" unicode="l" horiz-adv-x="223" 
d="M69 0v633q0 18 3 27.5t12 14t25.5 5t44.5 0.5v-680h-85z" />
    <glyph glyph-name="m" unicode="m" horiz-adv-x="817" 
d="M753 43q0 -18 -2.5 -27.5t-11.5 -14t-25.5 -5t-44.5 -0.5v294q0 60 -21.5 91t-70.5 31q-23 0 -45.5 -10t-39.5 -30t-28 -49.5t-11 -67.5v-255h-84v290q0 60 -21.5 91t-70.5 31q-24 0 -46 -10t-39 -30t-27.5 -49t-10.5 -68v-255h-85v437q0 18 3 27.5t12 14t25.5 5.5
t44.5 1v-85q32 48 72.5 69.5t87.5 21.5q52 0 85 -25.5t46 -70.5q39 56 81 76t88 20q69 0 104 -42.5t35 -116.5v-289v0z" />
    <glyph glyph-name="n" unicode="n" horiz-adv-x="557" 
d="M493 43q0 -18 -2.5 -27.5t-11.5 -14t-25.5 -5t-44.5 -0.5v287q0 63 -28.5 96t-83.5 33q-27 0 -52.5 -10t-45.5 -30t-32.5 -49t-12.5 -68v-255h-85v437q0 18 3 27.5t12 14t25.5 5.5t44.5 1v-89q32 48 79 71.5t99 23.5q77 0 119 -44t42 -122v-282v0z" />
    <glyph glyph-name="o" unicode="o" horiz-adv-x="554" 
d="M509 250q0 -57 -16.5 -105t-47 -82.5t-73.5 -53.5t-95 -19q-53 0 -95.5 19t-72.5 53.5t-46.5 82.5t-16.5 105q0 115 61 178t170 63t170.5 -63t61.5 -178zM419 250q0 72 -34.5 118t-107.5 46q-37 0 -63.5 -12t-44 -34t-25.5 -52t-8 -66t9 -68.5t26.5 -57.5t44 -40
t61.5 -15t61.5 15t44.5 40t27 57.5t9 68.5z" />
    <glyph glyph-name="p" unicode="p" horiz-adv-x="571" 
d="M69 -165v602q0 18 3 27.5t12 14t25.5 5.5t44.5 1v-109q27 55 72.5 85t108.5 30q46 0 81.5 -17t59.5 -47.5t36.5 -73t12.5 -92.5q0 -55 -16.5 -104t-46.5 -86t-71 -59t-90 -22q-46 0 -84 19t-63 58v-232h-85zM435 261q0 30 -7 57.5t-22 49t-39 34t-57 12.5
q-34 0 -61 -15.5t-46 -43t-29 -65.5t-10 -83q0 -24 8.5 -49t24 -44.5t38 -32t50.5 -12.5q37 0 65 16.5t47 43.5t28.5 61.5t9.5 70.5z" />
    <glyph glyph-name="q" unicode="q" horiz-adv-x="569" 
d="M46 219q0 55 16.5 104.5t45.5 86.5t70 59t90 22q45 0 83 -18.5t64 -56.5v65h84v-603q0 -18 -2.5 -27.5t-11.5 -14t-25.5 -5t-44.5 -0.5v275q-29 -56 -76.5 -86t-107.5 -30q-44 0 -78.5 17t-58 47.5t-36 72.5t-12.5 92zM136 220q0 -30 7 -57.5t21.5 -48t36.5 -33t52 -12.5
q33 0 60.5 15t47.5 42t31.5 65t11.5 83q0 24 -7 49t-22 45.5t-38 33t-54 12.5q-37 0 -64.5 -17t-46 -44t-27.5 -62t-9 -71z" />
    <glyph glyph-name="r" unicode="r" horiz-adv-x="350" 
d="M69 0v437q0 18 3 27.5t12 14t25.5 5.5t44.5 1v-96q29 55 65 78.5t71 23.5q26 0 34 -19.5t4 -70.5q-84 4 -129 -41t-45 -124v-236h-85z" />
    <glyph glyph-name="s" unicode="s" horiz-adv-x="416" 
d="M367 138q0 -37 -14.5 -65t-38.5 -46.5t-55.5 -27.5t-65.5 -9q-23 0 -44.5 4t-38 13t-26.5 23t-10 34v34q56 -28 115 -28q38 0 64.5 15t26.5 41q0 24 -17.5 37t-44 22t-57.5 17.5t-57.5 23.5t-44 40.5t-17.5 67.5q0 34 13 63t37 50t58 32.5t75 11.5q34 0 62.5 -8.5
t48.5 -23.5t31 -34t11 -40q0 -29 -13.5 -42t-32.5 -13h-23v17q0 27 -22.5 47t-64.5 20q-44 0 -68.5 -19.5t-24.5 -45.5q0 -29 17.5 -44.5t44 -25.5t57.5 -18.5t57.5 -22.5t44 -37t17.5 -63z" />
    <glyph glyph-name="t" unicode="t" horiz-adv-x="402" 
d="M175 404v-198q0 -68 21.5 -102t77.5 -34q51 0 92 22v-31q0 -21 -13 -34.5t-31.5 -22t-40 -11.5t-38.5 -3q-33 0 -60.5 8.5t-48 30.5t-32 59.5t-11.5 96.5v223l-71 27q1 11 5 24.5t12 21.5h54v63q0 18 2.5 27.5t11.5 14t25.5 5.5t44.5 1v-111h164q24 0 28 -18t4 -59h-196z
" />
    <glyph glyph-name="u" unicode="u" horiz-adv-x="545" 
d="M477 199q0 -56 -16.5 -95.5t-45 -64.5t-66.5 -37t-80 -12t-79 12t-64 37t-43 64.5t-16 95.5v238q0 18 3 27.5t12 14t25.5 5.5t44.5 1v-270q0 -72 28.5 -107t88.5 -35q124 0 124 142v266h84v-282v0z" />
    <glyph glyph-name="v" unicode="v" horiz-adv-x="521" 
d="M302 13q-44 -17 -92 -20l-183 479v9h100l132 -382q45 97 80.5 196t60.5 186h97q-39 -121 -88.5 -240.5t-106.5 -227.5z" />
    <glyph glyph-name="w" unicode="w" horiz-adv-x="766" 
d="M583 13q-43 -17 -89 -20l-104 367q-26 -90 -57.5 -175t-67.5 -172q-23 -9 -45 -13.5t-46 -6.5l-147 479v9h100l98 -372q35 88 60.5 158.5t44.5 136.5q5 18 7 34.5t-3 27.5q21 11 50 16t53 5l106 -379q35 100 62 193.5t44 179.5h93q-32 -126 -71.5 -239.5t-87.5 -228.5z
" />
    <glyph glyph-name="x" unicode="x" horiz-adv-x="519" 
d="M391 0l-139 183q-35 -40 -62.5 -83t-55.5 -100h-99q38 75 79 132.5t94 112.5l-166 224v12h99l136 -181q35 46 64 92.5t48 88.5h95q-34 -68 -75.5 -131t-86.5 -114l168 -224v-12h-99z" />
    <glyph glyph-name="y" unicode="y" horiz-adv-x="513" 
d="M496 469l-172 -463q-12 -98 -53.5 -139.5t-99.5 -41.5q-32 0 -54.5 12.5t-22.5 43.5v31q25 -6 43 -6q38 0 64 21.5t34 68.5q-67 123 -120.5 245t-94.5 240h102q29 -95 71 -193t84 -184l126 377h93v-12z" />
    <glyph glyph-name="z" unicode="z" horiz-adv-x="458" 
d="M27 0q-2 17 0.5 36t7.5 31l265 337h-251q0 41 4 59t27 18h340q2 -17 -0.5 -36t-7.5 -31l-266 -337h278v-77h-397z" />
    <glyph glyph-name="braceleft" unicode="{" horiz-adv-x="321" 
d="M186 -134q-32 31 -50 63.5t-18 80.5q0 28 7 54.5t15 51.5t15 48t7 46q0 32 -20.5 46.5t-49.5 14.5h-50v62h50q29 0 49.5 13t20.5 45q0 25 -7 50.5t-15 52.5t-15 57.5t-7 65.5t14 60t32 44q9 10 16 14.5t15 4.5q9 0 21 -6.5t30 -18.5q-22 -21 -35 -42.5t-13 -47.5
q0 -32 7 -60.5t15 -56t15 -54t7 -52.5q0 -41 -24 -65.5t-59 -35.5q35 -11 59 -36.5t24 -65.5q0 -30 -7 -55.5t-15 -49t-15 -46t-7 -46.5q0 -31 7.5 -51t29.5 -43z" />
    <glyph glyph-name="bar" unicode="|" horiz-adv-x="255" 
d="M90 -100v823h75v-823h-75z" />
    <glyph glyph-name="braceright" unicode="}" horiz-adv-x="321" 
d="M156 -112q-16 -19 -35 -19q-12 0 -24 7t-23 18q23 24 35.5 50.5t12.5 58.5q0 24 -7 46.5t-15 46t-15 49t-7 54.5q0 40 24 65.5t58 36.5q-34 11 -58 35.5t-24 65.5q0 27 7 53.5t15 54t15 56.5t7 61q0 24 -12 44.5t-33 35.5l49 42q38 -27 57.5 -61.5t19.5 -69.5t-7 -65.5
t-15 -58t-15 -53t-7 -50.5q0 -32 20.5 -45t49.5 -13h50v-62h-50q-29 0 -49.5 -14.5t-20.5 -46.5q0 -23 7 -46t15 -47.5t15 -51t7 -54.5q0 -48 -15 -76t-32 -47z" />
    <glyph glyph-name="asciitilde" unicode="~" horiz-adv-x="511" 
d="M413 323q26 0 42.5 -10.5t16.5 -36.5q0 -24 -10 -45t-27 -36.5t-39 -24.5t-47 -9q-37 0 -61 13t-43.5 29t-38.5 29t-44 13q-29 0 -46.5 -22.5t-17.5 -62.5q-25 0 -42 10.5t-17 36.5q0 24 10 45t27 36t39 24t47 9q37 0 61 -13t43.5 -28.5t38.5 -28.5t45 -13q29 0 46 22.5
t17 62.5z" />
    <glyph glyph-name="exclamdown" unicode="&#xa1;" horiz-adv-x="320" 
d="M222 -119q1 -18 -6 -27.5t-21.5 -14t-36.5 -5t-50 -0.5l22 431h70zM235 422q0 -32 -16 -50t-52 -18q-34 0 -50.5 18t-16.5 50q0 68 67 68q36 0 52 -17.5t16 -50.5z" />
    <glyph glyph-name="cent" unicode="&#xa2;" horiz-adv-x="511" 
d="M234 -117v111q-78 13 -123 70.5t-45 157.5q0 81 46.5 133t121.5 66v121h71v-118q56 -5 92.5 -34.5t36.5 -77.5q0 -26 -11.5 -40.5t-29.5 -14.5h-32v18q0 41 -25 57.5t-58 16.5q-56 0 -89 -36t-33 -91q0 -34 8 -62t26.5 -48.5t47.5 -31.5t71 -11q55 0 104 22v-33
q0 -17 -10 -29t-25.5 -19.5t-34.5 -12t-38 -6.5v-108h-71z" />
    <glyph glyph-name="sterling" unicode="&#xa3;" horiz-adv-x="511" 
d="M250 210q9 -28 15.5 -59.5t8.5 -70.5h198v-80h-411v80h122q-2 36 -10.5 68t-20.5 62h-79v64h53q-11 31 -19.5 64t-8.5 71q0 37 14 69t40.5 55t63.5 36t82 13q31 0 59 -7.5t49 -21t33 -33t12 -44.5q0 -32 -14.5 -50t-37.5 -18h-31v22q0 35 -22 54.5t-57 19.5
q-45 0 -71.5 -26.5t-26.5 -68.5q0 -39 9.5 -71t23.5 -64h135q20 0 23 -15.5t3 -48.5h-135z" />
    <glyph glyph-name="currency" unicode="&#xa4;" horiz-adv-x="511" 
d="M413 242q0 -46 -22 -85l69 -68l-53 -54l-69 68q-35 -20 -82 -20q-24 0 -44.5 5.5t-37.5 15.5l-71 -71l-54 55l70 70q-22 39 -22 84t22 81l-68 70l53 54l70 -70q17 9 38 14.5t44 5.5q45 0 81 -19l71 71l54 -55l-70 -70q10 -18 15.5 -38.5t5.5 -43.5zM336 242
q0 37 -22.5 59t-57.5 22q-36 0 -58.5 -22t-22.5 -59q0 -38 22.5 -62t58.5 -24q35 0 57.5 24t22.5 62z" />
    <glyph glyph-name="yen" unicode="&#xa5;" horiz-adv-x="511" 
d="M213 0v109h-141v64h141v63h-141v64h106l-152 262v10h102l138 -244q39 63 71.5 123t61.5 121h104q-38 -72 -77.5 -138.5t-84.5 -133.5h76q20 0 23 -15.5t3 -48.5h-140v-63h114q20 0 23 -15.5t3 -48.5h-140v-109h-90z" />
    <glyph glyph-name="brokenbar" unicode="&#xa6;" horiz-adv-x="255" 
d="M90 438v285h75v-285h-75zM90 -100v303h75v-303h-75z" />
    <glyph glyph-name="section" unicode="&#xa7;" horiz-adv-x="508" 
d="M462 135q0 -54 -18.5 -97.5t-51 -74.5t-76 -47.5t-93.5 -16.5q-26 0 -51.5 5t-45.5 15t-33 25t-13 35v29q29 -15 56 -25t61 -10q32 0 54.5 18.5t22.5 54.5q0 26 -17 51t-42.5 52t-55 56.5t-55 65.5t-42.5 78.5t-17 95.5q0 43 17 81t47.5 66.5t73 45t94.5 16.5
q39 0 71.5 -9t56 -25t36.5 -37t13 -46q0 -34 -14 -49.5t-34 -15.5h-23v20q0 16 -5.5 33.5t-17 31t-28.5 22.5t-41 9q-19 0 -32.5 -6t-22 -16t-12.5 -21.5t-4 -22.5q0 -40 18 -71t45 -58t58 -53t58 -56t45 -66t18 -83zM400 118q0 39 -18.5 71.5t-46 62t-59.5 58t-59.5 57.5
t-46 61t-18.5 70q0 22 5.5 43t19.5 40q-29 -20 -48 -51t-19 -74q0 -45 17 -83t42.5 -71t55 -62.5t55 -58t42.5 -57t17 -60.5q0 -29 -6 -51t-23 -39q38 17 64 51t26 93z" />
    <glyph glyph-name="dieresis" unicode="&#xa8;" horiz-adv-x="501" 
d="M220 647q0 -58 -58 -58q-31 0 -44.5 14.5t-13.5 43.5q0 27 13.5 42.5t44.5 15.5q30 0 44 -15.5t14 -42.5zM396 647q0 -58 -57 -58q-32 0 -45 14.5t-13 43.5q0 27 13 42.5t45 15.5q29 0 43 -15.5t14 -42.5z" />
    <glyph glyph-name="dieresis" unicode="&#x308;" horiz-adv-x="501" 
d="M220 647q0 -58 -58 -58q-31 0 -44.5 14.5t-13.5 43.5q0 27 13.5 42.5t44.5 15.5q30 0 44 -15.5t14 -42.5zM396 647q0 -58 -57 -58q-32 0 -45 14.5t-13 43.5q0 27 13 42.5t45 15.5q29 0 43 -15.5t14 -42.5z" />
    <glyph glyph-name="copyright" unicode="&#xa9;" horiz-adv-x="636" 
d="M597 278q0 -57 -19.5 -108t-56 -88.5t-88 -59.5t-114.5 -22t-114.5 22t-88 59.5t-56.5 88.5t-20 108t20 108t56.5 88.5t88 59.5t114.5 22t114.5 -22t88 -59.5t56 -88.5t19.5 -108zM538 278q0 47 -15 87.5t-43.5 70.5t-69 47.5t-91.5 17.5t-92 -17.5t-70 -47.5
t-44.5 -70.5t-15.5 -87.5t15.5 -87.5t44.5 -70.5t70 -47.5t92 -17.5t91.5 17.5t69 47.5t43.5 70.5t15 87.5zM421 197q0 -26 -27 -40t-68 -14q-65 0 -100.5 38.5t-35.5 102.5q0 28 10.5 51.5t29.5 39.5t44.5 25t54.5 9q41 0 70.5 -18t29.5 -50q0 -20 -12.5 -30.5t-33.5 -10.5
h-15v9q0 19 -12 30.5t-33 11.5q-26 0 -43 -17.5t-17 -49.5q0 -38 22 -58.5t62 -20.5q38 0 74 14v-22z" />
    <glyph glyph-name="ordfeminine" unicode="&#xaa;" horiz-adv-x="360" 
d="M25 473q0 41 28.5 65.5t92.5 32.5l91 9v3q-2 45 -29.5 62t-65.5 17q-23 0 -43.5 -6t-40.5 -14v23q0 15 11 26t28 18t36.5 10.5t37.5 3.5q22 0 45.5 -5t43 -19.5t33.5 -41t17 -69.5l13 -178q1 -26 -16 -30.5t-58 -4.5l-4 63q-20 -32 -48.5 -49.5t-69.5 -17.5q-27 0 -46 9
t-31.5 23.5t-18.5 33t-6 36.5zM106 478q0 -22 12.5 -37.5t36.5 -15.5q19 0 34 9.5t25.5 25t16.5 34.5t7 39l-82 -11q-23 -2 -36.5 -14t-13.5 -30z" />
    <glyph glyph-name="guillemotleft" unicode="&#xab;" horiz-adv-x="523" 
d="M185 123q-19 11 -40 29.5t-39 41.5t-30 50t-12 55q0 30 12 55t30 45.5t39 36.5t40 27h67v-12q-36 -33 -60 -71t-24 -81q0 -44 24 -87.5t60 -76.5v-12h-67zM389 123q-19 11 -40.5 29.5t-39.5 41.5t-29.5 50t-11.5 55q0 30 11.5 55t29.5 45.5t39.5 36.5t40.5 27h67v-12
q-37 -33 -61 -71t-24 -81q0 -44 24 -87.5t61 -76.5v-12h-67z" />
    <glyph glyph-name="logicalnot" unicode="&#xac;" horiz-adv-x="511" 
d="M373 75v233h-334v74h409v-307h-75z" />
    <glyph glyph-name="registered" unicode="&#xae;" horiz-adv-x="636" 
d="M597 569q0 -57 -19.5 -108t-56 -88.5t-88 -59.5t-114.5 -22t-114.5 22t-88 59.5t-56.5 88.5t-20 108t20 108t56.5 88.5t88 59.5t114.5 22t114.5 -22t88 -59.5t56 -88.5t19.5 -108zM538 569q0 47 -15 87.5t-43.5 70.5t-69 47.5t-91.5 17.5t-92 -17.5t-70 -47.5
t-44.5 -70.5t-15.5 -87.5t15.5 -87.5t44.5 -70.5t70 -47.5t92 -17.5t91.5 17.5t69 47.5t43.5 70.5t15 87.5zM429 615q0 -29 -13.5 -47t-34.5 -29l27 -36q8 -11 17.5 -18.5t23.5 -7.5h5v-9q0 -17 -15 -25.5t-35 -8.5q-18 0 -32 6.5t-26 25.5l-30 43h-33v-71h-69v229
q0 21 18.5 25t50.5 4h40q48 0 77 -21.5t29 -59.5zM356 605q0 22 -14 28t-34 6h-25v-74h25q22 0 35 11t13 29z" />
    <glyph glyph-name="macron" unicode="&#xaf;" horiz-adv-x="501" 
d="M398 608h-295v78h295v-78z" />
    <glyph glyph-name="macron" unicode="&#x304;" horiz-adv-x="501" 
d="M398 608h-295v78h295v-78z" />
    <glyph glyph-name="macron" unicode="&#x2c9;" horiz-adv-x="501" 
d="M398 608h-295v78h295v-78z" />
    <glyph glyph-name="degree" unicode="&#xb0;" horiz-adv-x="355" 
d="M178 370q-36 0 -65 12.5t-50 34.5t-32 51t-11 61t11 60.5t32 49.5t50 33t65 12t65 -11.5t49.5 -32t31.5 -49t11 -62.5t-11 -63t-31.5 -50.5t-49.5 -33.5t-65 -12zM178 443q36 0 58.5 24t22.5 62q0 37 -22.5 59t-58.5 22t-58.5 -22t-22.5 -59q0 -38 22.5 -62t58.5 -24z
" />
    <glyph glyph-name="plusminus" unicode="&#xb1;" horiz-adv-x="511" 
d="M218 137v148h-177v74h177v149h75v-149h177v-74h-177v-148h-75zM470 0h-429v74h429v-74z" />
    <glyph glyph-name="uni00B2" unicode="&#xb2;" 
d="M33 378q-2 15 0.5 34.5t7.5 34.5q37 18 73.5 38.5t66 45t47.5 53t18 62.5q0 33 -20 50.5t-53 17.5t-53.5 -17.5t-20.5 -43.5v-14h-29q-15 0 -25 11t-10 28q0 23 11.5 42.5t31 33.5t46 21.5t56.5 7.5q65 0 105.5 -33.5t40.5 -93.5q0 -32 -12.5 -61.5t-34 -55.5
t-50.5 -49.5t-61 -43.5h153v-68h-288z" />
    <glyph glyph-name="uni00B3" unicode="&#xb3;" 
d="M307 490q0 -30 -13.5 -53t-35.5 -38t-49 -22.5t-55 -7.5q-53 0 -81.5 17t-28.5 50v24q49 -23 99 -23q35 0 60 13.5t25 43.5q0 14 -8 23t-21.5 14t-30 6.5t-34.5 1.5h-25v63h14q54 0 78 17t24 46q0 25 -18 37.5t-43 12.5q-29 0 -44.5 -14.5t-15.5 -34.5v-15h-26
q-15 0 -26.5 10t-11.5 30q0 23 11.5 40.5t30.5 29t43 17t49 5.5q57 0 94.5 -27.5t37.5 -75.5q0 -35 -19.5 -60.5t-53.5 -40.5q34 -10 54 -31t20 -58z" />
    <glyph glyph-name="acute" unicode="&#xb4;" horiz-adv-x="501" 
d="M168 561h-10l-24 45l174 142q22 -21 37 -48t21 -54z" />
    <glyph glyph-name="acute" unicode="&#x301;" horiz-adv-x="501" 
d="M168 561h-10l-24 45l174 142q22 -21 37 -48t21 -54z" />
    <glyph glyph-name="acute" unicode="&#x2ca;" horiz-adv-x="501" 
d="M168 561h-10l-24 45l174 142q22 -21 37 -48t21 -54z" />
    <glyph glyph-name="uni00B5" unicode="&#xb5;" horiz-adv-x="579" 
d="M478 -10q-36 0 -56.5 23t-20.5 71v3q-32 -48 -77 -72.5t-95 -24.5q-23 0 -41.5 4t-33.5 10v-169h-85v602q0 18 3 27.5t12 14t25.5 5.5t44.5 1v-287q0 -63 26.5 -96t80.5 -33q27 0 52 10.5t44.5 31t31.5 49.5t12 66v255h84v-379q0 -13 5 -24.5t25 -11.5q15 0 28 5v-31
q0 -15 -6 -24.5t-15.5 -15t-21 -8t-22.5 -2.5z" />
    <glyph glyph-name="uni00B5" unicode="&#x3bc;" horiz-adv-x="579" 
d="M478 -10q-36 0 -56.5 23t-20.5 71v3q-32 -48 -77 -72.5t-95 -24.5q-23 0 -41.5 4t-33.5 10v-169h-85v602q0 18 3 27.5t12 14t25.5 5.5t44.5 1v-287q0 -63 26.5 -96t80.5 -33q27 0 52 10.5t44.5 31t31.5 49.5t12 66v255h84v-379q0 -13 5 -24.5t25 -11.5q15 0 28 5v-31
q0 -15 -6 -24.5t-15.5 -15t-21 -8t-22.5 -2.5z" />
    <glyph glyph-name="paragraph" unicode="&#xb6;" horiz-adv-x="523" 
d="M380 -128q0 -15 -2.5 -23.5t-10.5 -12.5t-23 -4.5t-39 -0.5v368q-56 5 -102.5 22.5t-81 47t-53.5 71t-19 93.5t19 91.5t50.5 66t73 40t86.5 13.5h179q23 0 27 -18t4 -58h-108v-696v0z" />
    <glyph glyph-name="periodcentered" unicode="&#xb7;" horiz-adv-x="261" 
d="M131 198q-36 0 -52.5 18t-16.5 52q0 32 16.5 50.5t52.5 18.5q34 0 50.5 -18.5t16.5 -50.5q0 -70 -67 -70z" />
    <glyph glyph-name="cedilla" unicode="&#xb8;" horiz-adv-x="501" 
d="M327 -130q0 -15 -5 -28.5t-13.5 -24t-19 -17t-22.5 -6.5q-9 0 -17 5l-15 8q6 9 10 17.5t4 19.5q0 44 -76 56q1 13 5 30t9.5 33.5t12 31t14.5 22.5q2 2 7.5 4.5t14.5 -1.5l21 -8q-5 -11 -10 -24.5t-8 -27.5q38 -10 63 -30.5t25 -59.5z" />
    <glyph glyph-name="cedilla" unicode="&#x327;" horiz-adv-x="501" 
d="M327 -130q0 -15 -5 -28.5t-13.5 -24t-19 -17t-22.5 -6.5q-9 0 -17 5l-15 8q6 9 10 17.5t4 19.5q0 44 -76 56q1 13 5 30t9.5 33.5t12 31t14.5 22.5q2 2 7.5 4.5t14.5 -1.5l21 -8q-5 -11 -10 -24.5t-8 -27.5q38 -10 63 -30.5t25 -59.5z" />
    <glyph glyph-name="uni00B9" unicode="&#xb9;" 
d="M58 663q16 4 37.5 12.5t41 19t33.5 22t14 22.5v6q0 14 3 22t11 11.5t22.5 4t38.5 0.5v-405h-75v266q-45 -30 -104 -48z" />
    <glyph glyph-name="ordmasculine" unicode="&#xba;" horiz-adv-x="390" 
d="M362 554q0 -41 -12 -74.5t-34 -57.5t-53 -37.5t-68 -13.5q-38 0 -68.5 13.5t-52 37.5t-33.5 57.5t-12 74.5q0 81 44 125t122 44t122.5 -44t44.5 -125zM285 554q0 48 -21 77t-69 29t-69 -29t-21 -77q0 -24 5.5 -45t17 -37.5t28 -26t39.5 -9.5q22 0 39 9.5t28 26t17 37.5
t6 45z" />
    <glyph glyph-name="guillemotright" unicode="&#xbb;" horiz-adv-x="523" 
d="M271 123v12q37 33 61 76.5t24 87.5q0 43 -24 81t-61 71v12h67q19 -11 40.5 -27t39.5 -36.5t29.5 -45.5t11.5 -55q0 -28 -12 -55t-30 -50t-39 -41.5t-40 -29.5h-67zM68 123v12q36 33 60 76.5t24 87.5q0 43 -24 81t-60 71v12h66q19 -11 40.5 -27t39.5 -36.5t30 -45.5
t12 -55q0 -28 -12 -55t-30 -50t-39.5 -41.5t-40.5 -29.5h-66z" />
    <glyph glyph-name="onequarter" unicode="&#xbc;" horiz-adv-x="841" 
d="M231 -40l337 684h82l-337 -684h-82zM760 77v-77h-73v77h-191q-2 15 1 33.5t8 29.5q47 65 85.5 131t72.5 129h79v-7q-37 -69 -75.5 -129.5t-83.5 -122.5h104v56q0 25 17 29t56 4v-89h61v-64h-61zM58 462q16 4 37.5 12.5t41 19t33.5 22t14 22.5v6q0 14 3 22t11 11.5t22.5 4
t38.5 0.5v-405h-75v266q-45 -30 -104 -48z" />
    <glyph glyph-name="onehalf" unicode="&#xbd;" horiz-adv-x="881" 
d="M552 0q-2 15 0.5 34.5t7.5 34.5q37 18 73.5 38.5t66 45t47.5 53t18 62.5q0 33 -20 50.5t-53 17.5t-53.5 -17.5t-20.5 -43.5v-14h-29q-15 0 -25 11t-10 28q0 23 11.5 42.5t31 33.5t46 21.5t56.5 7.5q65 0 105.5 -33.5t40.5 -93.5q0 -32 -12.5 -61.5t-34 -55.5t-50.5 -49.5
t-61 -43.5h153v-68h-288zM231 -40l337 684h82l-337 -684h-82zM58 462q16 4 37.5 12.5t41 19t33.5 22t14 22.5v6q0 14 3 22t11 11.5t22.5 4t38.5 0.5v-405h-75v266q-45 -30 -104 -48z" />
    <glyph glyph-name="threequarters" unicode="&#xbe;" horiz-adv-x="840" 
d="M307 289q0 -30 -13.5 -53t-35.5 -38t-49 -22.5t-55 -7.5q-53 0 -81.5 17t-28.5 50v24q49 -23 99 -23q35 0 60 13.5t25 43.5q0 14 -8 23t-21.5 14t-30 6.5t-34.5 1.5h-25v63h14q54 0 78 17t24 46q0 25 -18 37.5t-43 12.5q-29 0 -44.5 -14.5t-15.5 -34.5v-15h-26
q-15 0 -26.5 10t-11.5 30q0 23 11.5 40.5t30.5 29t43 17t49 5.5q57 0 94.5 -27.5t37.5 -75.5q0 -35 -19.5 -60.5t-53.5 -40.5q34 -10 54 -31t20 -58zM230 -40l337 684h82l-337 -684h-82zM760 77v-77h-73v77h-191q-2 15 1 33.5t8 29.5q47 65 85.5 131t72.5 129h79v-7
q-37 -69 -75.5 -129.5t-83.5 -122.5h104v56q0 25 17 29t56 4v-89h61v-64h-61z" />
    <glyph glyph-name="questiondown" unicode="&#xbf;" horiz-adv-x="402" 
d="M326 198q0 -25 -12.5 -45t-31 -38t-40.5 -34.5t-40.5 -33.5t-31 -36.5t-12.5 -42.5q0 -32 23.5 -46.5t55.5 -14.5q26 0 48.5 7.5t44.5 21.5l12 -26q6 -15 -4 -29.5t-30.5 -26t-47 -18.5t-51.5 -7q-30 0 -58 7.5t-49 24t-34 41.5t-13 60q0 33 13.5 59.5t34 47.5t44.5 38
t44.5 32.5t34 30t13.5 30.5q0 19 -12.5 27t-30.5 8v16q0 18 14.5 27t34.5 9q39 0 60 -25.5t21 -63.5zM329 422q0 -32 -16 -49.5t-52 -17.5q-35 0 -51 17.5t-16 49.5q0 33 16 51t51 18q36 0 52 -18t16 -51z" />
    <glyph glyph-name="Agrave" unicode="&#xc0;" horiz-adv-x="669" 
d="M530 0l-51 140h-296q-12 -35 -22.5 -70t-21.5 -70h-105q24 72 50.5 144t55.5 142t59.5 136.5t62.5 126.5q22 44 12 72q26 15 52.5 22t54.5 9l254 -640v-12h-105zM340 519q-35 -69 -66.5 -143.5t-60.5 -151.5h236zM200 777q6 27 21 54t37 48l174 -142l-24 -45h-10z" />
    <glyph glyph-name="Aacute" unicode="&#xc1;" horiz-adv-x="669" 
d="M530 0l-51 140h-296q-12 -35 -22.5 -70t-21.5 -70h-105q24 72 50.5 144t55.5 142t59.5 136.5t62.5 126.5q22 44 12 72q26 15 52.5 22t54.5 9l254 -640v-12h-105zM340 519q-35 -69 -66.5 -143.5t-60.5 -151.5h236zM272 692h-10l-24 45l174 142q22 -21 37 -48t21 -54z" />
    <glyph glyph-name="Acircumflex" unicode="&#xc2;" horiz-adv-x="669" 
d="M530 0l-51 140h-296q-12 -35 -22.5 -70t-21.5 -70h-105q24 72 50.5 144t55.5 142t59.5 136.5t62.5 126.5q22 44 12 72q26 15 52.5 22t54.5 9l254 -640v-12h-105zM340 519q-35 -69 -66.5 -143.5t-60.5 -151.5h236zM470 704h-10l-123 95l-123 -95h-10l-35 36l82 117
q38 7 86 7t86 -7l81 -117z" />
    <glyph glyph-name="Atilde" unicode="&#xc3;" horiz-adv-x="669" 
d="M530 0l-51 140h-296q-12 -35 -22.5 -70t-21.5 -70h-105q24 72 50.5 144t55.5 142t59.5 136.5t62.5 126.5q22 44 12 72q26 15 52.5 22t54.5 9l254 -640v-12h-105zM340 519q-35 -69 -66.5 -143.5t-60.5 -151.5h236zM500 806q0 -40 -27.5 -68t-69.5 -28q-23 0 -41.5 9
t-35.5 20t-32.5 20t-32.5 9t-30.5 -15.5t-13.5 -43.5q-28 0 -42 11t-14 37q0 40 27.5 66t69.5 26q23 0 41.5 -9t35 -20t32.5 -20t33 -9t30 16t13 43q29 0 43 -9t14 -35z" />
    <glyph glyph-name="Adieresis" unicode="&#xc4;" horiz-adv-x="669" 
d="M530 0l-51 140h-296q-12 -35 -22.5 -70t-21.5 -70h-105q24 72 50.5 144t55.5 142t59.5 136.5t62.5 126.5q22 44 12 72q26 15 52.5 22t54.5 9l254 -640v-12h-105zM340 519q-35 -69 -66.5 -143.5t-60.5 -151.5h236zM310 778q0 -58 -58 -58q-31 0 -44.5 14.5t-13.5 43.5
q0 27 13.5 42.5t44.5 15.5q30 0 44 -15.5t14 -42.5zM486 778q0 -58 -57 -58q-32 0 -45 14.5t-13 43.5q0 27 13 42.5t45 15.5q29 0 43 -15.5t14 -42.5z" />
    <glyph glyph-name="Aring" unicode="&#xc5;" horiz-adv-x="669" 
d="M530 0l-51 140h-296q-12 -35 -22.5 -70t-21.5 -70h-105q24 72 50.5 144t55.5 142t59.5 136.5t62.5 126.5q22 44 12 72q26 15 52.5 22t54.5 9l254 -640v-12h-105zM340 519q-35 -69 -66.5 -143.5t-60.5 -151.5h236zM440 779q0 -45 -28.5 -72.5t-73.5 -27.5q-44 0 -72 27.5
t-28 72.5q0 44 28 71.5t72 27.5q45 0 73.5 -27.5t28.5 -71.5zM381 779q0 20 -12 31t-31 11q-18 0 -29.5 -11t-11.5 -31t12 -32t29 -12q19 0 31 12t12 32z" />
    <glyph glyph-name="Aring" unicode="&#x212b;" horiz-adv-x="669" 
d="M530 0l-51 140h-296q-12 -35 -22.5 -70t-21.5 -70h-105q24 72 50.5 144t55.5 142t59.5 136.5t62.5 126.5q22 44 12 72q26 15 52.5 22t54.5 9l254 -640v-12h-105zM340 519q-35 -69 -66.5 -143.5t-60.5 -151.5h236zM440 779q0 -45 -28.5 -72.5t-73.5 -27.5q-44 0 -72 27.5
t-28 72.5q0 44 28 71.5t72 27.5q45 0 73.5 -27.5t28.5 -71.5zM381 779q0 20 -12 31t-31 11q-18 0 -29.5 -11t-11.5 -31t12 -32t29 -12q19 0 31 12t12 32z" />
    <glyph glyph-name="AE" unicode="&#xc6;" horiz-adv-x="882" 
d="M528 271v-111q0 -38 17.5 -55.5t58.5 -17.5h226v-87h-241q-41 0 -69.5 7.5t-46.5 24t-26 43.5t-9 66h-258q-18 -34 -35.5 -69t-34.5 -72h-106q43 90 85 166.5t83.5 144.5t83.5 129.5t86 120.5q10 14 17.5 29.5t2.5 29.5q26 13 61 18.5t60 5.5h308q25 0 29 -21.5t4 -65.5
h-296v-204h242v-82h-242zM438 548q-64 -85 -115 -163.5t-97 -159.5h212v323z" />
    <glyph glyph-name="Ccedilla" unicode="&#xc7;" horiz-adv-x="627" 
d="M426 -130q0 -15 -5 -28.5t-13.5 -24t-19 -17t-21.5 -6.5q-8 0 -18 5l-15 8q6 9 10 17.5t4 19.5q0 44 -76 56q2 21 9.5 48.5t18.5 48.5q-57 10 -102.5 37.5t-77.5 71t-49.5 102.5t-17.5 133q0 69 23 126.5t64 99t99 64.5t127 23q46 0 85.5 -11.5t69 -31.5t46.5 -48.5
t17 -62.5q0 -33 -18 -51.5t-41 -18.5h-31v22q0 53 -35 84.5t-98 31.5q-45 0 -83.5 -18t-67 -48.5t-44.5 -72t-16 -88.5q0 -56 15.5 -103.5t46.5 -82.5t78 -55t110 -20q45 0 85.5 10.5t79.5 28.5v-31q0 -28 -17.5 -46.5t-45 -30t-62 -16.5t-67.5 -5q-7 0 -13.5 0.5t-12.5 0.5
q-6 -13 -9 -31q38 -10 63 -30.5t25 -59.5z" />
    <glyph glyph-name="Egrave" unicode="&#xc8;" horiz-adv-x="524" 
d="M472 0h-242q-42 0 -71 8t-46.5 25.5t-25.5 46t-8 69.5v447q0 18 3.5 27.5t13 14t27 5.5t46.5 1h263q25 0 29.5 -22t4.5 -65h-297v-204h243v-82h-243v-111q0 -38 17.5 -55.5t58.5 -17.5h227v-87zM147 777q6 27 21 54t37 48l174 -142l-24 -45h-10z" />
    <glyph glyph-name="Eacute" unicode="&#xc9;" horiz-adv-x="524" 
d="M472 0h-242q-42 0 -71 8t-46.5 25.5t-25.5 46t-8 69.5v447q0 18 3.5 27.5t13 14t27 5.5t46.5 1h263q25 0 29.5 -22t4.5 -65h-297v-204h243v-82h-243v-111q0 -38 17.5 -55.5t58.5 -17.5h227v-87zM215 692h-10l-24 45l174 142q22 -21 37 -48t21 -54z" />
    <glyph glyph-name="Ecircumflex" unicode="&#xca;" horiz-adv-x="524" 
d="M472 0h-242q-42 0 -71 8t-46.5 25.5t-25.5 46t-8 69.5v447q0 18 3.5 27.5t13 14t27 5.5t46.5 1h263q25 0 29.5 -22t4.5 -65h-297v-204h243v-82h-243v-111q0 -38 17.5 -55.5t58.5 -17.5h227v-87zM416 704h-10l-123 95l-123 -95h-10l-35 36l82 117q38 7 86 7t86 -7l81 -117
z" />
    <glyph glyph-name="Edieresis" unicode="&#xcb;" horiz-adv-x="524" 
d="M472 0h-242q-42 0 -71 8t-46.5 25.5t-25.5 46t-8 69.5v447q0 18 3.5 27.5t13 14t27 5.5t46.5 1h263q25 0 29.5 -22t4.5 -65h-297v-204h243v-82h-243v-111q0 -38 17.5 -55.5t58.5 -17.5h227v-87zM247 778q0 -58 -58 -58q-31 0 -44.5 14.5t-13.5 43.5q0 27 13.5 42.5
t44.5 15.5q30 0 44 -15.5t14 -42.5zM423 778q0 -58 -57 -58q-32 0 -45 14.5t-13 43.5q0 27 13 42.5t45 15.5q29 0 43 -15.5t14 -42.5z" />
    <glyph glyph-name="Igrave" unicode="&#xcc;" horiz-adv-x="249" 
d="M79 0v600q0 18 3.5 27.5t13.5 14t28 5.5t46 1v-648h-91zM-10 777q6 27 21 54t37 48l174 -142l-24 -45h-10z" />
    <glyph glyph-name="Iacute" unicode="&#xcd;" horiz-adv-x="249" 
d="M79 0v600q0 18 3.5 27.5t13.5 14t28 5.5t46 1v-648h-91zM64 692h-10l-24 45l174 142q22 -21 37 -48t21 -54z" />
    <glyph glyph-name="Icircumflex" unicode="&#xce;" horiz-adv-x="249" 
d="M79 0v600q0 18 3.5 27.5t13.5 14t28 5.5t46 1v-648h-91zM263 704h-10l-123 95l-123 -95h-10l-35 36l82 117q38 7 86 7t86 -7l81 -117z" />
    <glyph glyph-name="Idieresis" unicode="&#xcf;" horiz-adv-x="249" 
d="M79 0v600q0 18 3.5 27.5t13.5 14t28 5.5t46 1v-648h-91zM99 778q0 -58 -58 -58q-31 0 -44.5 14.5t-13.5 43.5q0 27 13.5 42.5t44.5 15.5q30 0 44 -15.5t14 -42.5zM275 778q0 -58 -57 -58q-32 0 -45 14.5t-13 43.5q0 27 13 42.5t45 15.5q29 0 43 -15.5t14 -42.5z" />
    <glyph glyph-name="Eth" unicode="&#xd0;" horiz-adv-x="704" 
d="M651 343q0 -78 -26 -141.5t-70 -108.5t-103.5 -69t-125.5 -24h-51q-84 0 -124 37.5t-40 128.5v113h-91v80h91v198h-52q0 21 0.5 37.5t3.5 27.5t10 16.5t20 5.5h245q65 0 122 -18.5t99.5 -56t67 -94t24.5 -132.5zM202 279v-103q0 -44 18.5 -66.5t63.5 -22.5h38
q47 0 89 16.5t74 48.5t51 80t19 111q0 58 -18.5 99t-50.5 66.5t-74 37t-90 11.5h-120v-198h157v-80h-157z" />
    <glyph glyph-name="Ntilde" unicode="&#xd1;" horiz-adv-x="691" 
d="M534 806q0 -40 -27.5 -68t-69.5 -28q-23 0 -41.5 9t-35.5 20t-32.5 20t-32.5 9t-30.5 -15.5t-13.5 -43.5q-28 0 -42 11t-14 37q0 40 27.5 66t69.5 26q23 0 41.5 -9t35 -20t32.5 -20t33 -9t30 16t13 43q29 0 43 -9t14 -35zM611 20q-20 -14 -41.5 -20.5t-45.5 -8.5
l-355 496v-487h-90v622q21 14 42.5 20.5t44.5 8.5l355 -491v484h90v-624z" />
    <glyph glyph-name="Ograve" unicode="&#xd2;" horiz-adv-x="714" 
d="M222 777q6 27 21 54t37 48l174 -142l-24 -45h-10zM661 341q0 -74 -22.5 -138.5t-63 -111.5t-96.5 -74t-123 -27q-66 0 -122 27t-96 74t-62.5 111.5t-22.5 138.5t22 132t62 98.5t95.5 61.5t123.5 21t124.5 -21t96.5 -61.5t62 -98.5t22 -132zM565 341q0 111 -56.5 170
t-152.5 59q-47 0 -85 -15.5t-65 -45t-41.5 -72t-14.5 -96.5q0 -58 15 -106.5t42 -83.5t65 -54.5t84 -19.5t84.5 19t66.5 53.5t43 83t15 108.5z" />
    <glyph glyph-name="Oacute" unicode="&#xd3;" horiz-adv-x="714" 
d="M301 692h-10l-24 45l174 142q22 -21 37 -48t21 -54zM661 341q0 -74 -22.5 -138.5t-63 -111.5t-96.5 -74t-123 -27q-66 0 -122 27t-96 74t-62.5 111.5t-22.5 138.5t22 132t62 98.5t95.5 61.5t123.5 21t124.5 -21t96.5 -61.5t62 -98.5t22 -132zM565 341q0 111 -56.5 170
t-152.5 59q-47 0 -85 -15.5t-65 -45t-41.5 -72t-14.5 -96.5q0 -58 15 -106.5t42 -83.5t65 -54.5t84 -19.5t84.5 19t66.5 53.5t43 83t15 108.5z" />
    <glyph glyph-name="Ocircumflex" unicode="&#xd4;" horiz-adv-x="714" 
d="M661 341q0 -74 -22.5 -138.5t-63 -111.5t-96.5 -74t-123 -27q-66 0 -122 27t-96 74t-62.5 111.5t-22.5 138.5t22 132t62 98.5t95.5 61.5t123.5 21t124.5 -21t96.5 -61.5t62 -98.5t22 -132zM565 341q0 111 -56.5 170t-152.5 59q-47 0 -85 -15.5t-65 -45t-41.5 -72
t-14.5 -96.5q0 -58 15 -106.5t42 -83.5t65 -54.5t84 -19.5t84.5 19t66.5 53.5t43 83t15 108.5zM491 704h-10l-123 95l-123 -95h-10l-35 36l82 117q38 7 86 7t86 -7l81 -117z" />
    <glyph glyph-name="Otilde" unicode="&#xd5;" horiz-adv-x="714" 
d="M528 806q0 -40 -27.5 -68t-69.5 -28q-23 0 -41.5 9t-35.5 20t-32.5 20t-32.5 9t-30.5 -15.5t-13.5 -43.5q-28 0 -42 11t-14 37q0 40 27.5 66t69.5 26q23 0 41.5 -9t35 -20t32.5 -20t33 -9t30 16t13 43q29 0 43 -9t14 -35zM661 341q0 -74 -22.5 -138.5t-63 -111.5
t-96.5 -74t-123 -27q-66 0 -122 27t-96 74t-62.5 111.5t-22.5 138.5t22 132t62 98.5t95.5 61.5t123.5 21t124.5 -21t96.5 -61.5t62 -98.5t22 -132zM565 341q0 111 -56.5 170t-152.5 59q-47 0 -85 -15.5t-65 -45t-41.5 -72t-14.5 -96.5q0 -58 15 -106.5t42 -83.5t65 -54.5
t84 -19.5t84.5 19t66.5 53.5t43 83t15 108.5z" />
    <glyph glyph-name="Odieresis" unicode="&#xd6;" horiz-adv-x="714" 
d="M328 778q0 -58 -58 -58q-31 0 -44.5 14.5t-13.5 43.5q0 27 13.5 42.5t44.5 15.5q30 0 44 -15.5t14 -42.5zM504 778q0 -58 -57 -58q-32 0 -45 14.5t-13 43.5q0 27 13 42.5t45 15.5q29 0 43 -15.5t14 -42.5zM661 341q0 -74 -22.5 -138.5t-63 -111.5t-96.5 -74t-123 -27
q-66 0 -122 27t-96 74t-62.5 111.5t-22.5 138.5t22 132t62 98.5t95.5 61.5t123.5 21t124.5 -21t96.5 -61.5t62 -98.5t22 -132zM565 341q0 111 -56.5 170t-152.5 59q-47 0 -85 -15.5t-65 -45t-41.5 -72t-14.5 -96.5q0 -58 15 -106.5t42 -83.5t65 -54.5t84 -19.5t84.5 19
t66.5 53.5t43 83t15 108.5z" />
    <glyph glyph-name="multiply" unicode="&#xd7;" horiz-adv-x="511" 
d="M462 394l-153 -154l151 -151l-53 -54l-151 151l-153 -153l-54 55l152 153l-150 152l53 54l151 -152l153 154z" />
    <glyph glyph-name="Oslash" unicode="&#xd8;" horiz-adv-x="714" 
d="M661 341q0 -74 -22.5 -138.5t-63 -111.5t-96.5 -74t-123 -27q-28 0 -53.5 5t-49.5 14l-59 -127l-67 32l61 130q-63 47 -99 124t-36 173q0 74 22 132t62 98.5t95.5 61.5t123.5 21q60 0 108 -16l64 137l68 -33l-63 -135q60 -39 94 -106t34 -160zM150 341q0 -68 20.5 -122.5
t56.5 -89.5l201 431q-17 5 -34.5 7.5t-37.5 2.5q-47 0 -85 -15.5t-65 -45t-41.5 -72t-14.5 -96.5zM565 341q0 62 -18.5 108t-52.5 75l-204 -436q31 -11 66 -11q46 0 84.5 19t66.5 53.5t43 83t15 108.5z" />
    <glyph glyph-name="Ugrave" unicode="&#xd9;" horiz-adv-x="670" 
d="M197 777q6 27 21 54t37 48l174 -142l-24 -45h-10zM593 264q0 -73 -21.5 -125t-57.5 -85t-83 -48.5t-99 -15.5t-98 17t-81 51.5t-55.5 86t-20.5 119.5v336q0 18 3.5 27.5t13.5 14t28 5.5t46 1v-372q0 -56 12 -94t33.5 -61.5t51.5 -34t67 -10.5t68.5 10.5t54 34t35.5 61.5
t13 94v368h90v-380z" />
    <glyph glyph-name="Uacute" unicode="&#xda;" horiz-adv-x="670" 
d="M290 692h-10l-24 45l174 142q22 -21 37 -48t21 -54zM593 264q0 -73 -21.5 -125t-57.5 -85t-83 -48.5t-99 -15.5t-98 17t-81 51.5t-55.5 86t-20.5 119.5v336q0 18 3.5 27.5t13.5 14t28 5.5t46 1v-372q0 -56 12 -94t33.5 -61.5t51.5 -34t67 -10.5t68.5 10.5t54 34
t35.5 61.5t13 94v368h90v-380z" />
    <glyph glyph-name="Ucircumflex" unicode="&#xdb;" horiz-adv-x="670" 
d="M593 264q0 -73 -21.5 -125t-57.5 -85t-83 -48.5t-99 -15.5t-98 17t-81 51.5t-55.5 86t-20.5 119.5v336q0 18 3.5 27.5t13.5 14t28 5.5t46 1v-372q0 -56 12 -94t33.5 -61.5t51.5 -34t67 -10.5t68.5 10.5t54 34t35.5 61.5t13 94v368h90v-380zM472 704h-10l-123 95l-123 -95
h-10l-35 36l82 117q38 7 86 7t86 -7l81 -117z" />
    <glyph glyph-name="Udieresis" unicode="&#xdc;" horiz-adv-x="670" 
d="M314 778q0 -58 -58 -58q-31 0 -44.5 14.5t-13.5 43.5q0 27 13.5 42.5t44.5 15.5q30 0 44 -15.5t14 -42.5zM490 778q0 -58 -57 -58q-32 0 -45 14.5t-13 43.5q0 27 13 42.5t45 15.5q29 0 43 -15.5t14 -42.5zM593 264q0 -73 -21.5 -125t-57.5 -85t-83 -48.5t-99 -15.5
t-98 17t-81 51.5t-55.5 86t-20.5 119.5v336q0 18 3.5 27.5t13.5 14t28 5.5t46 1v-372q0 -56 12 -94t33.5 -61.5t51.5 -34t67 -10.5t68.5 10.5t54 34t35.5 61.5t13 94v368h90v-380z" />
    <glyph glyph-name="Yacute" unicode="&#xdd;" horiz-adv-x="606" 
d="M258 0v207l-230 425v12h100l180 -339q51 82 94 167t76 172h108q-29 -63 -56.5 -120t-56 -109.5t-59.5 -103t-66 -101.5v-210h-90zM260 692h-10l-24 45l174 142q22 -21 37 -48t21 -54z" />
    <glyph glyph-name="Thorn" unicode="&#xde;" horiz-adv-x="556" 
d="M514 351q0 -54 -21.5 -96.5t-59 -71t-89.5 -43.5t-113 -15h-61v-125h-91v600q0 18 3.5 27.5t13.5 14t28 5.5t46 1v-95h76q59 0 108 -10.5t84.5 -34t55.5 -62t20 -95.5zM419 351q0 36 -15.5 59.5t-40 36.5t-56 18t-62.5 5h-75v-263h62q40 0 74.5 9t59.5 27t39 45t14 63z
" />
    <glyph glyph-name="germandbls" unicode="&#xdf;" horiz-adv-x="519" 
d="M469 140q0 -36 -12.5 -64t-33.5 -47t-47.5 -29t-53.5 -10q-18 0 -34.5 3t-29 10.5t-20.5 20t-8 32.5v32q16 -10 35 -13.5t36 -3.5q32 0 56.5 17.5t24.5 53.5q0 45 -35 71t-86 37q-18 37 -18 80q70 17 104 54.5t34 87.5q0 45 -27 75.5t-81 30.5q-63 0 -92 -39t-29 -106
v-433h-85v449q0 42 13.5 79.5t39.5 65t65.5 44t90.5 16.5q45 0 80.5 -13t60.5 -36t38 -55t13 -70q0 -32 -10.5 -60t-29 -51.5t-43.5 -41t-55 -28.5q66 -21 102.5 -58.5t36.5 -100.5z" />
    <glyph glyph-name="agrave" unicode="&#xe0;" horiz-adv-x="508" 
d="M39 136q0 55 40 90.5t128 46.5l137 16v2q-2 34 -13 57.5t-29.5 37.5t-43 20.5t-54.5 6.5q-32 0 -61.5 -8.5t-57.5 -19.5v30q0 18 15 32.5t38 24t50 14.5t52 5q28 0 60 -6.5t60 -27t47.5 -58t23.5 -99.5l18 -259q1 -17 -2.5 -26t-13 -13.5t-27.5 -5t-45 -0.5l-6 96
q-26 -48 -68 -75t-102 -27q-39 0 -66.5 13t-45 34t-26 47t-8.5 52zM139 139q0 -35 19 -58t58 -23q29 0 52 15t39.5 38.5t25.5 53.5t11 60l-128 -16q-35 -5 -56 -23t-21 -47zM106 646q6 27 21 54t37 48l174 -142l-24 -45h-10z" />
    <glyph glyph-name="aacute" unicode="&#xe1;" horiz-adv-x="508" 
d="M39 136q0 55 40 90.5t128 46.5l137 16v2q-2 34 -13 57.5t-29.5 37.5t-43 20.5t-54.5 6.5q-32 0 -61.5 -8.5t-57.5 -19.5v30q0 18 15 32.5t38 24t50 14.5t52 5q28 0 60 -6.5t60 -27t47.5 -58t23.5 -99.5l18 -259q1 -17 -2.5 -26t-13 -13.5t-27.5 -5t-45 -0.5l-6 96
q-26 -48 -68 -75t-102 -27q-39 0 -66.5 13t-45 34t-26 47t-8.5 52zM139 139q0 -35 19 -58t58 -23q29 0 52 15t39.5 38.5t25.5 53.5t11 60l-128 -16q-35 -5 -56 -23t-21 -47zM197 561h-10l-24 45l174 142q22 -21 37 -48t21 -54z" />
    <glyph glyph-name="acircumflex" unicode="&#xe2;" horiz-adv-x="508" 
d="M39 136q0 55 40 90.5t128 46.5l137 16v2q-2 34 -13 57.5t-29.5 37.5t-43 20.5t-54.5 6.5q-32 0 -61.5 -8.5t-57.5 -19.5v30q0 18 15 32.5t38 24t50 14.5t52 5q28 0 60 -6.5t60 -27t47.5 -58t23.5 -99.5l18 -259q1 -17 -2.5 -26t-13 -13.5t-27.5 -5t-45 -0.5l-6 96
q-26 -48 -68 -75t-102 -27q-39 0 -66.5 13t-45 34t-26 47t-8.5 52zM391 572h-10l-123 95l-123 -95h-10l-35 36l82 117q38 7 86 7t86 -7l81 -117zM139 139q0 -35 19 -58t58 -23q29 0 52 15t39.5 38.5t25.5 53.5t11 60l-128 -16q-35 -5 -56 -23t-21 -47z" />
    <glyph glyph-name="atilde" unicode="&#xe3;" horiz-adv-x="508" 
d="M39 136q0 55 40 90.5t128 46.5l137 16v2q-2 34 -13 57.5t-29.5 37.5t-43 20.5t-54.5 6.5q-32 0 -61.5 -8.5t-57.5 -19.5v30q0 18 15 32.5t38 24t50 14.5t52 5q28 0 60 -6.5t60 -27t47.5 -58t23.5 -99.5l18 -259q1 -17 -2.5 -26t-13 -13.5t-27.5 -5t-45 -0.5l-6 96
q-26 -48 -68 -75t-102 -27q-39 0 -66.5 13t-45 34t-26 47t-8.5 52zM427 675q0 -40 -27.5 -68t-69.5 -28q-23 0 -41.5 9t-35.5 20t-32.5 20t-32.5 9t-30.5 -15.5t-13.5 -43.5q-28 0 -42 11t-14 37q0 40 27.5 66t69.5 26q23 0 41.5 -9t35 -20t32.5 -20t33 -9t30 16t13 43
q29 0 43 -9t14 -35zM139 139q0 -35 19 -58t58 -23q29 0 52 15t39.5 38.5t25.5 53.5t11 60l-128 -16q-35 -5 -56 -23t-21 -47z" />
    <glyph glyph-name="adieresis" unicode="&#xe4;" horiz-adv-x="508" 
d="M39 136q0 55 40 90.5t128 46.5l137 16v2q-2 34 -13 57.5t-29.5 37.5t-43 20.5t-54.5 6.5q-32 0 -61.5 -8.5t-57.5 -19.5v30q0 18 15 32.5t38 24t50 14.5t52 5q28 0 60 -6.5t60 -27t47.5 -58t23.5 -99.5l18 -259q1 -17 -2.5 -26t-13 -13.5t-27.5 -5t-45 -0.5l-6 96
q-26 -48 -68 -75t-102 -27q-39 0 -66.5 13t-45 34t-26 47t-8.5 52zM139 139q0 -35 19 -58t58 -23q29 0 52 15t39.5 38.5t25.5 53.5t11 60l-128 -16q-35 -5 -56 -23t-21 -47zM232 647q0 -58 -58 -58q-31 0 -44.5 14.5t-13.5 43.5q0 27 13.5 42.5t44.5 15.5q30 0 44 -15.5
t14 -42.5zM408 647q0 -58 -57 -58q-32 0 -45 14.5t-13 43.5q0 27 13 42.5t45 15.5q29 0 43 -15.5t14 -42.5z" />
    <glyph glyph-name="aring" unicode="&#xe5;" horiz-adv-x="508" 
d="M39 136q0 55 40 90.5t128 46.5l137 16v2q-2 34 -13 57.5t-29.5 37.5t-43 20.5t-54.5 6.5q-32 0 -61.5 -8.5t-57.5 -19.5v30q0 18 15 32.5t38 24t50 14.5t52 5q28 0 60 -6.5t60 -27t47.5 -58t23.5 -99.5l18 -259q1 -17 -2.5 -26t-13 -13.5t-27.5 -5t-45 -0.5l-6 96
q-26 -48 -68 -75t-102 -27q-39 0 -66.5 13t-45 34t-26 47t-8.5 52zM355 648q0 -45 -28.5 -72.5t-73.5 -27.5q-44 0 -72 27.5t-28 72.5q0 44 28 71.5t72 27.5q45 0 73.5 -27.5t28.5 -71.5zM139 139q0 -35 19 -58t58 -23q29 0 52 15t39.5 38.5t25.5 53.5t11 60l-128 -16
q-35 -5 -56 -23t-21 -47zM296 648q0 20 -12 31t-31 11q-18 0 -29.5 -11t-11.5 -31t12 -32t29 -12q19 0 31 12t12 32z" />
    <glyph glyph-name="ae" unicode="&#xe6;" horiz-adv-x="818" 
d="M237 491q22 0 44.5 -3t44 -12.5t40.5 -27.5t34 -47q29 42 75.5 66t105.5 24q48 0 85 -16t62 -44.5t38 -68.5t13 -89q0 -20 -7 -33.5t-18.5 -21.5t-26.5 -11t-30 -3h-253q12 -66 56 -100t126 -34q31 0 60 6t56 17v-31q0 -20 -13 -33.5t-34 -22t-48 -12.5t-55 -4
q-78 0 -134 36t-82 110q-25 -67 -71.5 -106.5t-121.5 -39.5q-37 0 -64 13t-45 34t-26.5 47t-8.5 52q0 55 40.5 90.5t128.5 46.5l137 16v2q-2 36 -14.5 60t-32 37.5t-44 19t-51.5 5.5q-30 0 -60 -8.5t-58 -19.5v30q0 18 14.5 32.5t37 24t49 14.5t51.5 5zM574 417
q-34 0 -58.5 -11.5t-41 -31t-25 -46t-9.5 -56.5h216q18 0 25 11.5t7 21.5q0 56 -33 84t-81 28zM139 139q0 -35 19 -58t59 -23q30 0 53.5 15.5t39 39.5t24.5 53.5t11 58.5l-128 -16q-35 -5 -56.5 -23t-21.5 -47z" />
    <glyph glyph-name="ccedilla" unicode="&#xe7;" horiz-adv-x="488" 
d="M347 -130q0 -15 -5 -28.5t-13.5 -24t-19 -17t-21.5 -6.5q-9 0 -17 5l-15 8q6 9 9.5 17.5t3.5 19.5q0 44 -76 56q3 21 10 48.5t18 48.5q-81 17 -128 83t-47 177q0 54 19 97.5t51.5 74t76 46.5t93.5 16q30 0 59 -7t52 -21.5t37 -36.5t14 -53q0 -29 -13.5 -45t-33.5 -16h-29
v20q0 47 -27.5 65t-65.5 18q-32 0 -58.5 -12.5t-45.5 -34t-29 -50t-10 -61.5q0 -41 9.5 -75t31 -59t55.5 -39t82 -14q61 0 115 24v-29q0 -21 -14.5 -35.5t-37 -23.5t-48.5 -12.5t-49 -3.5h-12q-2 -7 -4.5 -14.5t-4.5 -15.5q38 -10 63 -30.5t25 -59.5z" />
    <glyph glyph-name="egrave" unicode="&#xe8;" horiz-adv-x="514" 
d="M437 62q0 -20 -13.5 -33.5t-35.5 -22t-50 -12.5t-56 -4q-51 0 -94.5 16.5t-75 49.5t-49 83t-17.5 117q0 51 16.5 94t46.5 74.5t71 49t91 17.5q48 0 85.5 -16t64 -44.5t40 -68.5t13.5 -89q0 -20 -7 -33.5t-18.5 -21.5t-26.5 -11t-30 -3h-252q11 -66 55 -100t127 -34
q30 0 59 6t56 17v-31zM269 417q-34 0 -58.5 -11.5t-40.5 -31t-24.5 -46t-9.5 -56.5h215q18 0 25 11.5t7 21.5q0 56 -32.5 84t-81.5 28zM127 646q6 27 21 54t37 48l174 -142l-24 -45h-10z" />
    <glyph glyph-name="eacute" unicode="&#xe9;" horiz-adv-x="514" 
d="M437 62q0 -20 -13.5 -33.5t-35.5 -22t-50 -12.5t-56 -4q-51 0 -94.5 16.5t-75 49.5t-49 83t-17.5 117q0 51 16.5 94t46.5 74.5t71 49t91 17.5q48 0 85.5 -16t64 -44.5t40 -68.5t13.5 -89q0 -20 -7 -33.5t-18.5 -21.5t-26.5 -11t-30 -3h-252q11 -66 55 -100t127 -34
q30 0 59 6t56 17v-31zM269 417q-34 0 -58.5 -11.5t-40.5 -31t-24.5 -46t-9.5 -56.5h215q18 0 25 11.5t7 21.5q0 56 -32.5 84t-81.5 28zM229 561h-10l-24 45l174 142q22 -21 37 -48t21 -54z" />
    <glyph glyph-name="ecircumflex" unicode="&#xea;" horiz-adv-x="514" 
d="M437 62q0 -20 -13.5 -33.5t-35.5 -22t-50 -12.5t-56 -4q-51 0 -94.5 16.5t-75 49.5t-49 83t-17.5 117q0 51 16.5 94t46.5 74.5t71 49t91 17.5q48 0 85.5 -16t64 -44.5t40 -68.5t13.5 -89q0 -20 -7 -33.5t-18.5 -21.5t-26.5 -11t-30 -3h-252q11 -66 55 -100t127 -34
q30 0 59 6t56 17v-31zM405 572h-10l-123 95l-123 -95h-10l-35 36l82 117q38 7 86 7t86 -7l81 -117zM269 417q-34 0 -58.5 -11.5t-40.5 -31t-24.5 -46t-9.5 -56.5h215q18 0 25 11.5t7 21.5q0 56 -32.5 84t-81.5 28z" />
    <glyph glyph-name="edieresis" unicode="&#xeb;" horiz-adv-x="514" 
d="M437 62q0 -20 -13.5 -33.5t-35.5 -22t-50 -12.5t-56 -4q-51 0 -94.5 16.5t-75 49.5t-49 83t-17.5 117q0 51 16.5 94t46.5 74.5t71 49t91 17.5q48 0 85.5 -16t64 -44.5t40 -68.5t13.5 -89q0 -20 -7 -33.5t-18.5 -21.5t-26.5 -11t-30 -3h-252q11 -66 55 -100t127 -34
q30 0 59 6t56 17v-31zM269 417q-34 0 -58.5 -11.5t-40.5 -31t-24.5 -46t-9.5 -56.5h215q18 0 25 11.5t7 21.5q0 56 -32.5 84t-81.5 28zM246 647q0 -58 -58 -58q-31 0 -44.5 14.5t-13.5 43.5q0 27 13.5 42.5t44.5 15.5q30 0 44 -15.5t14 -42.5zM422 647q0 -58 -57 -58
q-32 0 -45 14.5t-13 43.5q0 27 13 42.5t45 15.5q29 0 43 -15.5t14 -42.5z" />
    <glyph glyph-name="igrave" unicode="&#xec;" horiz-adv-x="223" 
d="M69 0v437q0 18 3 27.5t12 14t25.5 5.5t44.5 1v-485h-85zM-25 646q6 27 21 54t37 48l174 -142l-24 -45h-10z" />
    <glyph glyph-name="iacute" unicode="&#xed;" horiz-adv-x="223" 
d="M67 561h-10l-24 45l174 142q22 -21 37 -48t21 -54zM69 0v437q0 18 3 27.5t12 14t25.5 5.5t44.5 1v-485h-85z" />
    <glyph glyph-name="icircumflex" unicode="&#xee;" horiz-adv-x="223" 
d="M69 0v437q0 18 3 27.5t12 14t25.5 5.5t44.5 1v-485h-85zM250 572h-10l-123 95l-123 -95h-10l-35 36l82 117q38 7 86 7t86 -7l81 -117z" />
    <glyph glyph-name="idieresis" unicode="&#xef;" horiz-adv-x="223" 
d="M88 647q0 -58 -58 -58q-31 0 -44.5 14.5t-13.5 43.5q0 27 13.5 42.5t44.5 15.5q30 0 44 -15.5t14 -42.5zM264 647q0 -58 -57 -58q-32 0 -45 14.5t-13 43.5q0 27 13 42.5t45 15.5q29 0 43 -15.5t14 -42.5zM69 0v437q0 18 3 27.5t12 14t25.5 5.5t44.5 1v-485h-85z" />
    <glyph glyph-name="eth" unicode="&#xf0;" horiz-adv-x="525" 
d="M122 503l102 49q-53 23 -115 29q6 42 13 58t32 13q96 -13 164 -55l100 49l30 -61l-71 -35q54 -55 78 -129.5t24 -155.5q0 -62 -16 -113t-46 -87t-71.5 -55.5t-92.5 -19.5q-44 0 -82 14.5t-65.5 43t-43.5 69t-16 93.5q0 48 15.5 85t42 62t61 38t72.5 13q42 0 81 -15.5
t68 -46.5q-10 52 -33.5 93t-58.5 71l-142 -68zM386 210q0 25 -9 47.5t-26 39t-41.5 26t-54.5 9.5q-57 0 -87.5 -32.5t-30.5 -89.5q0 -69 33.5 -105t87.5 -36q26 0 49.5 9t41 27t27.5 44t10 61z" />
    <glyph glyph-name="ntilde" unicode="&#xf1;" horiz-adv-x="557" 
d="M493 43q0 -18 -2.5 -27.5t-11.5 -14t-25.5 -5t-44.5 -0.5v287q0 63 -28.5 96t-83.5 33q-27 0 -52.5 -10t-45.5 -30t-32.5 -49t-12.5 -68v-255h-85v437q0 18 3 27.5t12 14t25.5 5.5t44.5 1v-89q32 48 79 71.5t99 23.5q77 0 119 -44t42 -122v-282zM460 675q0 -40 -27.5 -68
t-69.5 -28q-23 0 -41.5 9t-35.5 20t-32.5 20t-32.5 9t-30.5 -15.5t-13.5 -43.5q-28 0 -42 11t-14 37q0 40 27.5 66t69.5 26q23 0 41.5 -9t35 -20t32.5 -20t33 -9t30 16t13 43q29 0 43 -9t14 -35z" />
    <glyph glyph-name="ograve" unicode="&#xf2;" horiz-adv-x="554" 
d="M509 250q0 -57 -16.5 -105t-47 -82.5t-73.5 -53.5t-95 -19q-53 0 -95.5 19t-72.5 53.5t-46.5 82.5t-16.5 105q0 115 61 178t170 63t170.5 -63t61.5 -178zM419 250q0 72 -34.5 118t-107.5 46q-37 0 -63.5 -12t-44 -34t-25.5 -52t-8 -66t9 -68.5t26.5 -57.5t44 -40
t61.5 -15t61.5 15t44.5 40t27 57.5t9 68.5zM142 646q6 27 21 54t37 48l174 -142l-24 -45h-10z" />
    <glyph glyph-name="oacute" unicode="&#xf3;" horiz-adv-x="554" 
d="M229 561h-10l-24 45l174 142q22 -21 37 -48t21 -54zM509 250q0 -57 -16.5 -105t-47 -82.5t-73.5 -53.5t-95 -19q-53 0 -95.5 19t-72.5 53.5t-46.5 82.5t-16.5 105q0 115 61 178t170 63t170.5 -63t61.5 -178zM419 250q0 72 -34.5 118t-107.5 46q-37 0 -63.5 -12t-44 -34
t-25.5 -52t-8 -66t9 -68.5t26.5 -57.5t44 -40t61.5 -15t61.5 15t44.5 40t27 57.5t9 68.5z" />
    <glyph glyph-name="ocircumflex" unicode="&#xf4;" horiz-adv-x="554" 
d="M509 250q0 -57 -16.5 -105t-47 -82.5t-73.5 -53.5t-95 -19q-53 0 -95.5 19t-72.5 53.5t-46.5 82.5t-16.5 105q0 115 61 178t170 63t170.5 -63t61.5 -178zM419 250q0 72 -34.5 118t-107.5 46q-37 0 -63.5 -12t-44 -34t-25.5 -52t-8 -66t9 -68.5t26.5 -57.5t44 -40
t61.5 -15t61.5 15t44.5 40t27 57.5t9 68.5zM416 572h-10l-123 95l-123 -95h-10l-35 36l82 117q38 7 86 7t86 -7l81 -117z" />
    <glyph glyph-name="otilde" unicode="&#xf5;" horiz-adv-x="554" 
d="M509 250q0 -57 -16.5 -105t-47 -82.5t-73.5 -53.5t-95 -19q-53 0 -95.5 19t-72.5 53.5t-46.5 82.5t-16.5 105q0 115 61 178t170 63t170.5 -63t61.5 -178zM419 250q0 72 -34.5 118t-107.5 46q-37 0 -63.5 -12t-44 -34t-25.5 -52t-8 -66t9 -68.5t26.5 -57.5t44 -40
t61.5 -15t61.5 15t44.5 40t27 57.5t9 68.5zM453 675q0 -40 -27.5 -68t-69.5 -28q-23 0 -41.5 9t-35.5 20t-32.5 20t-32.5 9t-30.5 -15.5t-13.5 -43.5q-28 0 -42 11t-14 37q0 40 27.5 66t69.5 26q23 0 41.5 -9t35 -20t32.5 -20t33 -9t30 16t13 43q29 0 43 -9t14 -35z" />
    <glyph glyph-name="odieresis" unicode="&#xf6;" horiz-adv-x="554" 
d="M256 647q0 -58 -58 -58q-31 0 -44.5 14.5t-13.5 43.5q0 27 13.5 42.5t44.5 15.5q30 0 44 -15.5t14 -42.5zM432 647q0 -58 -57 -58q-32 0 -45 14.5t-13 43.5q0 27 13 42.5t45 15.5q29 0 43 -15.5t14 -42.5zM509 250q0 -57 -16.5 -105t-47 -82.5t-73.5 -53.5t-95 -19
q-53 0 -95.5 19t-72.5 53.5t-46.5 82.5t-16.5 105q0 115 61 178t170 63t170.5 -63t61.5 -178zM419 250q0 72 -34.5 118t-107.5 46q-37 0 -63.5 -12t-44 -34t-25.5 -52t-8 -66t9 -68.5t26.5 -57.5t44 -40t61.5 -15t61.5 15t44.5 40t27 57.5t9 68.5z" />
    <glyph glyph-name="divide" unicode="&#xf7;" horiz-adv-x="511" 
d="M470 204h-429v74h429v-74zM258 339q-32 0 -45.5 15t-13.5 44q0 28 13.5 43.5t45.5 15.5q29 0 43 -15.5t14 -43.5q0 -59 -57 -59zM258 25q-32 0 -45.5 15.5t-13.5 44.5q0 28 13.5 43t45.5 15q57 0 57 -58q0 -60 -57 -60z" />
    <glyph glyph-name="oslash" unicode="&#xf8;" horiz-adv-x="554" 
d="M418 451q44 -30 67.5 -80.5t23.5 -120.5q0 -57 -16.5 -105t-47 -82.5t-73.5 -53.5t-95 -19q-19 0 -36.5 2.5t-33.5 7.5l-55 -118l-66 32l55 118q-45 34 -70 90t-25 128q0 115 61 178t170 63q41 0 74 -9l57 120l66 -31zM136 250q0 -40 10.5 -75.5t32.5 -61.5l139 297
q-10 2 -20 3.5t-21 1.5q-37 0 -63.5 -12.5t-44 -34t-25.5 -52t-8 -66.5zM419 250q0 38 -9 69t-29 53l-140 -299q15 -4 36 -4q35 0 61.5 15t44.5 39.5t27 57.5t9 69z" />
    <glyph glyph-name="ugrave" unicode="&#xf9;" horiz-adv-x="545" 
d="M477 199q0 -56 -16.5 -95.5t-45 -64.5t-66.5 -37t-80 -12t-79 12t-64 37t-43 64.5t-16 95.5v238q0 18 3 27.5t12 14t25.5 5.5t44.5 1v-270q0 -72 28.5 -107t88.5 -35q124 0 124 142v266h84v-282zM126 646q6 27 21 54t37 48l174 -142l-24 -45h-10z" />
    <glyph glyph-name="uacute" unicode="&#xfa;" horiz-adv-x="545" 
d="M234 561h-10l-24 45l174 142q22 -21 37 -48t21 -54zM477 199q0 -56 -16.5 -95.5t-45 -64.5t-66.5 -37t-80 -12t-79 12t-64 37t-43 64.5t-16 95.5v238q0 18 3 27.5t12 14t25.5 5.5t44.5 1v-270q0 -72 28.5 -107t88.5 -35q124 0 124 142v266h84v-282z" />
    <glyph glyph-name="ucircumflex" unicode="&#xfb;" horiz-adv-x="545" 
d="M477 199q0 -56 -16.5 -95.5t-45 -64.5t-66.5 -37t-80 -12t-79 12t-64 37t-43 64.5t-16 95.5v238q0 18 3 27.5t12 14t25.5 5.5t44.5 1v-270q0 -72 28.5 -107t88.5 -35q124 0 124 142v266h84v-282zM417 572h-10l-123 95l-123 -95h-10l-35 36l82 117q38 7 86 7t86 -7
l81 -117z" />
    <glyph glyph-name="udieresis" unicode="&#xfc;" horiz-adv-x="545" 
d="M249 647q0 -58 -58 -58q-31 0 -44.5 14.5t-13.5 43.5q0 27 13.5 42.5t44.5 15.5q30 0 44 -15.5t14 -42.5zM425 647q0 -58 -57 -58q-32 0 -45 14.5t-13 43.5q0 27 13 42.5t45 15.5q29 0 43 -15.5t14 -42.5zM477 199q0 -56 -16.5 -95.5t-45 -64.5t-66.5 -37t-80 -12t-79 12
t-64 37t-43 64.5t-16 95.5v238q0 18 3 27.5t12 14t25.5 5.5t44.5 1v-270q0 -72 28.5 -107t88.5 -35q124 0 124 142v266h84v-282z" />
    <glyph glyph-name="yacute" unicode="&#xfd;" horiz-adv-x="513" 
d="M496 469l-172 -463q-12 -98 -53.5 -139.5t-99.5 -41.5q-32 0 -54.5 12.5t-22.5 43.5v31q25 -6 43 -6q38 0 64 21.5t34 68.5q-67 123 -120.5 245t-94.5 240h102q29 -95 71 -193t84 -184l126 377h93v-12zM223 561h-10l-24 45l174 142q22 -21 37 -48t21 -54z" />
    <glyph glyph-name="thorn" unicode="&#xfe;" horiz-adv-x="571" 
d="M525 261q0 -55 -16.5 -104t-46.5 -86t-71 -59t-90 -22q-46 0 -84 19t-63 58v-232h-85v768q0 18 3 27.5t12 14t25.5 5t44.5 0.5v-274q27 55 72.5 85t108.5 30q46 0 81.5 -17t59.5 -47.5t36.5 -73t12.5 -92.5zM435 261q0 30 -7 57.5t-22 49t-39 34t-57 12.5
q-34 0 -61 -15.5t-46 -43t-29 -65.5t-10 -83q0 -24 8.5 -49t24 -44.5t38 -32t50.5 -12.5q37 0 65 16.5t47 43.5t28.5 61.5t9.5 70.5z" />
    <glyph glyph-name="ydieresis" unicode="&#xff;" horiz-adv-x="513" 
d="M496 469l-172 -463q-12 -98 -53.5 -139.5t-99.5 -41.5q-32 0 -54.5 12.5t-22.5 43.5v31q25 -6 43 -6q38 0 64 21.5t34 68.5q-67 123 -120.5 245t-94.5 240h102q29 -95 71 -193t84 -184l126 377h93v-12zM232 647q0 -58 -58 -58q-31 0 -44.5 14.5t-13.5 43.5
q0 27 13.5 42.5t44.5 15.5q30 0 44 -15.5t14 -42.5zM408 647q0 -58 -57 -58q-32 0 -45 14.5t-13 43.5q0 27 13 42.5t45 15.5q29 0 43 -15.5t14 -42.5z" />
    <glyph glyph-name="Amacron" unicode="&#x100;" horiz-adv-x="669" 
d="M530 0l-51 140h-296q-12 -35 -22.5 -70t-21.5 -70h-105q24 72 50.5 144t55.5 142t59.5 136.5t62.5 126.5q22 44 12 72q26 15 52.5 22t54.5 9l254 -640v-12h-105zM340 519q-35 -69 -66.5 -143.5t-60.5 -151.5h236zM486 739h-295v78h295v-78z" />
    <glyph glyph-name="amacron" unicode="&#x101;" horiz-adv-x="508" 
d="M39 136q0 55 40 90.5t128 46.5l137 16v2q-2 34 -13 57.5t-29.5 37.5t-43 20.5t-54.5 6.5q-32 0 -61.5 -8.5t-57.5 -19.5v30q0 18 15 32.5t38 24t50 14.5t52 5q28 0 60 -6.5t60 -27t47.5 -58t23.5 -99.5l18 -259q1 -17 -2.5 -26t-13 -13.5t-27.5 -5t-45 -0.5l-6 96
q-26 -48 -68 -75t-102 -27q-39 0 -66.5 13t-45 34t-26 47t-8.5 52zM139 139q0 -35 19 -58t58 -23q29 0 52 15t39.5 38.5t25.5 53.5t11 60l-128 -16q-35 -5 -56 -23t-21 -47zM405 608h-295v78h295v-78z" />
    <glyph glyph-name="Abreve" unicode="&#x102;" horiz-adv-x="669" 
d="M530 0l-51 140h-296q-12 -35 -22.5 -70t-21.5 -70h-105q24 72 50.5 144t55.5 142t59.5 136.5t62.5 126.5q22 44 12 72q26 15 52.5 22t54.5 9l254 -640v-12h-105zM340 519q-35 -69 -66.5 -143.5t-60.5 -151.5h236zM336 701q-38 0 -66.5 11t-47.5 29t-28.5 41t-9.5 48
q0 23 14 31t37 8q0 -23 8.5 -39t23 -27t32.5 -16t37 -5t37 5t32 16t23 27t9 39q23 0 37.5 -8t14.5 -31q0 -25 -9.5 -48t-28.5 -41t-48 -29t-67 -11z" />
    <glyph glyph-name="abreve" unicode="&#x103;" horiz-adv-x="508" 
d="M39 136q0 55 40 90.5t128 46.5l137 16v2q-2 34 -13 57.5t-29.5 37.5t-43 20.5t-54.5 6.5q-32 0 -61.5 -8.5t-57.5 -19.5v30q0 18 15 32.5t38 24t50 14.5t52 5q28 0 60 -6.5t60 -27t47.5 -58t23.5 -99.5l18 -259q1 -17 -2.5 -26t-13 -13.5t-27.5 -5t-45 -0.5l-6 96
q-26 -48 -68 -75t-102 -27q-39 0 -66.5 13t-45 34t-26 47t-8.5 52zM260 570q-38 0 -66.5 11t-47.5 29t-28.5 41t-9.5 48q0 23 14 31t37 8q0 -23 8.5 -39t23 -27t32.5 -16t37 -5t37 5t32 16t23 27t9 39q23 0 37.5 -8t14.5 -31q0 -25 -9.5 -48t-28.5 -41t-48 -29t-67 -11z
M139 139q0 -35 19 -58t58 -23q29 0 52 15t39.5 38.5t25.5 53.5t11 60l-128 -16q-35 -5 -56 -23t-21 -47z" />
    <glyph glyph-name="Aogonek" unicode="&#x104;" horiz-adv-x="669" 
d="M607 -160q0 -24 -25.5 -34.5t-57.5 -10.5q-38 0 -62 20.5t-24 58.5q0 21 8 41.5t20.5 38.5t28.5 33t31 24l-47 129h-296q-12 -35 -22.5 -70t-21.5 -70h-105q24 72 50.5 144t55.5 142t59.5 136.5t62.5 126.5q22 44 12 72q26 15 52.5 22t54.5 9l254 -640v-12h-43
q-36 -25 -57.5 -49.5t-21.5 -54.5q0 -24 13.5 -35t35.5 -11t45 9v-19zM340 519q-35 -69 -66.5 -143.5t-60.5 -151.5h236z" />
    <glyph glyph-name="aogonek" unicode="&#x105;" horiz-adv-x="508" 
d="M39 136q0 55 40 90.5t128 46.5l137 16v2q-2 34 -13 57.5t-29.5 37.5t-43 20.5t-54.5 6.5q-32 0 -61.5 -8.5t-57.5 -19.5v30q0 18 15 32.5t38 24t50 14.5t52 5q28 0 60 -6.5t60 -27t47.5 -58t23.5 -99.5l18 -259q2 -23 -5.5 -32.5t-29.5 -11.5q-35 -24 -55.5 -48
t-20.5 -53q0 -24 13.5 -35t36.5 -11q22 0 45 9v-19q0 -12 -7 -20.5t-19 -14t-27 -8t-31 -2.5q-38 0 -62 20.5t-24 58.5q0 22 9 44t23.5 41t31.5 34t33 23l-5 76q-26 -48 -68 -75t-102 -27q-39 0 -66.5 13t-45 34t-26 47t-8.5 52zM139 139q0 -35 19 -58t58 -23q29 0 52 15
t39.5 38.5t25.5 53.5t11 60l-128 -16q-35 -5 -56 -23t-21 -47z" />
    <glyph glyph-name="Cacute" unicode="&#x106;" horiz-adv-x="627" 
d="M565 88q0 -28 -17.5 -46.5t-45 -30t-62 -16.5t-67.5 -5q-72 0 -131 23t-101 67.5t-65 110t-23 150.5q0 69 23 126.5t64 99t99 64.5t127 23q46 0 85.5 -11.5t69 -31.5t46.5 -48.5t17 -62.5q0 -33 -18 -51.5t-41 -18.5h-31v22q0 53 -35 84.5t-98 31.5q-45 0 -83.5 -18
t-67 -48.5t-44.5 -72t-16 -88.5q0 -56 15.5 -103.5t46.5 -82.5t78 -55t110 -20q45 0 85.5 10.5t79.5 28.5v-31zM314 692h-10l-24 45l174 142q22 -21 37 -48t21 -54z" />
    <glyph glyph-name="cacute" unicode="&#x107;" horiz-adv-x="488" 
d="M230 561h-10l-24 45l174 142q22 -21 37 -48t21 -54zM429 65q0 -21 -14.5 -35.5t-37 -23.5t-48.5 -12.5t-49 -3.5q-53 0 -96 17.5t-73.5 51.5t-47.5 83.5t-17 114.5q0 54 19 97.5t51.5 74t76 46.5t93.5 16q30 0 59 -7t52 -21.5t37 -36.5t14 -53q0 -29 -13.5 -45t-33.5 -16
h-29v20q0 47 -27.5 65t-65.5 18q-32 0 -58.5 -12.5t-45.5 -34t-29 -50t-10 -61.5q0 -41 9.5 -75t31 -59t55.5 -39t82 -14q61 0 115 24v-29z" />
    <glyph glyph-name="Ccircumflex" unicode="&#x108;" horiz-adv-x="627" 
d="M565 88q0 -28 -17.5 -46.5t-45 -30t-62 -16.5t-67.5 -5q-72 0 -131 23t-101 67.5t-65 110t-23 150.5q0 69 23 126.5t64 99t99 64.5t127 23q46 0 85.5 -11.5t69 -31.5t46.5 -48.5t17 -62.5q0 -33 -18 -51.5t-41 -18.5h-31v22q0 53 -35 84.5t-98 31.5q-45 0 -83.5 -18
t-67 -48.5t-44.5 -72t-16 -88.5q0 -56 15.5 -103.5t46.5 -82.5t78 -55t110 -20q45 0 85.5 10.5t79.5 28.5v-31zM499 704h-10l-123 95l-123 -95h-10l-35 36l82 117q38 7 86 7t86 -7l81 -117z" />
    <glyph glyph-name="ccircumflex" unicode="&#x109;" horiz-adv-x="488" 
d="M429 65q0 -21 -14.5 -35.5t-37 -23.5t-48.5 -12.5t-49 -3.5q-53 0 -96 17.5t-73.5 51.5t-47.5 83.5t-17 114.5q0 54 19 97.5t51.5 74t76 46.5t93.5 16q30 0 59 -7t52 -21.5t37 -36.5t14 -53q0 -29 -13.5 -45t-33.5 -16h-29v20q0 47 -27.5 65t-65.5 18q-32 0 -58.5 -12.5
t-45.5 -34t-29 -50t-10 -61.5q0 -41 9.5 -75t31 -59t55.5 -39t82 -14q61 0 115 24v-29zM409 572h-10l-123 95l-123 -95h-10l-35 36l82 117q38 7 86 7t86 -7l81 -117z" />
    <glyph glyph-name="Cdotaccent" unicode="&#x10a;" horiz-adv-x="627" 
d="M412 778q0 -55 -55 -55q-29 0 -41.5 14t-12.5 41q0 26 12.5 40.5t41.5 14.5t42 -14.5t13 -40.5zM565 88q0 -28 -17.5 -46.5t-45 -30t-62 -16.5t-67.5 -5q-72 0 -131 23t-101 67.5t-65 110t-23 150.5q0 69 23 126.5t64 99t99 64.5t127 23q46 0 85.5 -11.5t69 -31.5
t46.5 -48.5t17 -62.5q0 -33 -18 -51.5t-41 -18.5h-31v22q0 53 -35 84.5t-98 31.5q-45 0 -83.5 -18t-67 -48.5t-44.5 -72t-16 -88.5q0 -56 15.5 -103.5t46.5 -82.5t78 -55t110 -20q45 0 85.5 10.5t79.5 28.5v-31z" />
    <glyph glyph-name="cdotaccent" unicode="&#x10b;" horiz-adv-x="488" 
d="M429 65q0 -21 -14.5 -35.5t-37 -23.5t-48.5 -12.5t-49 -3.5q-53 0 -96 17.5t-73.5 51.5t-47.5 83.5t-17 114.5q0 54 19 97.5t51.5 74t76 46.5t93.5 16q30 0 59 -7t52 -21.5t37 -36.5t14 -53q0 -29 -13.5 -45t-33.5 -16h-29v20q0 47 -27.5 65t-65.5 18q-32 0 -58.5 -12.5
t-45.5 -34t-29 -50t-10 -61.5q0 -41 9.5 -75t31 -59t55.5 -39t82 -14q61 0 115 24v-29zM328 647q0 -56 -55 -56q-29 0 -41.5 14.5t-12.5 41.5q0 26 12.5 40.5t41.5 14.5t42 -14.5t13 -40.5z" />
    <glyph glyph-name="Ccaron" unicode="&#x10c;" horiz-adv-x="627" 
d="M565 88q0 -28 -17.5 -46.5t-45 -30t-62 -16.5t-67.5 -5q-72 0 -131 23t-101 67.5t-65 110t-23 150.5q0 69 23 126.5t64 99t99 64.5t127 23q46 0 85.5 -11.5t69 -31.5t46.5 -48.5t17 -62.5q0 -33 -18 -51.5t-41 -18.5h-31v22q0 53 -35 84.5t-98 31.5q-45 0 -83.5 -18
t-67 -48.5t-44.5 -72t-16 -88.5q0 -56 15.5 -103.5t46.5 -82.5t78 -55t110 -20q45 0 85.5 10.5t79.5 28.5v-31zM451 714q-38 -8 -86 -8t-86 8l-82 117l35 35h10l123 -95l123 95h10l34 -35z" />
    <glyph glyph-name="ccaron" unicode="&#x10d;" horiz-adv-x="488" 
d="M429 65q0 -21 -14.5 -35.5t-37 -23.5t-48.5 -12.5t-49 -3.5q-53 0 -96 17.5t-73.5 51.5t-47.5 83.5t-17 114.5q0 54 19 97.5t51.5 74t76 46.5t93.5 16q30 0 59 -7t52 -21.5t37 -36.5t14 -53q0 -29 -13.5 -45t-33.5 -16h-29v20q0 47 -27.5 65t-65.5 18q-32 0 -58.5 -12.5
t-45.5 -34t-29 -50t-10 -61.5q0 -41 9.5 -75t31 -59t55.5 -39t82 -14q61 0 115 24v-29zM359 582q-38 -8 -86 -8t-86 8l-82 117l35 35h10l123 -95l123 95h10l34 -35z" />
    <glyph glyph-name="Dcaron" unicode="&#x10e;" horiz-adv-x="680" 
d="M626 343q0 -78 -26 -141.5t-70 -108.5t-103.5 -69t-125.5 -24h-50q-84 0 -124 37.5t-40 128.5v391h-52q0 43 4 65t29 22h245q65 0 122 -18.5t99.5 -56t67 -94t24.5 -132.5zM177 557v-381q0 -44 19 -66.5t64 -22.5h38q46 0 88.5 16.5t74 48.5t50.5 80t19 111
q0 58 -18.5 99t-50 66.5t-73.5 37t-90 11.5h-121zM406 714q-38 -8 -86 -8t-86 8l-82 117l35 35h10l123 -95l123 95h10l34 -35z" />
    <glyph glyph-name="dcaron" unicode="&#x10f;" horiz-adv-x="569" 
d="M46 219q0 55 16.5 104.5t45.5 86.5t70 59t90 22q46 0 84 -18t63 -56v227h84v-601q0 -18 -2.5 -27.5t-11.5 -14t-25.5 -5t-44.5 -0.5v111q-29 -56 -76.5 -86.5t-107.5 -30.5q-43 0 -77.5 17t-58.5 47.5t-36.5 72.5t-12.5 92zM136 220q0 -30 7.5 -57.5t22 -48t36 -33
t50.5 -12.5q33 0 60.5 15t48 42t32 65t11.5 83q0 24 -7 49t-21.5 45.5t-37.5 33t-54 12.5q-38 0 -66 -17t-46 -44t-27 -62t-9 -71zM607 534h-48l-4 11l12 204q29 3 60 -5t55 -21z" />
    <glyph glyph-name="Dcroat" unicode="&#x110;" horiz-adv-x="704" 
d="M651 343q0 -78 -26 -141.5t-70 -108.5t-103.5 -69t-125.5 -24h-51q-84 0 -124 37.5t-40 128.5v113h-91v80h91v198h-52q0 21 0.5 37.5t3.5 27.5t10 16.5t20 5.5h245q65 0 122 -18.5t99.5 -56t67 -94t24.5 -132.5zM202 279v-103q0 -44 18.5 -66.5t63.5 -22.5h38
q47 0 89 16.5t74 48.5t51 80t19 111q0 58 -18.5 99t-50.5 66.5t-74 37t-90 11.5h-120v-198h157v-80h-157z" />
    <glyph glyph-name="dcroat" unicode="&#x111;" horiz-adv-x="576" 
d="M46 202q0 49 16.5 94.5t45.5 80.5t70 55.5t91 20.5q42 0 81 -17.5t65 -53.5v129h-161v66h161v67h84v-67h73v-66h-73v-468q0 -18 -2.5 -27.5t-11.5 -14t-25.5 -5t-44.5 -0.5v106q-30 -54 -79 -83t-106 -29q-42 0 -76 16t-58 44.5t-37 67t-13 84.5zM136 204q0 -27 7 -51
t21 -43t35 -30t50 -11q32 0 60.5 14t49.5 38t33 57.5t12 72.5q0 22 -7 44t-21.5 40t-37.5 29.5t-55 11.5q-37 0 -64.5 -15t-46 -39.5t-27.5 -55.5t-9 -62z" />
    <glyph glyph-name="Emacron" unicode="&#x112;" horiz-adv-x="524" 
d="M472 0h-242q-42 0 -71 8t-46.5 25.5t-25.5 46t-8 69.5v447q0 18 3.5 27.5t13 14t27 5.5t46.5 1h263q25 0 29.5 -22t4.5 -65h-297v-204h243v-82h-243v-111q0 -38 17.5 -55.5t58.5 -17.5h227v-87zM423 739h-295v78h295v-78z" />
    <glyph glyph-name="emacron" unicode="&#x113;" horiz-adv-x="514" 
d="M437 62q0 -20 -13.5 -33.5t-35.5 -22t-50 -12.5t-56 -4q-51 0 -94.5 16.5t-75 49.5t-49 83t-17.5 117q0 51 16.5 94t46.5 74.5t71 49t91 17.5q48 0 85.5 -16t64 -44.5t40 -68.5t13.5 -89q0 -20 -7 -33.5t-18.5 -21.5t-26.5 -11t-30 -3h-252q11 -66 55 -100t127 -34
q30 0 59 6t56 17v-31zM269 417q-34 0 -58.5 -11.5t-40.5 -31t-24.5 -46t-9.5 -56.5h215q18 0 25 11.5t7 21.5q0 56 -32.5 84t-81.5 28zM420 608h-295v78h295v-78z" />
    <glyph glyph-name="Ebreve" unicode="&#x114;" horiz-adv-x="524" 
d="M472 0h-242q-42 0 -71 8t-46.5 25.5t-25.5 46t-8 69.5v447q0 18 3.5 27.5t13 14t27 5.5t46.5 1h263q25 0 29.5 -22t4.5 -65h-297v-204h243v-82h-243v-111q0 -38 17.5 -55.5t58.5 -17.5h227v-87zM279 701q-38 0 -66.5 11t-47.5 29t-28.5 41t-9.5 48q0 23 14 31t37 8
q0 -23 8.5 -39t23 -27t32.5 -16t37 -5t37 5t32 16t23 27t9 39q23 0 37.5 -8t14.5 -31q0 -25 -9.5 -48t-28.5 -41t-48 -29t-67 -11z" />
    <glyph glyph-name="ebreve" unicode="&#x115;" horiz-adv-x="514" 
d="M437 62q0 -20 -13.5 -33.5t-35.5 -22t-50 -12.5t-56 -4q-51 0 -94.5 16.5t-75 49.5t-49 83t-17.5 117q0 51 16.5 94t46.5 74.5t71 49t91 17.5q48 0 85.5 -16t64 -44.5t40 -68.5t13.5 -89q0 -20 -7 -33.5t-18.5 -21.5t-26.5 -11t-30 -3h-252q11 -66 55 -100t127 -34
q30 0 59 6t56 17v-31zM269 417q-34 0 -58.5 -11.5t-40.5 -31t-24.5 -46t-9.5 -56.5h215q18 0 25 11.5t7 21.5q0 56 -32.5 84t-81.5 28zM272 570q-38 0 -66.5 11t-47.5 29t-28.5 41t-9.5 48q0 23 14 31t37 8q0 -23 8.5 -39t23 -27t32.5 -16t37 -5t37 5t32 16t23 27t9 39
q23 0 37.5 -8t14.5 -31q0 -25 -9.5 -48t-28.5 -41t-48 -29t-67 -11z" />
    <glyph glyph-name="Edotaccent" unicode="&#x116;" horiz-adv-x="524" 
d="M472 0h-242q-42 0 -71 8t-46.5 25.5t-25.5 46t-8 69.5v447q0 18 3.5 27.5t13 14t27 5.5t46.5 1h263q25 0 29.5 -22t4.5 -65h-297v-204h243v-82h-243v-111q0 -38 17.5 -55.5t58.5 -17.5h227v-87zM335 778q0 -55 -55 -55q-29 0 -41.5 14t-12.5 41q0 26 12.5 40.5t41.5 14.5
t42 -14.5t13 -40.5z" />
    <glyph glyph-name="edotaccent" unicode="&#x117;" horiz-adv-x="514" 
d="M437 62q0 -20 -13.5 -33.5t-35.5 -22t-50 -12.5t-56 -4q-51 0 -94.5 16.5t-75 49.5t-49 83t-17.5 117q0 51 16.5 94t46.5 74.5t71 49t91 17.5q48 0 85.5 -16t64 -44.5t40 -68.5t13.5 -89q0 -20 -7 -33.5t-18.5 -21.5t-26.5 -11t-30 -3h-252q11 -66 55 -100t127 -34
q30 0 59 6t56 17v-31zM269 417q-34 0 -58.5 -11.5t-40.5 -31t-24.5 -46t-9.5 -56.5h215q18 0 25 11.5t7 21.5q0 56 -32.5 84t-81.5 28zM323 647q0 -56 -55 -56q-29 0 -41.5 14.5t-12.5 41.5q0 26 12.5 40.5t41.5 14.5t42 -14.5t13 -40.5z" />
    <glyph glyph-name="Eogonek" unicode="&#x118;" horiz-adv-x="524" 
d="M465 -160q0 -24 -25.5 -34.5t-57.5 -10.5q-38 0 -62 20.5t-24 58.5q0 37 22.5 71t49.5 55h-138q-42 0 -71 8t-46.5 25.5t-25.5 46t-8 69.5v447q0 18 3.5 27.5t13 14t27 5.5t46.5 1h263q25 0 29.5 -22t4.5 -65h-297v-204h243v-82h-243v-111q0 -38 17.5 -55.5t58.5 -17.5
h227v-87h-22q-37 -25 -58 -49.5t-21 -54.5q0 -24 13 -35t36 -11q22 0 45 9v-19z" />
    <glyph glyph-name="eogonek" unicode="&#x119;" horiz-adv-x="514" 
d="M418 -160q0 -24 -25.5 -34.5t-57.5 -10.5q-38 0 -62 23t-24 62q0 32 13.5 60t32.5 50h-13q-51 0 -94.5 16.5t-75 49.5t-49 83t-17.5 117q0 51 16.5 94t46.5 74.5t71 49t91 17.5q48 0 85.5 -16t64 -44.5t40 -68.5t13.5 -89q0 -20 -7 -33.5t-18.5 -21.5t-26.5 -11t-30 -3
h-252q11 -66 55 -100t127 -34q30 0 59 6t56 17v-31q0 -17 -10.5 -29.5t-27.5 -21.5q-34 -23 -54.5 -49.5t-20.5 -59.5q0 -27 13.5 -39.5t36.5 -12.5q21 0 44 9v-19zM269 417q-34 0 -58.5 -11.5t-40.5 -31t-24.5 -46t-9.5 -56.5h215q18 0 25 11.5t7 21.5q0 56 -32.5 84
t-81.5 28z" />
    <glyph glyph-name="Ecaron" unicode="&#x11a;" horiz-adv-x="524" 
d="M472 0h-242q-42 0 -71 8t-46.5 25.5t-25.5 46t-8 69.5v447q0 18 3.5 27.5t13 14t27 5.5t46.5 1h263q25 0 29.5 -22t4.5 -65h-297v-204h243v-82h-243v-111q0 -38 17.5 -55.5t58.5 -17.5h227v-87zM365 714q-38 -8 -86 -8t-86 8l-82 117l35 35h10l123 -95l123 95h10l34 -35z
" />
    <glyph glyph-name="ecaron" unicode="&#x11b;" horiz-adv-x="514" 
d="M437 62q0 -20 -13.5 -33.5t-35.5 -22t-50 -12.5t-56 -4q-51 0 -94.5 16.5t-75 49.5t-49 83t-17.5 117q0 51 16.5 94t46.5 74.5t71 49t91 17.5q48 0 85.5 -16t64 -44.5t40 -68.5t13.5 -89q0 -20 -7 -33.5t-18.5 -21.5t-26.5 -11t-30 -3h-252q11 -66 55 -100t127 -34
q30 0 59 6t56 17v-31zM269 417q-34 0 -58.5 -11.5t-40.5 -31t-24.5 -46t-9.5 -56.5h215q18 0 25 11.5t7 21.5q0 56 -32.5 84t-81.5 28zM357 582q-38 -8 -86 -8t-86 8l-82 117l35 35h10l123 -95l123 95h10l34 -35z" />
    <glyph glyph-name="Gcircumflex" unicode="&#x11c;" horiz-adv-x="685" 
d="M557 197v-115q0 -26 -19 -43.5t-48 -28.5t-63.5 -15.5t-65.5 -4.5q-71 0 -128 24t-97 69t-61.5 110t-21.5 148q0 69 23 126.5t64 99t99 64.5t128 23q49 0 89.5 -10.5t69.5 -30t45 -46.5t16 -60q0 -34 -18 -55.5t-41 -21.5h-31v22q0 54 -35 85t-98 31q-50 0 -89.5 -17.5
t-67.5 -48t-42.5 -72t-14.5 -89.5q0 -57 14 -105.5t43 -84.5t75 -56t109 -20q38 0 76 11v146q0 18 3.5 27.5t13 14t27.5 5.5t47 1h95v-83h-96zM493 704h-10l-123 95l-123 -95h-10l-35 36l82 117q38 7 86 7t86 -7l81 -117z" />
    <glyph glyph-name="gcircumflex" unicode="&#x11d;" horiz-adv-x="489" 
d="M460 -19q0 -44 -22 -73.5t-56.5 -48t-77 -26.5t-84.5 -8q-43 0 -79.5 7t-63.5 21t-42 36.5t-15 53.5q0 40 22 63.5t56 36.5q-17 11 -27.5 27.5t-10.5 39.5q0 35 19.5 53.5t48.5 28.5q-36 20 -58.5 54t-22.5 82q0 39 15 69.5t40.5 51t60.5 31.5t74 11q31 0 63 -8v9
q0 32 13.5 54t33.5 36l-109 85l-123 -95h-10l-35 36l82 117q38 7 86 7t86 -7l81 -117l-3 -3q9 2 18.5 3t18.5 1q26 0 32 -19.5t6 -68.5q-25 2 -47.5 -2t-40 -11.5t-27.5 -17.5t-10 -20q0 -6 1 -9q34 -21 54 -54.5t20 -78.5q0 -39 -15.5 -69t-41.5 -50.5t-60.5 -31
t-72.5 -10.5h-8q-44 -1 -67.5 -10t-23.5 -27q0 -17 18 -27t56 -10h67q41 0 74.5 -5.5t57 -18.5t36.5 -34.5t13 -53.5zM344 323q0 42 -29 68t-78 26q-48 0 -76.5 -24.5t-28.5 -69.5q0 -44 30 -68t75 -24t76 25.5t31 66.5zM212 21q-54 0 -80 -17.5t-26 -46.5q0 -35 32 -52
t90 -17q28 0 54 4.5t45.5 14.5t31 25t11.5 35q0 32 -29.5 43t-81.5 11h-47z" />
    <glyph glyph-name="Gbreve" unicode="&#x11e;" horiz-adv-x="685" 
d="M360 701q-38 0 -66.5 11t-47.5 29t-28.5 41t-9.5 48q0 23 14 31t37 8q0 -23 8.5 -39t23 -27t32.5 -16t37 -5t37 5t32 16t23 27t9 39q23 0 37.5 -8t14.5 -31q0 -25 -9.5 -48t-28.5 -41t-48 -29t-67 -11zM557 197v-115q0 -26 -19 -43.5t-48 -28.5t-63.5 -15.5t-65.5 -4.5
q-71 0 -128 24t-97 69t-61.5 110t-21.5 148q0 69 23 126.5t64 99t99 64.5t128 23q49 0 89.5 -10.5t69.5 -30t45 -46.5t16 -60q0 -34 -18 -55.5t-41 -21.5h-31v22q0 54 -35 85t-98 31q-50 0 -89.5 -17.5t-67.5 -48t-42.5 -72t-14.5 -89.5q0 -57 14 -105.5t43 -84.5t75 -56
t109 -20q38 0 76 11v146q0 18 3.5 27.5t13 14t27.5 5.5t47 1h95v-83h-96z" />
    <glyph glyph-name="gbreve" unicode="&#x11f;" horiz-adv-x="489" 
d="M477 521q-25 2 -47.5 -2t-40 -11.5t-27.5 -17.5t-10 -20q0 -6 1 -9q34 -21 54 -54.5t20 -78.5q0 -39 -15.5 -69t-41.5 -50.5t-60.5 -31t-72.5 -10.5h-8q-44 -1 -67.5 -10t-23.5 -27q0 -17 18 -27t56 -10h67q41 0 74.5 -5.5t57 -18.5t36.5 -34.5t13 -53.5q0 -44 -22 -73.5
t-56.5 -48t-77 -26.5t-84.5 -8q-43 0 -79.5 7t-63.5 21t-42 36.5t-15 53.5q0 40 22 63.5t56 36.5q-17 11 -27.5 27.5t-10.5 39.5q0 35 19.5 53.5t48.5 28.5q-36 20 -58.5 54t-22.5 82q0 39 15 69.5t40.5 51t60.5 31.5t74 11q31 0 63 -8v9q0 31 13 53.5t33 36.5t45 20.5
t48 6.5q26 0 32 -19.5t6 -68.5zM344 323q0 42 -29 68t-78 26q-48 0 -76.5 -24.5t-28.5 -69.5q0 -44 30 -68t75 -24t76 25.5t31 66.5zM212 21q-54 0 -80 -17.5t-26 -46.5q0 -35 32 -52t90 -17q28 0 54 4.5t45.5 14.5t31 25t11.5 35q0 32 -29.5 43t-81.5 11h-47zM239 570
q-38 0 -66.5 11t-47.5 29t-28.5 41t-9.5 48q0 23 14 31t37 8q0 -23 8.5 -39t23 -27t32.5 -16t37 -5t37 5t32 16t23 27t9 39q23 0 37.5 -8t14.5 -31q0 -25 -9.5 -48t-28.5 -41t-48 -29t-67 -11z" />
    <glyph glyph-name="Gdotaccent" unicode="&#x120;" horiz-adv-x="685" 
d="M409 778q0 -55 -55 -55q-29 0 -41.5 14t-12.5 41q0 26 12.5 40.5t41.5 14.5t42 -14.5t13 -40.5zM557 197v-115q0 -26 -19 -43.5t-48 -28.5t-63.5 -15.5t-65.5 -4.5q-71 0 -128 24t-97 69t-61.5 110t-21.5 148q0 69 23 126.5t64 99t99 64.5t128 23q49 0 89.5 -10.5
t69.5 -30t45 -46.5t16 -60q0 -34 -18 -55.5t-41 -21.5h-31v22q0 54 -35 85t-98 31q-50 0 -89.5 -17.5t-67.5 -48t-42.5 -72t-14.5 -89.5q0 -57 14 -105.5t43 -84.5t75 -56t109 -20q38 0 76 11v146q0 18 3.5 27.5t13 14t27.5 5.5t47 1h95v-83h-96z" />
    <glyph glyph-name="gdotaccent" unicode="&#x121;" horiz-adv-x="489" 
d="M477 521q-25 2 -47.5 -2t-40 -11.5t-27.5 -17.5t-10 -20q0 -6 1 -9q34 -21 54 -54.5t20 -78.5q0 -39 -15.5 -69t-41.5 -50.5t-60.5 -31t-72.5 -10.5q-48 0 -73.5 -9t-25.5 -28q0 -17 18 -27t56 -10h67q41 0 74.5 -5.5t57 -18.5t36.5 -34.5t13 -53.5q0 -44 -22 -73.5
t-56.5 -48t-77 -26.5t-84.5 -8q-43 0 -79.5 7t-63.5 21t-42 36.5t-15 53.5q0 40 22 63.5t56 36.5q-17 11 -27.5 27.5t-10.5 39.5q0 35 19.5 53.5t48.5 28.5q-36 20 -58.5 54t-22.5 82q0 39 15 69.5t40.5 51t60.5 31.5t74 11q31 0 63 -8v9q0 31 13 53.5t33 36.5t45 20.5
t48 6.5q26 0 32 -19.5t6 -68.5zM344 323q0 42 -29 68t-78 26q-48 0 -76.5 -24.5t-28.5 -69.5q0 -44 30 -68t75 -24t76 25.5t31 66.5zM201 21q-48 -2 -71.5 -19.5t-23.5 -44.5q0 -35 32 -52t90 -17q28 0 54 4.5t45.5 14.5t31 25t11.5 35q0 32 -29.5 43t-81.5 11h-58zM296 647
q0 -56 -55 -56q-29 0 -41.5 14.5t-12.5 41.5q0 26 12.5 40.5t41.5 14.5t42 -14.5t13 -40.5z" />
    <glyph glyph-name="Gcommaaccent" unicode="&#x122;" horiz-adv-x="685" 
d="M405 -121q0 -35 -23.5 -59.5t-62.5 -24.5q-21 0 -41 8.5t-20 31.5v22q19 -8 34 -8q20 0 31 11.5t11 31.5q0 12 -6.5 22.5t-12.5 17.5l16 12q9 7 22 4.5t24.5 -12t19.5 -24.5t8 -33zM557 197v-115q0 -26 -19 -43.5t-48 -28.5t-63.5 -15.5t-65.5 -4.5q-71 0 -128 24t-97 69
t-61.5 110t-21.5 148q0 69 23 126.5t64 99t99 64.5t128 23q49 0 89.5 -10.5t69.5 -30t45 -46.5t16 -60q0 -34 -18 -55.5t-41 -21.5h-31v22q0 54 -35 85t-98 31q-50 0 -89.5 -17.5t-67.5 -48t-42.5 -72t-14.5 -89.5q0 -57 14 -105.5t43 -84.5t75 -56t109 -20q38 0 76 11v146
q0 18 3.5 27.5t13 14t27.5 5.5t47 1h95v-83h-96z" />
    <glyph glyph-name="gcommaaccent" unicode="&#x123;" horiz-adv-x="489" 
d="M477 521q-25 2 -47.5 -2t-40 -11.5t-27.5 -17.5t-10 -20q0 -6 1 -9q34 -21 54 -54.5t20 -78.5q0 -39 -15.5 -69t-41.5 -50.5t-60.5 -31t-72.5 -10.5q-48 0 -73.5 -9t-25.5 -28q0 -17 18 -27t56 -10h67q41 0 74.5 -5.5t57 -18.5t36.5 -34.5t13 -53.5q0 -44 -22 -73.5
t-56.5 -48t-77 -26.5t-84.5 -8q-43 0 -79.5 7t-63.5 21t-42 36.5t-15 53.5q0 40 22 63.5t56 36.5q-17 11 -27.5 27.5t-10.5 39.5q0 35 19.5 53.5t48.5 28.5q-36 20 -58.5 54t-22.5 82q0 39 15 69.5t40.5 51t60.5 31.5t74 11q31 0 63 -8v9q0 31 13 53.5t33 36.5t45 20.5
t48 6.5q26 0 32 -19.5t6 -68.5zM344 323q0 42 -29 68t-78 26q-48 0 -76.5 -24.5t-28.5 -69.5q0 -44 30 -68t75 -24t76 25.5t31 66.5zM201 21q-48 -2 -71.5 -19.5t-23.5 -44.5q0 -35 32 -52t90 -17q28 0 54 4.5t45.5 14.5t31 25t11.5 35q0 32 -29.5 43t-81.5 11h-58zM245 537
q-9 -7 -22 -4.5t-24.5 12t-19.5 24.5t-8 33q0 35 23.5 59.5t62.5 24.5q21 0 41 -8.5t20 -31.5v-22q-19 8 -34 8q-20 0 -31 -11.5t-11 -31.5q0 -12 6.5 -22.5t12.5 -17.5z" />
    <glyph glyph-name="Hcircumflex" unicode="&#x124;" horiz-adv-x="676" 
d="M597 44q0 -18 -3 -28t-13 -14.5t-27.5 -5t-46.5 -0.5v273h-337v-269h-91v600q0 18 3.5 27.5t13.5 14t28 5.5t46 1v-294h337v290h90v-600zM480 704h-10l-123 95l-123 -95h-10l-35 36l82 117q38 7 86 7t86 -7l81 -117z" />
    <glyph glyph-name="hcircumflex" unicode="&#x125;" horiz-adv-x="557" 
d="M493 43q0 -18 -2.5 -27.5t-11.5 -14t-25.5 -5t-44.5 -0.5v287q0 63 -28.5 96t-83.5 33q-27 0 -52.5 -10t-45.5 -30t-32.5 -49t-12.5 -68v-255h-85v601q0 18 3 27.5t12 14t25.5 5t44.5 0.5v-252q32 48 79 71.5t99 23.5q77 0 119 -44t42 -122v-282zM252 672h-10l-123 95
l-123 -95h-10l-35 36l82 117q38 7 86 7t86 -7l81 -117z" />
    <glyph glyph-name="Hbar" unicode="&#x126;" horiz-adv-x="709" 
d="M613 533h92v-80h-92v-409q0 -18 -3 -28t-13 -14.5t-27.5 -5t-46.5 -0.5v273h-337v-269h-91v453h-91v80h91v67q0 18 3.5 27.5t13.5 14t28 5.5t46 1v-115h337v111h90v-111zM186 354h337v99h-337v-99z" />
    <glyph glyph-name="hbar" unicode="&#x127;" horiz-adv-x="557" 
d="M154 511v-166q32 48 79.5 71.5t99.5 23.5q77 0 119 -44t42 -122v-231q0 -18 -3 -27.5t-12 -14t-25.5 -5t-43.5 -0.5v236q0 63 -29 96t-83 33q-27 0 -53 -10t-46 -30t-32.5 -49t-12.5 -68v-204h-84v511h-73v66h73v24q0 18 2.5 27.5t11.5 14t25.5 5t44.5 0.5v-71h157v-66
h-157z" />
    <glyph glyph-name="Itilde" unicode="&#x128;" horiz-adv-x="249" 
d="M79 0v600q0 18 3.5 27.5t13.5 14t28 5.5t46 1v-648h-91zM298 806q0 -40 -27.5 -68t-69.5 -28q-23 0 -41.5 9t-35.5 20t-32.5 20t-32.5 9t-30.5 -15.5t-13.5 -43.5q-28 0 -42 11t-14 37q0 40 27.5 66t69.5 26q23 0 41.5 -9t35 -20t32.5 -20t33 -9t30 16t13 43q29 0 43 -9
t14 -35z" />
    <glyph glyph-name="itilde" unicode="&#x129;" horiz-adv-x="223" 
d="M69 0v437q0 18 3 27.5t12 14t25.5 5.5t44.5 1v-485h-85zM282 675q0 -40 -27.5 -68t-69.5 -28q-23 0 -41.5 9t-35.5 20t-32.5 20t-32.5 9t-30.5 -15.5t-13.5 -43.5q-28 0 -42 11t-14 37q0 40 27.5 66t69.5 26q23 0 41.5 -9t35 -20t32.5 -20t33 -9t30 16t13 43q29 0 43 -9
t14 -35z" />
    <glyph glyph-name="Imacron" unicode="&#x12a;" horiz-adv-x="249" 
d="M79 0v600q0 18 3.5 27.5t13.5 14t28 5.5t46 1v-648h-91zM273 739h-295v78h295v-78z" />
    <glyph glyph-name="imacron" unicode="&#x12b;" horiz-adv-x="223" 
d="M69 0v437q0 18 3 27.5t12 14t25.5 5.5t44.5 1v-485h-85zM260 608h-295v78h295v-78z" />
    <glyph glyph-name="Ibreve" unicode="&#x12c;" horiz-adv-x="249" 
d="M79 0v600q0 18 3.5 27.5t13.5 14t28 5.5t46 1v-648h-91zM125 701q-38 0 -66.5 11t-47.5 29t-28.5 41t-9.5 48q0 23 14 31t37 8q0 -23 8.5 -39t23 -27t32.5 -16t37 -5t37 5t32 16t23 27t9 39q23 0 37.5 -8t14.5 -31q0 -25 -9.5 -48t-28.5 -41t-48 -29t-67 -11z" />
    <glyph glyph-name="ibreve" unicode="&#x12d;" horiz-adv-x="223" 
d="M69 0v437q0 18 3 27.5t12 14t25.5 5.5t44.5 1v-485h-85zM112 570q-38 0 -66.5 11t-47.5 29t-28.5 41t-9.5 48q0 23 14 31t37 8q0 -23 8.5 -39t23 -27t32.5 -16t37 -5t37 5t32 16t23 27t9 39q23 0 37.5 -8t14.5 -31q0 -25 -9.5 -48t-28.5 -41t-48 -29t-67 -11z" />
    <glyph glyph-name="Iogonek" unicode="&#x12e;" horiz-adv-x="249" 
d="M203 -160q0 -12 -7 -20.5t-19 -14t-27 -8t-31 -2.5q-38 0 -62 20.5t-24 58.5q0 40 20.5 74t46.5 52h-21v600q0 18 3.5 27.5t13.5 14t28 5.5t46 1v-648h-6q-23 -21 -39.5 -47.5t-16.5 -56.5q0 -24 13.5 -35t36.5 -11q22 0 45 9v-19z" />
    <glyph glyph-name="iogonek" unicode="&#x12f;" horiz-adv-x="223" 
d="M188 -160q0 -24 -25.5 -34.5t-57.5 -10.5q-39 0 -63 20.5t-24 58.5q0 40 20.5 74t46.5 52h-16v437q0 18 3 27.5t12 14t25.5 5.5t44.5 1v-485h-5q-23 -21 -39.5 -47.5t-16.5 -56.5q0 -24 13.5 -35t36.5 -11q22 0 45 9v-19zM175 646q0 -30 -14 -45t-46 -15t-45.5 15
t-13.5 45q0 29 13.5 44.5t45.5 15.5t46 -15.5t14 -44.5z" />
    <glyph glyph-name="Idotaccent" unicode="&#x130;" horiz-adv-x="249" 
d="M79 0v600q0 18 3.5 27.5t13.5 14t28 5.5t46 1v-648h-91zM183 778q0 -55 -55 -55q-29 0 -41.5 14t-12.5 41q0 26 12.5 40.5t41.5 14.5t42 -14.5t13 -40.5z" />
    <glyph glyph-name="IJ" unicode="&#x132;" horiz-adv-x="557" 
d="M79 0v600q0 18 3.5 27.5t13.5 14t28 5.5t46 1v-648h-91zM477 46q0 -41 -13 -70.5t-34.5 -49.5t-48 -29.5t-53.5 -9.5q-35 0 -61.5 14.5t-26.5 47.5v32q12 -5 28 -7.5t31 -2.5q41 0 64.5 24t23.5 66v539q0 18 3.5 27.5t13.5 14t27.5 5.5t45.5 1v-602z" />
    <glyph glyph-name="ij" unicode="&#x133;" horiz-adv-x="453" 
d="M69 0v437q0 18 3 27.5t12 14t25.5 5.5t44.5 1v-485h-85zM175 646q0 -30 -14 -45t-46 -15t-45.5 15t-13.5 45q0 29 13.5 44.5t45.5 15.5t46 -15.5t14 -44.5zM383 -58q0 -53 -31 -85t-80 -32q-11 0 -23.5 2.5t-22.5 8t-16.5 15t-6.5 24.5v36q9 -3 18 -4t19 -1
q27 0 42.5 17.5t15.5 43.5v470q0 18 3 27.5t12 14t25.5 5.5t44.5 1v-543zM404 646q0 -60 -59 -60q-33 0 -46.5 15t-13.5 45q0 29 13.5 44.5t46.5 15.5q31 0 45 -15.5t14 -44.5z" />
    <glyph glyph-name="Jcircumflex" unicode="&#x134;" horiz-adv-x="308" 
d="M229 46q0 -41 -13 -70.5t-34.5 -49.5t-48 -29.5t-53.5 -9.5q-35 0 -61.5 14.5t-26.5 47.5v32q12 -5 28 -7.5t31 -2.5q41 0 64.5 24t23.5 66v539q0 18 3.5 27.5t13.5 14t27.5 5.5t45.5 1v-602zM326 704h-10l-123 95l-123 -95h-10l-35 36l82 117q38 7 86 7t86 -7l81 -117z
" />
    <glyph glyph-name="jcircumflex" unicode="&#x135;" horiz-adv-x="230" 
d="M161 -58q0 -53 -31 -85t-80 -32q-11 0 -23.5 2.5t-22.5 8t-16.5 15t-6.5 24.5v36q9 -3 18 -4t19 -1q27 0 42.5 17.5t15.5 43.5v470q0 18 3 27.5t12 14t25.5 5.5t44.5 1v-543zM254 572h-10l-123 94l-123 -94h-10l-34 36l81 117q38 7 86 7t86 -7l82 -117z" />
    <glyph glyph-name="Kcommaaccent" unicode="&#x136;" horiz-adv-x="617" 
d="M588 52q0 -17 -7 -28.5t-18.5 -19t-25.5 -11t-28 -3.5q-15 0 -29 2.5t-27.5 10.5t-28.5 22.5t-32 39.5l-142 201h-80v-266h-91v600q0 18 3.5 27.5t13.5 14t28 5.5t46 1v-297h70q28 28 58.5 64.5t59.5 76.5t55 79.5t46 72.5h104v-12q-23 -36 -50.5 -76t-59 -81t-65.5 -81
t-68 -75l150 -199q23 -31 47.5 -40.5t55.5 -9.5h15v-18zM361 -121q0 -35 -23.5 -59.5t-62.5 -24.5q-21 0 -41 8.5t-20 31.5v22q19 -8 34 -8q20 0 31 11.5t11 31.5q0 12 -6.5 22.5t-12.5 17.5l16 12q9 7 22 4.5t24.5 -12t19.5 -24.5t8 -33z" />
    <glyph glyph-name="kcommaaccent" unicode="&#x137;" horiz-adv-x="504" 
d="M492 29q0 -11 -7 -18t-18 -12t-24 -7t-24 -2q-17 0 -29.5 2.5t-23 10t-21 19.5t-23.5 32l-102 141h-66v-195h-85v601q0 18 3 27.5t12 14t25.5 5t44.5 0.5v-381h63q21 21 43 47.5t43 55.5t40 57.5t34 53.5h95v-12q-35 -54 -81 -116t-99 -114l114 -142q17 -21 35.5 -33
t41.5 -12h9v-23zM307 -121q0 -35 -23.5 -59.5t-62.5 -24.5q-21 0 -41 8.5t-20 31.5v22q19 -8 34 -8q20 0 31 11.5t11 31.5q0 12 -6.5 22.5t-12.5 17.5l16 12q9 7 22 4.5t24.5 -12t19.5 -24.5t8 -33z" />
    <glyph glyph-name="Lacute" unicode="&#x139;" horiz-adv-x="490" 
d="M65 692h-10l-24 45l174 142q22 -21 37 -48t21 -54zM230 0q-42 0 -71 8t-46.5 25.5t-25.5 46t-8 69.5v451q0 18 3.5 27.5t13 14t27 5.5t46.5 1v-488q0 -38 17.5 -55t58.5 -17h205v-88h-220z" />
    <glyph glyph-name="lacute" unicode="&#x13a;" horiz-adv-x="223" 
d="M59 722h-10l-24 45l174 142q22 -21 37 -48t21 -54zM69 0v633q0 18 3 27.5t12 14t25.5 5t44.5 0.5v-680h-85z" />
    <glyph glyph-name="Lcommaaccent" unicode="&#x13b;" horiz-adv-x="490" 
d="M319 -121q0 -35 -23.5 -59.5t-62.5 -24.5q-21 0 -41 8.5t-20 31.5v22q19 -8 34 -8q20 0 31 11.5t11 31.5q0 12 -6.5 22.5t-12.5 17.5l16 12q9 7 22 4.5t24.5 -12t19.5 -24.5t8 -33zM230 0q-42 0 -71 8t-46.5 25.5t-25.5 46t-8 69.5v451q0 18 3.5 27.5t13 14t27 5.5
t46.5 1v-488q0 -38 17.5 -55t58.5 -17h205v-88h-220z" />
    <glyph glyph-name="lcommaaccent" unicode="&#x13c;" horiz-adv-x="223" 
d="M165 -121q0 -35 -23.5 -59.5t-62.5 -24.5q-21 0 -41 8.5t-20 31.5v22q19 -8 34 -8q20 0 31 11.5t11 31.5q0 12 -6.5 22.5t-12.5 17.5l16 12q9 7 22 4.5t24.5 -12t19.5 -24.5t8 -33zM69 0v633q0 18 3 27.5t12 14t25.5 5t44.5 0.5v-680h-85z" />
    <glyph glyph-name="Lcaron" unicode="&#x13d;" horiz-adv-x="490" 
d="M300 534h-48l-4 11l12 204q29 3 60 -5t55 -21zM230 0q-42 0 -71 8t-46.5 25.5t-25.5 46t-8 69.5v451q0 18 3.5 27.5t13 14t27 5.5t46.5 1v-488q0 -38 17.5 -55t58.5 -17h205v-88h-220z" />
    <glyph glyph-name="lcaron" unicode="&#x13e;" horiz-adv-x="223" 
d="M262 534h-48l-4 11l12 204q29 3 60 -5t55 -21zM69 0v633q0 18 3 27.5t12 14t25.5 5t44.5 0.5v-680h-85z" />
    <glyph glyph-name="Ldot" unicode="&#x13f;" horiz-adv-x="490" 
d="M230 0q-42 0 -71 8t-46.5 25.5t-25.5 46t-8 69.5v451q0 18 3.5 27.5t13 14t27 5.5t46.5 1v-488q0 -38 17.5 -55t58.5 -17h205v-88h-220zM424 368q0 -56 -55 -56q-29 0 -41.5 14.5t-12.5 41.5q0 26 12.5 40.5t41.5 14.5t42 -14.5t13 -40.5z" />
    <glyph glyph-name="ldot" unicode="&#x140;" 
d="M69 0v633q0 18 3 27.5t12 14t25.5 5t44.5 0.5v-680h-85zM349 267q0 -56 -55 -56q-29 0 -41.5 14.5t-12.5 41.5q0 26 12.5 40.5t41.5 14.5t42 -14.5t13 -40.5z" />
    <glyph glyph-name="Lslash" unicode="&#x141;" horiz-adv-x="506" 
d="M246 0q-42 0 -71 8t-46.5 25.5t-25.5 46t-8 69.5v110l-61 -28l-32 72l93 43v254q0 18 3.5 27.5t13 14t27 5.5t46.5 1v-261l184 85l32 -72l-216 -100v-140q0 -38 17.5 -55t58.5 -17h205v-88h-220z" />
    <glyph glyph-name="lslash" unicode="&#x142;" horiz-adv-x="313" 
d="M115 0v190l-72 -48l-37 56l109 73v362q0 18 3 27.5t12 14t25.5 5t44.5 0.5v-352l76 51l38 -57l-114 -76v-246h-85z" />
    <glyph glyph-name="Nacute" unicode="&#x143;" horiz-adv-x="691" 
d="M313 692h-10l-24 45l174 142q22 -21 37 -48t21 -54zM611 20q-20 -14 -41.5 -20.5t-45.5 -8.5l-355 496v-487h-90v622q21 14 42.5 20.5t44.5 8.5l355 -491v484h90v-624z" />
    <glyph glyph-name="nacute" unicode="&#x144;" horiz-adv-x="557" 
d="M247 561h-10l-24 45l174 142q22 -21 37 -48t21 -54zM493 43q0 -18 -2.5 -27.5t-11.5 -14t-25.5 -5t-44.5 -0.5v287q0 63 -28.5 96t-83.5 33q-27 0 -52.5 -10t-45.5 -30t-32.5 -49t-12.5 -68v-255h-85v437q0 18 3 27.5t12 14t25.5 5.5t44.5 1v-89q32 48 79 71.5t99 23.5
q77 0 119 -44t42 -122v-282z" />
    <glyph glyph-name="Ncommaaccent" unicode="&#x145;" horiz-adv-x="691" 
d="M403 -121q0 -35 -23.5 -59.5t-62.5 -24.5q-21 0 -41 8.5t-20 31.5v22q19 -8 34 -8q20 0 31 11.5t11 31.5q0 12 -6.5 22.5t-12.5 17.5l16 12q9 7 22 4.5t24.5 -12t19.5 -24.5t8 -33zM611 20q-20 -14 -41.5 -20.5t-45.5 -8.5l-355 496v-487h-90v622q21 14 42.5 20.5
t44.5 8.5l355 -491v484h90v-624z" />
    <glyph glyph-name="ncommaaccent" unicode="&#x146;" horiz-adv-x="557" 
d="M332 -121q0 -35 -23.5 -59.5t-62.5 -24.5q-21 0 -41 8.5t-20 31.5v22q19 -8 34 -8q20 0 31 11.5t11 31.5q0 12 -6.5 22.5t-12.5 17.5l16 12q9 7 22 4.5t24.5 -12t19.5 -24.5t8 -33zM493 43q0 -18 -2.5 -27.5t-11.5 -14t-25.5 -5t-44.5 -0.5v287q0 63 -28.5 96t-83.5 33
q-27 0 -52.5 -10t-45.5 -30t-32.5 -49t-12.5 -68v-255h-85v437q0 18 3 27.5t12 14t25.5 5.5t44.5 1v-89q32 48 79 71.5t99 23.5q77 0 119 -44t42 -122v-282z" />
    <glyph glyph-name="Ncaron" unicode="&#x147;" horiz-adv-x="691" 
d="M611 20q-20 -14 -41.5 -20.5t-45.5 -8.5l-355 496v-487h-90v622q21 14 42.5 20.5t44.5 8.5l355 -491v484h90v-624zM442 714q-38 -8 -86 -8t-86 8l-82 117l35 35h10l123 -95l123 95h10l34 -35z" />
    <glyph glyph-name="ncaron" unicode="&#x148;" horiz-adv-x="557" 
d="M493 43q0 -18 -2.5 -27.5t-11.5 -14t-25.5 -5t-44.5 -0.5v287q0 63 -28.5 96t-83.5 33q-27 0 -52.5 -10t-45.5 -30t-32.5 -49t-12.5 -68v-255h-85v437q0 18 3 27.5t12 14t25.5 5.5t44.5 1v-89q32 48 79 71.5t99 23.5q77 0 119 -44t42 -122v-282zM375 582q-38 -8 -86 -8
t-86 8l-82 117l35 35h10l123 -95l123 95h10l34 -35z" />
    <glyph glyph-name="Eng" unicode="&#x14a;" horiz-adv-x="691" 
d="M633 287q0 -106 -19.5 -191.5t-55 -145.5t-84 -92.5t-105.5 -32.5q-38 0 -60 14.5t-22 47.5v35q28 -10 57 -10q46 0 82 29t60 79.5t36.5 119t12.5 147.5q0 140 -42 209.5t-133 69.5q-38 0 -72.5 -16t-60.5 -45t-41.5 -68.5t-15.5 -87.5v-349h-91v600q0 18 3.5 27.5
t13.5 14t28 5.5t46 1v-116q32 52 85.5 87t130.5 35q117 0 182 -88.5t65 -278.5z" />
    <glyph glyph-name="eng" unicode="&#x14b;" horiz-adv-x="576" 
d="M518 200q0 -78 -14.5 -146.5t-41.5 -119.5t-65 -80t-85 -29q-11 0 -23.5 2.5t-22.5 8t-16.5 15t-6.5 24.5v31q9 -3 18 -4t19 -1q37 0 64.5 24t45.5 65t26.5 95t8.5 114q0 106 -31 159.5t-100 53.5q-24 0 -49 -10t-45 -30t-33 -49t-13 -68v-255h-85v437q0 18 3 27.5t12 14
t25.5 5.5t44.5 1v-89q32 48 76.5 71.5t91.5 23.5q95 0 145.5 -72t50.5 -219z" />
    <glyph glyph-name="Omacron" unicode="&#x14c;" horiz-adv-x="714" 
d="M509 739h-295v78h295v-78zM661 341q0 -74 -22.5 -138.5t-63 -111.5t-96.5 -74t-123 -27q-66 0 -122 27t-96 74t-62.5 111.5t-22.5 138.5t22 132t62 98.5t95.5 61.5t123.5 21t124.5 -21t96.5 -61.5t62 -98.5t22 -132zM565 341q0 111 -56.5 170t-152.5 59q-47 0 -85 -15.5
t-65 -45t-41.5 -72t-14.5 -96.5q0 -58 15 -106.5t42 -83.5t65 -54.5t84 -19.5t84.5 19t66.5 53.5t43 83t15 108.5z" />
    <glyph glyph-name="omacron" unicode="&#x14d;" horiz-adv-x="554" 
d="M434 608h-295v78h295v-78zM509 250q0 -57 -16.5 -105t-47 -82.5t-73.5 -53.5t-95 -19q-53 0 -95.5 19t-72.5 53.5t-46.5 82.5t-16.5 105q0 115 61 178t170 63t170.5 -63t61.5 -178zM419 250q0 72 -34.5 118t-107.5 46q-37 0 -63.5 -12t-44 -34t-25.5 -52t-8 -66t9 -68.5
t26.5 -57.5t44 -40t61.5 -15t61.5 15t44.5 40t27 57.5t9 68.5z" />
    <glyph glyph-name="Obreve" unicode="&#x14e;" horiz-adv-x="714" 
d="M360 701q-38 0 -66.5 11t-47.5 29t-28.5 41t-9.5 48q0 23 14 31t37 8q0 -23 8.5 -39t23 -27t32.5 -16t37 -5t37 5t32 16t23 27t9 39q23 0 37.5 -8t14.5 -31q0 -25 -9.5 -48t-28.5 -41t-48 -29t-67 -11zM661 341q0 -74 -22.5 -138.5t-63 -111.5t-96.5 -74t-123 -27
q-66 0 -122 27t-96 74t-62.5 111.5t-22.5 138.5t22 132t62 98.5t95.5 61.5t123.5 21t124.5 -21t96.5 -61.5t62 -98.5t22 -132zM565 341q0 111 -56.5 170t-152.5 59q-47 0 -85 -15.5t-65 -45t-41.5 -72t-14.5 -96.5q0 -58 15 -106.5t42 -83.5t65 -54.5t84 -19.5t84.5 19
t66.5 53.5t43 83t15 108.5z" />
    <glyph glyph-name="obreve" unicode="&#x14f;" horiz-adv-x="554" 
d="M509 250q0 -57 -16.5 -105t-47 -82.5t-73.5 -53.5t-95 -19q-53 0 -95.5 19t-72.5 53.5t-46.5 82.5t-16.5 105q0 115 61 178t170 63t170.5 -63t61.5 -178zM419 250q0 72 -34.5 118t-107.5 46q-37 0 -63.5 -12t-44 -34t-25.5 -52t-8 -66t9 -68.5t26.5 -57.5t44 -40
t61.5 -15t61.5 15t44.5 40t27 57.5t9 68.5zM276 570q-38 0 -66.5 11t-47.5 29t-28.5 41t-9.5 48q0 23 14 31t37 8q0 -23 8.5 -39t23 -27t32.5 -16t37 -5t37 5t32 16t23 27t9 39q23 0 37.5 -8t14.5 -31q0 -25 -9.5 -48t-28.5 -41t-48 -29t-67 -11z" />
    <glyph glyph-name="Ohungarumlaut" unicode="&#x150;" horiz-adv-x="714" 
d="M661 341q0 -74 -22.5 -138.5t-63 -111.5t-96.5 -74t-123 -27q-66 0 -122 27t-96 74t-62.5 111.5t-22.5 138.5t22 132t62 98.5t95.5 61.5t123.5 21t124.5 -21t96.5 -61.5t62 -98.5t22 -132zM565 341q0 111 -56.5 170t-152.5 59q-47 0 -85 -15.5t-65 -45t-41.5 -72
t-14.5 -96.5q0 -58 15 -106.5t42 -83.5t65 -54.5t84 -19.5t84.5 19t66.5 53.5t43 83t15 108.5zM300 692h-50l-4 12l51 221q29 -3 57 -15.5t51 -29.5zM466 692h-50l-4 12l51 221q29 -3 57 -15.5t51 -29.5z" />
    <glyph glyph-name="ohungarumlaut" unicode="&#x151;" horiz-adv-x="554" 
d="M223 561h-50l-4 12l51 221q29 -3 57 -15.5t51 -29.5zM389 561h-50l-4 12l51 221q29 -3 57 -15.5t51 -29.5zM509 250q0 -57 -16.5 -105t-47 -82.5t-73.5 -53.5t-95 -19q-53 0 -95.5 19t-72.5 53.5t-46.5 82.5t-16.5 105q0 115 61 178t170 63t170.5 -63t61.5 -178zM419 250
q0 72 -34.5 118t-107.5 46q-37 0 -63.5 -12t-44 -34t-25.5 -52t-8 -66t9 -68.5t26.5 -57.5t44 -40t61.5 -15t61.5 15t44.5 40t27 57.5t9 68.5z" />
    <glyph glyph-name="OE" unicode="&#x152;" horiz-adv-x="1010" 
d="M656 271v-111q0 -38 17.5 -55.5t58.5 -17.5h227v-87h-242q-74 0 -108 24.5t-41 83.5q-38 -57 -97 -87.5t-133 -30.5q-60 0 -112.5 25.5t-90.5 71.5t-60 108.5t-22 136.5q0 77 23 137t63 101t93 62.5t113 21.5q71 0 127 -25.5t94 -76.5v44q0 18 3 27.5t13 14t27.5 5.5
t46.5 1h263q25 0 29.5 -22t4.5 -65h-297v-204h243v-82h-243zM563 332q0 116 -55 177t-152 61q-96 0 -151 -61t-55 -177q0 -58 14.5 -105t41.5 -80.5t65 -51.5t85 -18t85.5 18t65.5 51.5t41.5 80.5t14.5 105z" />
    <glyph glyph-name="oe" unicode="&#x153;" horiz-adv-x="907" 
d="M831 62q0 -20 -13 -33.5t-34 -22t-48 -12.5t-55 -4q-70 0 -123.5 30t-82.5 90q-29 -57 -80.5 -88.5t-117.5 -31.5q-52 0 -94.5 18.5t-73 52t-47 81t-16.5 105.5q0 57 17 102.5t48 77t73 48t93 16.5q68 0 119 -29t80 -83q28 52 78 82t116 30q48 0 84.5 -16t62 -44.5
t38.5 -68.5t13 -89q0 -20 -7 -33.5t-18.5 -21.5t-26.5 -11t-30 -3h-253q12 -66 56 -100t126 -34q30 0 59.5 6t56.5 17v-31zM285 413q-37 0 -64.5 -12.5t-46 -35t-28 -52.5t-9.5 -66t9.5 -68.5t28 -56.5t46 -38.5t64.5 -14.5t64.5 14.5t46 38.5t28 56.5t9.5 68.5t-9.5 66
t-28 52.5t-46 35t-64.5 12.5zM663 417q-34 0 -58.5 -11.5t-41 -31t-25 -46t-9.5 -56.5h216q18 0 25 11.5t7 21.5q0 56 -33 84t-81 28z" />
    <glyph glyph-name="Racute" unicode="&#x154;" horiz-adv-x="605" 
d="M527 452q0 -78 -40.5 -128t-114.5 -73l101 -130q23 -31 47 -41t55 -10h16v-18q0 -17 -7 -28.5t-18.5 -19t-25.5 -11t-28 -3.5q-15 0 -29 2.5t-28 10.5t-29 23t-32 40l-110 155h-114v-221h-91v596q0 18 3.5 27.5t13.5 14t28 5.5t46 1h123q48 0 90.5 -12.5t74.5 -37
t50.5 -60.5t18.5 -82zM431 438q0 33 -12.5 56.5t-34 38t-50 21.5t-59.5 7h-105v-256h115q29 0 55.5 9t46.5 26t32 41.5t12 56.5zM224 692h-10l-24 45l174 142q22 -21 37 -48t21 -54z" />
    <glyph glyph-name="racute" unicode="&#x155;" horiz-adv-x="350" 
d="M159 561h-10l-24 45l174 142q22 -21 37 -48t21 -54zM69 0v437q0 18 3 27.5t12 14t25.5 5.5t44.5 1v-96q29 55 65 78.5t71 23.5q26 0 34 -19.5t4 -70.5q-84 4 -129 -41t-45 -124v-236h-85z" />
    <glyph glyph-name="Rcommaaccent" unicode="&#x156;" horiz-adv-x="605" 
d="M359 -121q0 -35 -23.5 -59.5t-62.5 -24.5q-21 0 -41 8.5t-20 31.5v22q19 -8 34 -8q20 0 31 11.5t11 31.5q0 12 -6.5 22.5t-12.5 17.5l16 12q9 7 22 4.5t24.5 -12t19.5 -24.5t8 -33zM527 452q0 -78 -40.5 -128t-114.5 -73l101 -130q23 -31 47 -41t55 -10h16v-18
q0 -17 -7 -28.5t-18.5 -19t-25.5 -11t-28 -3.5q-15 0 -29 2.5t-28 10.5t-29 23t-32 40l-110 155h-114v-221h-91v596q0 18 3.5 27.5t13.5 14t28 5.5t46 1h123q48 0 90.5 -12.5t74.5 -37t50.5 -60.5t18.5 -82zM431 438q0 33 -12.5 56.5t-34 38t-50 21.5t-59.5 7h-105v-256h115
q29 0 55.5 9t46.5 26t32 41.5t12 56.5z" />
    <glyph glyph-name="rcommaaccent" unicode="&#x157;" horiz-adv-x="350" 
d="M166 -121q0 -35 -23.5 -59.5t-62.5 -24.5q-21 0 -41 8.5t-20 31.5v22q19 -8 34 -8q20 0 31 11.5t11 31.5q0 12 -6.5 22.5t-12.5 17.5l16 12q9 7 22 4.5t24.5 -12t19.5 -24.5t8 -33zM69 0v437q0 18 3 27.5t12 14t25.5 5.5t44.5 1v-96q29 55 65 78.5t71 23.5q26 0 34 -19.5
t4 -70.5q-84 4 -129 -41t-45 -124v-236h-85z" />
    <glyph glyph-name="Rcaron" unicode="&#x158;" horiz-adv-x="605" 
d="M527 452q0 -78 -40.5 -128t-114.5 -73l101 -130q23 -31 47 -41t55 -10h16v-18q0 -17 -7 -28.5t-18.5 -19t-25.5 -11t-28 -3.5q-15 0 -29 2.5t-28 10.5t-29 23t-32 40l-110 155h-114v-221h-91v596q0 18 3.5 27.5t13.5 14t28 5.5t46 1h123q48 0 90.5 -12.5t74.5 -37
t50.5 -60.5t18.5 -82zM431 438q0 33 -12.5 56.5t-34 38t-50 21.5t-59.5 7h-105v-256h115q29 0 55.5 9t46.5 26t32 41.5t12 56.5zM370 714q-38 -8 -86 -8t-86 8l-82 117l35 35h10l123 -95l123 95h10l34 -35z" />
    <glyph glyph-name="rcaron" unicode="&#x159;" horiz-adv-x="350" 
d="M69 0v437q0 18 3 27.5t12 14t25.5 5.5t44.5 1v-96q29 55 65 78.5t71 23.5q26 0 34 -19.5t4 -70.5q-84 4 -129 -41t-45 -124v-236h-85zM285 582q-38 -8 -86 -8t-86 8l-82 117l35 35h10l123 -95l123 95h10l34 -35z" />
    <glyph glyph-name="Sacute" unicode="&#x15a;" horiz-adv-x="520" 
d="M451 178q0 -47 -18 -82t-48 -58.5t-69.5 -35.5t-82.5 -12q-29 0 -57 4.5t-50 15t-35 28t-13 43.5v37q32 -17 71 -27.5t81 -10.5q24 0 47 5t40 15.5t27.5 26.5t10.5 39q0 31 -22.5 49.5t-56 32t-73 26.5t-73 34.5t-56 55t-22.5 87.5q0 48 17 85.5t47 64t71 40t90 13.5
q41 0 76.5 -10.5t61.5 -28.5t41 -42.5t15 -52.5q0 -39 -18 -55t-41 -16h-25v22q0 40 -30 68.5t-87 28.5q-55 0 -89 -27.5t-34 -72.5q0 -39 22.5 -61.5t56.5 -38t73 -28.5t73 -32t56.5 -49.5t22.5 -80.5zM224 692h-10l-24 45l174 142q22 -21 37 -48t21 -54z" />
    <glyph glyph-name="sacute" unicode="&#x15b;" horiz-adv-x="416" 
d="M168 561h-10l-24 45l174 142q22 -21 37 -48t21 -54zM367 138q0 -37 -14.5 -65t-38.5 -46.5t-55.5 -27.5t-65.5 -9q-23 0 -44.5 4t-38 13t-26.5 23t-10 34v34q56 -28 115 -28q38 0 64.5 15t26.5 41q0 24 -17.5 37t-44 22t-57.5 17.5t-57.5 23.5t-44 40.5t-17.5 67.5
q0 34 13 63t37 50t58 32.5t75 11.5q34 0 62.5 -8.5t48.5 -23.5t31 -34t11 -40q0 -29 -13.5 -42t-32.5 -13h-23v17q0 27 -22.5 47t-64.5 20q-44 0 -68.5 -19.5t-24.5 -45.5q0 -29 17.5 -44.5t44 -25.5t57.5 -18.5t57.5 -22.5t44 -37t17.5 -63z" />
    <glyph glyph-name="Scircumflex" unicode="&#x15c;" horiz-adv-x="520" 
d="M451 178q0 -47 -18 -82t-48 -58.5t-69.5 -35.5t-82.5 -12q-29 0 -57 4.5t-50 15t-35 28t-13 43.5v37q32 -17 71 -27.5t81 -10.5q24 0 47 5t40 15.5t27.5 26.5t10.5 39q0 31 -22.5 49.5t-56 32t-73 26.5t-73 34.5t-56 55t-22.5 87.5q0 48 17 85.5t47 64t71 40t90 13.5
q41 0 76.5 -10.5t61.5 -28.5t41 -42.5t15 -52.5q0 -39 -18 -55t-41 -16h-25v22q0 40 -30 68.5t-87 28.5q-55 0 -89 -27.5t-34 -72.5q0 -39 22.5 -61.5t56.5 -38t73 -28.5t73 -32t56.5 -49.5t22.5 -80.5zM408 704h-10l-123 95l-123 -95h-10l-35 36l82 117q38 7 86 7t86 -7
l81 -117z" />
    <glyph glyph-name="scircumflex" unicode="&#x15d;" horiz-adv-x="416" 
d="M367 138q0 -37 -14.5 -65t-38.5 -46.5t-55.5 -27.5t-65.5 -9q-23 0 -44.5 4t-38 13t-26.5 23t-10 34v34q56 -28 115 -28q38 0 64.5 15t26.5 41q0 24 -17.5 37t-44 22t-57.5 17.5t-57.5 23.5t-44 40.5t-17.5 67.5q0 34 13 63t37 50t58 32.5t75 11.5q34 0 62.5 -8.5
t48.5 -23.5t31 -34t11 -40q0 -29 -13.5 -42t-32.5 -13h-23v17q0 27 -22.5 47t-64.5 20q-44 0 -68.5 -19.5t-24.5 -45.5q0 -29 17.5 -44.5t44 -25.5t57.5 -18.5t57.5 -22.5t44 -37t17.5 -63zM357 572h-10l-123 95l-123 -95h-10l-35 36l82 117q38 7 86 7t86 -7l81 -117z" />
    <glyph glyph-name="Scedilla" unicode="&#x15e;" horiz-adv-x="520" 
d="M335 -130q0 -15 -5 -28.5t-13.5 -24t-19 -17t-21.5 -6.5q-10 0 -18 5l-15 8q6 9 10 17.5t4 19.5q0 44 -76 56q2 20 9 45.5t16 45.5q-26 2 -49 7.5t-40.5 16.5t-28 27t-10.5 39v37q32 -17 71 -27.5t81 -10.5q24 0 47 5t40 15.5t27.5 26.5t10.5 39q0 31 -22.5 49.5t-56 32
t-73 26.5t-73 34.5t-56 55t-22.5 87.5q0 48 17 85.5t47 64t71 40t90 13.5q41 0 76.5 -10.5t61.5 -28.5t41 -42.5t15 -52.5q0 -39 -18 -55t-41 -16h-25v22q0 40 -30 68.5t-87 28.5q-55 0 -89 -27.5t-34 -72.5q0 -39 22.5 -61.5t56.5 -38t73 -28.5t73 -32t56.5 -49.5
t22.5 -80.5q0 -44 -15.5 -77.5t-42 -57t-62 -36.5t-75.5 -16q-6 -13 -9 -31q38 -10 63 -30.5t25 -59.5z" />
    <glyph glyph-name="scedilla" unicode="&#x15f;" horiz-adv-x="416" 
d="M291 -130q0 -15 -5 -28.5t-13.5 -24t-19 -17t-22.5 -6.5q-9 0 -17 5l-15 8q6 9 10 17.5t4 19.5q0 44 -76 56q2 20 8.5 46t16.5 46q-37 5 -62.5 22t-25.5 50v34q56 -28 115 -28q38 0 64.5 15t26.5 41q0 24 -17.5 37t-44 22t-57.5 17.5t-57.5 23.5t-44 40.5t-17.5 67.5
q0 34 13 63t37 50t58 32.5t75 11.5q34 0 62.5 -8.5t48.5 -23.5t31 -34t11 -40q0 -29 -13.5 -42t-32.5 -13h-23v17q0 27 -22.5 47t-64.5 20q-44 0 -68.5 -19.5t-24.5 -45.5q0 -29 17.5 -44.5t44 -25.5t57.5 -18.5t57.5 -22.5t44 -37t17.5 -63q0 -35 -12.5 -61t-34 -44.5
t-49.5 -28.5t-59 -13q-2 -8 -4.5 -15.5t-4.5 -15.5q38 -10 63 -30.5t25 -59.5z" />
    <glyph glyph-name="Scaron" unicode="&#x160;" horiz-adv-x="520" 
d="M451 178q0 -47 -18 -82t-48 -58.5t-69.5 -35.5t-82.5 -12q-29 0 -57 4.5t-50 15t-35 28t-13 43.5v37q32 -17 71 -27.5t81 -10.5q24 0 47 5t40 15.5t27.5 26.5t10.5 39q0 31 -22.5 49.5t-56 32t-73 26.5t-73 34.5t-56 55t-22.5 87.5q0 48 17 85.5t47 64t71 40t90 13.5
q41 0 76.5 -10.5t61.5 -28.5t41 -42.5t15 -52.5q0 -39 -18 -55t-41 -16h-25v22q0 40 -30 68.5t-87 28.5q-55 0 -89 -27.5t-34 -72.5q0 -39 22.5 -61.5t56.5 -38t73 -28.5t73 -32t56.5 -49.5t22.5 -80.5zM355 714q-38 -8 -86 -8t-86 8l-82 117l35 35h10l123 -95l123 95h10
l34 -35z" />
    <glyph glyph-name="scaron" unicode="&#x161;" horiz-adv-x="416" 
d="M367 138q0 -37 -14.5 -65t-38.5 -46.5t-55.5 -27.5t-65.5 -9q-23 0 -44.5 4t-38 13t-26.5 23t-10 34v34q56 -28 115 -28q38 0 64.5 15t26.5 41q0 24 -17.5 37t-44 22t-57.5 17.5t-57.5 23.5t-44 40.5t-17.5 67.5q0 34 13 63t37 50t58 32.5t75 11.5q34 0 62.5 -8.5
t48.5 -23.5t31 -34t11 -40q0 -29 -13.5 -42t-32.5 -13h-23v17q0 27 -22.5 47t-64.5 20q-44 0 -68.5 -19.5t-24.5 -45.5q0 -29 17.5 -44.5t44 -25.5t57.5 -18.5t57.5 -22.5t44 -37t17.5 -63zM308 582q-38 -8 -86 -8t-86 8l-82 117l35 35h10l123 -95l123 95h10l34 -35z" />
    <glyph glyph-name="Tcommaaccent" unicode="&#x162;" horiz-adv-x="565" 
d="M237 0v556h-207v88h471q25 0 29.5 -22.5t4.5 -65.5h-208v-556h-90zM333 -121q0 -35 -23.5 -59.5t-62.5 -24.5q-21 0 -41 8.5t-20 31.5v22q19 -8 34 -8q20 0 31 11.5t11 31.5q0 12 -6.5 22.5t-12.5 17.5l16 12q9 7 22 4.5t24.5 -12t19.5 -24.5t8 -33z" />
    <glyph glyph-name="Tcommaaccent" unicode="&#x21a;" horiz-adv-x="565" 
d="M237 0v556h-207v88h471q25 0 29.5 -22.5t4.5 -65.5h-208v-556h-90zM333 -121q0 -35 -23.5 -59.5t-62.5 -24.5q-21 0 -41 8.5t-20 31.5v22q19 -8 34 -8q20 0 31 11.5t11 31.5q0 12 -6.5 22.5t-12.5 17.5l16 12q9 7 22 4.5t24.5 -12t19.5 -24.5t8 -33z" />
    <glyph glyph-name="tcommaaccent" unicode="&#x163;" horiz-adv-x="402" 
d="M175 404v-198q0 -68 21.5 -102t77.5 -34q51 0 92 22v-31q0 -21 -13 -34.5t-31.5 -22t-40 -11.5t-38.5 -3q-33 0 -60.5 8.5t-48 30.5t-32 59.5t-11.5 96.5v223l-71 27q1 11 5 24.5t12 21.5h54v63q0 18 2.5 27.5t11.5 14t25.5 5.5t44.5 1v-111h164q24 0 28 -18t4 -59h-196z
M279 -121q0 -35 -23.5 -59.5t-62.5 -24.5q-21 0 -41 8.5t-20 31.5v22q19 -8 34 -8q20 0 31 11.5t11 31.5q0 12 -6.5 22.5t-12.5 17.5l16 12q9 7 22 4.5t24.5 -12t19.5 -24.5t8 -33z" />
    <glyph glyph-name="tcommaaccent" unicode="&#x21b;" horiz-adv-x="402" 
d="M175 404v-198q0 -68 21.5 -102t77.5 -34q51 0 92 22v-31q0 -21 -13 -34.5t-31.5 -22t-40 -11.5t-38.5 -3q-33 0 -60.5 8.5t-48 30.5t-32 59.5t-11.5 96.5v223l-71 27q1 11 5 24.5t12 21.5h54v63q0 18 2.5 27.5t11.5 14t25.5 5.5t44.5 1v-111h164q24 0 28 -18t4 -59h-196z
M279 -121q0 -35 -23.5 -59.5t-62.5 -24.5q-21 0 -41 8.5t-20 31.5v22q19 -8 34 -8q20 0 31 11.5t11 31.5q0 12 -6.5 22.5t-12.5 17.5l16 12q9 7 22 4.5t24.5 -12t19.5 -24.5t8 -33z" />
    <glyph glyph-name="Tcaron" unicode="&#x164;" horiz-adv-x="565" 
d="M237 0v556h-207v88h471q25 0 29.5 -22.5t4.5 -65.5h-208v-556h-90zM370 714q-38 -8 -86 -8t-86 8l-82 117l35 35h10l123 -95l123 95h10l34 -35z" />
    <glyph glyph-name="tcaron" unicode="&#x165;" horiz-adv-x="402" 
d="M175 404v-198q0 -68 21.5 -102t77.5 -34q51 0 92 22v-31q0 -21 -13 -34.5t-31.5 -22t-40 -11.5t-38.5 -3q-33 0 -60.5 8.5t-48 30.5t-32 59.5t-11.5 96.5v223l-71 27q1 11 5 24.5t12 21.5h54v63q0 18 2.5 27.5t11.5 14t25.5 5.5t44.5 1v-111h164q24 0 28 -18t4 -59h-196z
M273 534h-48l-4 11l12 204q29 3 60 -5t55 -21z" />
    <glyph glyph-name="Tbar" unicode="&#x166;" horiz-adv-x="565" 
d="M327 556v-195h123v-79h-123v-282h-90v282h-123v79h123v195h-207v88h471q25 0 29.5 -22.5t4.5 -65.5h-208z" />
    <glyph glyph-name="tbar" unicode="&#x167;" horiz-adv-x="402" 
d="M175 404v-110h140v-66h-140v-22q0 -68 21.5 -102t77.5 -34q51 0 92 22v-31q0 -21 -13 -34.5t-31.5 -22t-40 -11.5t-38.5 -3q-33 0 -60.5 8.5t-48 30.5t-32 59.5t-11.5 96.5v43h-62v66h62v114l-71 27q1 11 5 24.5t12 21.5h54v63q0 18 2.5 27.5t11.5 14t25.5 5.5t44.5 1
v-111h164q24 0 28 -18t4 -59h-196z" />
    <glyph glyph-name="Utilde" unicode="&#x168;" horiz-adv-x="670" 
d="M516 806q0 -40 -27.5 -68t-69.5 -28q-23 0 -41.5 9t-35.5 20t-32.5 20t-32.5 9t-30.5 -15.5t-13.5 -43.5q-28 0 -42 11t-14 37q0 40 27.5 66t69.5 26q23 0 41.5 -9t35 -20t32.5 -20t33 -9t30 16t13 43q29 0 43 -9t14 -35zM593 264q0 -73 -21.5 -125t-57.5 -85t-83 -48.5
t-99 -15.5t-98 17t-81 51.5t-55.5 86t-20.5 119.5v336q0 18 3.5 27.5t13.5 14t28 5.5t46 1v-372q0 -56 12 -94t33.5 -61.5t51.5 -34t67 -10.5t68.5 10.5t54 34t35.5 61.5t13 94v368h90v-380z" />
    <glyph glyph-name="utilde" unicode="&#x169;" horiz-adv-x="545" 
d="M477 199q0 -56 -16.5 -95.5t-45 -64.5t-66.5 -37t-80 -12t-79 12t-64 37t-43 64.5t-16 95.5v238q0 18 3 27.5t12 14t25.5 5.5t44.5 1v-270q0 -72 28.5 -107t88.5 -35q124 0 124 142v266h84v-282zM455 675q0 -40 -27.5 -68t-69.5 -28q-23 0 -41.5 9t-35.5 20t-32.5 20
t-32.5 9t-30.5 -15.5t-13.5 -43.5q-28 0 -42 11t-14 37q0 40 27.5 66t69.5 26q23 0 41.5 -9t35 -20t32.5 -20t33 -9t30 16t13 43q29 0 43 -9t14 -35z" />
    <glyph glyph-name="Umacron" unicode="&#x16a;" horiz-adv-x="670" 
d="M490 739h-295v78h295v-78zM593 264q0 -73 -21.5 -125t-57.5 -85t-83 -48.5t-99 -15.5t-98 17t-81 51.5t-55.5 86t-20.5 119.5v336q0 18 3.5 27.5t13.5 14t28 5.5t46 1v-372q0 -56 12 -94t33.5 -61.5t51.5 -34t67 -10.5t68.5 10.5t54 34t35.5 61.5t13 94v368h90v-380z" />
    <glyph glyph-name="umacron" unicode="&#x16b;" horiz-adv-x="545" 
d="M477 199q0 -56 -16.5 -95.5t-45 -64.5t-66.5 -37t-80 -12t-79 12t-64 37t-43 64.5t-16 95.5v238q0 18 3 27.5t12 14t25.5 5.5t44.5 1v-270q0 -72 28.5 -107t88.5 -35q124 0 124 142v266h84v-282zM425 608h-295v78h295v-78z" />
    <glyph glyph-name="Ubreve" unicode="&#x16c;" horiz-adv-x="670" 
d="M343 701q-38 0 -66.5 11t-47.5 29t-28.5 41t-9.5 48q0 23 14 31t37 8q0 -23 8.5 -39t23 -27t32.5 -16t37 -5t37 5t32 16t23 27t9 39q23 0 37.5 -8t14.5 -31q0 -25 -9.5 -48t-28.5 -41t-48 -29t-67 -11zM593 264q0 -73 -21.5 -125t-57.5 -85t-83 -48.5t-99 -15.5t-98 17
t-81 51.5t-55.5 86t-20.5 119.5v336q0 18 3.5 27.5t13.5 14t28 5.5t46 1v-372q0 -56 12 -94t33.5 -61.5t51.5 -34t67 -10.5t68.5 10.5t54 34t35.5 61.5t13 94v368h90v-380z" />
    <glyph glyph-name="ubreve" unicode="&#x16d;" horiz-adv-x="545" 
d="M477 199q0 -56 -16.5 -95.5t-45 -64.5t-66.5 -37t-80 -12t-79 12t-64 37t-43 64.5t-16 95.5v238q0 18 3 27.5t12 14t25.5 5.5t44.5 1v-270q0 -72 28.5 -107t88.5 -35q124 0 124 142v266h84v-282zM278 570q-38 0 -66.5 11t-47.5 29t-28.5 41t-9.5 48q0 23 14 31t37 8
q0 -23 8.5 -39t23 -27t32.5 -16t37 -5t37 5t32 16t23 27t9 39q23 0 37.5 -8t14.5 -31q0 -25 -9.5 -48t-28.5 -41t-48 -29t-67 -11z" />
    <glyph glyph-name="Uring" unicode="&#x16e;" horiz-adv-x="670" 
d="M593 264q0 -73 -21.5 -125t-57.5 -85t-83 -48.5t-99 -15.5t-98 17t-81 51.5t-55.5 86t-20.5 119.5v336q0 18 3.5 27.5t13.5 14t28 5.5t46 1v-372q0 -56 12 -94t33.5 -61.5t51.5 -34t67 -10.5t68.5 10.5t54 34t35.5 61.5t13 94v368h90v-380zM440 779q0 -45 -28.5 -72.5
t-73.5 -27.5q-44 0 -72 27.5t-28 72.5q0 44 28 71.5t72 27.5q45 0 73.5 -27.5t28.5 -71.5zM381 779q0 20 -12 31t-31 11q-18 0 -29.5 -11t-11.5 -31t12 -32t29 -12q19 0 31 12t12 32z" />
    <glyph glyph-name="uring" unicode="&#x16f;" horiz-adv-x="545" 
d="M378 648q0 -45 -28.5 -72.5t-73.5 -27.5q-44 0 -72 27.5t-28 72.5q0 44 28 71.5t72 27.5q45 0 73.5 -27.5t28.5 -71.5zM319 648q0 20 -12 31t-31 11q-18 0 -29.5 -11t-11.5 -31t12 -32t29 -12q19 0 31 12t12 32zM477 199q0 -56 -16.5 -95.5t-45 -64.5t-66.5 -37t-80 -12
t-79 12t-64 37t-43 64.5t-16 95.5v238q0 18 3 27.5t12 14t25.5 5.5t44.5 1v-270q0 -72 28.5 -107t88.5 -35q124 0 124 142v266h84v-282z" />
    <glyph glyph-name="Uhungarumlaut" unicode="&#x170;" horiz-adv-x="670" 
d="M593 264q0 -73 -21.5 -125t-57.5 -85t-83 -48.5t-99 -15.5t-98 17t-81 51.5t-55.5 86t-20.5 119.5v336q0 18 3.5 27.5t13.5 14t28 5.5t46 1v-372q0 -56 12 -94t33.5 -61.5t51.5 -34t67 -10.5t68.5 10.5t54 34t35.5 61.5t13 94v368h90v-380zM281 692h-50l-4 12l51 221
q29 -3 57 -15.5t51 -29.5zM447 692h-50l-4 12l51 221q29 -3 57 -15.5t51 -29.5z" />
    <glyph glyph-name="uhungarumlaut" unicode="&#x171;" horiz-adv-x="545" 
d="M477 199q0 -56 -16.5 -95.5t-45 -64.5t-66.5 -37t-80 -12t-79 12t-64 37t-43 64.5t-16 95.5v238q0 18 3 27.5t12 14t25.5 5.5t44.5 1v-270q0 -72 28.5 -107t88.5 -35q124 0 124 142v266h84v-282zM217 561h-50l-4 12l51 221q29 -3 57 -15.5t51 -29.5zM383 561h-50l-4 12
l51 221q29 -3 57 -15.5t51 -29.5z" />
    <glyph glyph-name="Uogonek" unicode="&#x172;" horiz-adv-x="670" 
d="M466 -160q0 -12 -7 -20.5t-19 -14t-27 -8t-31 -2.5q-38 0 -62 21t-24 63q0 32 16 60.5t39 51.5q-5 -1 -9.5 -1h-9.5q-52 0 -98 17t-81 51.5t-55.5 86t-20.5 119.5v336q0 18 3.5 27.5t13.5 14t28 5.5t46 1v-372q0 -56 12 -94t33.5 -61.5t51.5 -34t67 -10.5t68.5 10.5
t54 34t35.5 61.5t13 94v368h90v-380q0 -94 -34 -153t-88 -88q-18 -12 -35.5 -26t-32 -29.5t-23.5 -32.5t-9 -34q0 -29 13.5 -40t36.5 -11q22 0 45 9v-19z" />
    <glyph glyph-name="uogonek" unicode="&#x173;" horiz-adv-x="545" 
d="M390 -160q0 -12 -7 -20.5t-19 -14t-27 -8t-31 -2.5q-38 0 -62 22t-24 61q0 31 14.5 60t35.5 52h-1q-42 0 -79 12t-64 37t-43 64.5t-16 95.5v238q0 18 3 27.5t12 14t25.5 5.5t44.5 1v-270q0 -72 28.5 -107t88.5 -35q124 0 124 142v266h84v-282q0 -77 -30.5 -123.5
t-79.5 -67.5q-34 -23 -53 -50.5t-19 -57.5q0 -26 13.5 -38t36.5 -12q22 0 45 9v-19z" />
    <glyph glyph-name="Wcircumflex" unicode="&#x174;" horiz-adv-x="929" 
d="M897 644q-18 -82 -42 -168t-51.5 -169.5t-57 -159t-56.5 -136.5q-21 -9 -39.5 -12.5t-41.5 -5.5l-131 476q-35 -128 -78 -247t-83 -211q-22 -9 -40.5 -12.5t-41.5 -5.5l-196 639v12h105l136 -505q20 52 39.5 106t37 105.5t32.5 100.5t26 91q6 24 8 46t-3 36
q26 15 52 20.5t55 7.5l130 -504q21 58 41 122t38.5 128.5t34.5 127t27 118.5h99zM619 704h-10l-123 95l-123 -95h-10l-35 36l82 117q38 7 86 7t86 -7l81 -117z" />
    <glyph glyph-name="wcircumflex" unicode="&#x175;" horiz-adv-x="766" 
d="M583 13q-43 -17 -89 -20l-104 367q-26 -90 -57.5 -175t-67.5 -172q-23 -9 -45 -13.5t-46 -6.5l-147 479v9h100l98 -372q35 88 60.5 158.5t44.5 136.5q5 18 7 34.5t-3 27.5q21 11 50 16t53 5l106 -379q35 100 62 193.5t44 179.5h93q-32 -126 -71.5 -239.5t-87.5 -228.5z
M528 572h-10l-123 95l-123 -95h-10l-35 36l82 117q38 7 86 7t86 -7l81 -117z" />
    <glyph glyph-name="Ycircumflex" unicode="&#x176;" horiz-adv-x="606" 
d="M258 0v207l-230 425v12h100l180 -339q51 82 94 167t76 172h108q-29 -63 -56.5 -120t-56 -109.5t-59.5 -103t-66 -101.5v-210h-90zM444 704h-10l-123 95l-123 -95h-10l-35 36l82 117q38 7 86 7t86 -7l81 -117z" />
    <glyph glyph-name="ycircumflex" unicode="&#x177;" horiz-adv-x="513" 
d="M496 469l-172 -463q-12 -98 -53.5 -139.5t-99.5 -41.5q-32 0 -54.5 12.5t-22.5 43.5v31q25 -6 43 -6q38 0 64 21.5t34 68.5q-67 123 -120.5 245t-94.5 240h102q29 -95 71 -193t84 -184l126 377h93v-12zM402 572h-10l-123 95l-123 -95h-10l-35 36l82 117q38 7 86 7t86 -7
l81 -117z" />
    <glyph glyph-name="Ydieresis" unicode="&#x178;" horiz-adv-x="606" 
d="M258 0v207l-230 425v12h100l180 -339q51 82 94 167t76 172h108q-29 -63 -56.5 -120t-56 -109.5t-59.5 -103t-66 -101.5v-210h-90zM284 778q0 -58 -58 -58q-31 0 -44.5 14.5t-13.5 43.5q0 27 13.5 42.5t44.5 15.5q30 0 44 -15.5t14 -42.5zM460 778q0 -58 -57 -58
q-32 0 -45 14.5t-13 43.5q0 27 13 42.5t45 15.5q29 0 43 -15.5t14 -42.5z" />
    <glyph glyph-name="Zacute" unicode="&#x179;" horiz-adv-x="575" 
d="M46 0q-2 21 0.5 45.5t10.5 41.5l345 469h-354q0 45 4 66.5t29 21.5h446q2 -21 -0.5 -45.5t-10.5 -41.5l-345 -469h349v-88h-474zM257 692h-10l-24 45l174 142q22 -21 37 -48t21 -54z" />
    <glyph glyph-name="zacute" unicode="&#x17a;" horiz-adv-x="458" 
d="M202 561h-10l-24 45l174 142q22 -21 37 -48t21 -54zM27 0q-2 17 0.5 36t7.5 31l265 337h-251q0 41 4 59t27 18h340q2 -17 -0.5 -36t-7.5 -31l-266 -337h278v-77h-397z" />
    <glyph glyph-name="Zdotaccent" unicode="&#x17b;" horiz-adv-x="575" 
d="M345 778q0 -55 -55 -55q-29 0 -41.5 14t-12.5 41q0 26 12.5 40.5t41.5 14.5t42 -14.5t13 -40.5zM46 0q-2 21 0.5 45.5t10.5 41.5l345 469h-354q0 45 4 66.5t29 21.5h446q2 -21 -0.5 -45.5t-10.5 -41.5l-345 -469h349v-88h-474z" />
    <glyph glyph-name="zdotaccent" unicode="&#x17c;" horiz-adv-x="458" 
d="M27 0q-2 17 0.5 36t7.5 31l265 337h-251q0 41 4 59t27 18h340q2 -17 -0.5 -36t-7.5 -31l-266 -337h278v-77h-397zM295 647q0 -56 -55 -56q-29 0 -41.5 14.5t-12.5 41.5q0 26 12.5 40.5t41.5 14.5t42 -14.5t13 -40.5z" />
    <glyph glyph-name="Zcaron" unicode="&#x17d;" horiz-adv-x="575" 
d="M46 0q-2 21 0.5 45.5t10.5 41.5l345 469h-354q0 45 4 66.5t29 21.5h446q2 -21 -0.5 -45.5t-10.5 -41.5l-345 -469h349v-88h-474zM388 714q-38 -8 -86 -8t-86 8l-82 117l35 35h10l123 -95l123 95h10l34 -35z" />
    <glyph glyph-name="zcaron" unicode="&#x17e;" horiz-adv-x="458" 
d="M27 0q-2 17 0.5 36t7.5 31l265 337h-251q0 41 4 59t27 18h340q2 -17 -0.5 -36t-7.5 -31l-266 -337h278v-77h-397zM329 582q-38 -8 -86 -8t-86 8l-82 117l35 35h10l123 -95l123 95h10l34 -35z" />
    <glyph glyph-name="florin" unicode="&#x192;" horiz-adv-x="511" 
d="M175 -165v423l-105 26q1 14 5 28t12 22h88v52q0 42 11.5 77.5t34 62t55 41.5t73.5 15q12 0 25 -2.5t24 -9t18 -17t7 -26.5v-30q-8 3 -20.5 5t-22.5 2q-66 0 -93.5 -34t-27.5 -100v-36h142q23 0 27 -18t4 -59h-173v-422h-84z" />
    <glyph glyph-name="Scommaaccent" unicode="&#x218;" horiz-adv-x="520" 
d="M451 178q0 -47 -18 -82t-48 -58.5t-69.5 -35.5t-82.5 -12q-29 0 -57 4.5t-50 15t-35 28t-13 43.5v37q32 -17 71 -27.5t81 -10.5q24 0 47 5t40 15.5t27.5 26.5t10.5 39q0 31 -22.5 49.5t-56 32t-73 26.5t-73 34.5t-56 55t-22.5 87.5q0 48 17 85.5t47 64t71 40t90 13.5
q41 0 76.5 -10.5t61.5 -28.5t41 -42.5t15 -52.5q0 -39 -18 -55t-41 -16h-25v22q0 40 -30 68.5t-87 28.5q-55 0 -89 -27.5t-34 -72.5q0 -39 22.5 -61.5t56.5 -38t73 -28.5t73 -32t56.5 -49.5t22.5 -80.5zM303 -121q0 -35 -23.5 -59.5t-62.5 -24.5q-21 0 -41 8.5t-20 31.5v22
q19 -8 34 -8q20 0 31 11.5t11 31.5q0 12 -6.5 22.5t-12.5 17.5l16 12q9 7 22 4.5t24.5 -12t19.5 -24.5t8 -33z" />
    <glyph glyph-name="scommaaccent" unicode="&#x219;" horiz-adv-x="416" 
d="M367 138q0 -37 -14.5 -65t-38.5 -46.5t-55.5 -27.5t-65.5 -9q-23 0 -44.5 4t-38 13t-26.5 23t-10 34v34q56 -28 115 -28q38 0 64.5 15t26.5 41q0 24 -17.5 37t-44 22t-57.5 17.5t-57.5 23.5t-44 40.5t-17.5 67.5q0 34 13 63t37 50t58 32.5t75 11.5q34 0 62.5 -8.5
t48.5 -23.5t31 -34t11 -40q0 -29 -13.5 -42t-32.5 -13h-23v17q0 27 -22.5 47t-64.5 20q-44 0 -68.5 -19.5t-24.5 -45.5q0 -29 17.5 -44.5t44 -25.5t57.5 -18.5t57.5 -22.5t44 -37t17.5 -63zM263 -121q0 -35 -23.5 -59.5t-62.5 -24.5q-21 0 -41 8.5t-20 31.5v22q19 -8 34 -8
q20 0 31 11.5t11 31.5q0 12 -6.5 22.5t-12.5 17.5l16 12q9 7 22 4.5t24.5 -12t19.5 -24.5t8 -33z" />
    <glyph glyph-name="circumflex" unicode="&#x2c6;" horiz-adv-x="501" 
d="M383 572h-10l-123 95l-123 -95h-10l-35 36l82 117q38 7 86 7t86 -7l81 -117z" />
    <glyph glyph-name="circumflex" unicode="&#x302;" horiz-adv-x="501" 
d="M383 572h-10l-123 95l-123 -95h-10l-35 36l82 117q38 7 86 7t86 -7l81 -117z" />
    <glyph glyph-name="caron" unicode="&#x2c7;" horiz-adv-x="501" 
d="M336 582q-38 -8 -86 -8t-86 8l-82 117l35 35h10l123 -95l123 95h10l34 -35z" />
    <glyph glyph-name="caron" unicode="&#x30c;" horiz-adv-x="501" 
d="M336 582q-38 -8 -86 -8t-86 8l-82 117l35 35h10l123 -95l123 95h10l34 -35z" />
    <glyph glyph-name="breve" unicode="&#x2d8;" horiz-adv-x="501" 
d="M250 570q-38 0 -66.5 11t-47.5 29t-28.5 41t-9.5 48q0 23 14 31t37 8q0 -23 8.5 -39t23 -27t32.5 -16t37 -5t37 5t32 16t23 27t9 39q23 0 37.5 -8t14.5 -31q0 -25 -9.5 -48t-28.5 -41t-48 -29t-67 -11z" />
    <glyph glyph-name="breve" unicode="&#x306;" horiz-adv-x="501" 
d="M250 570q-38 0 -66.5 11t-47.5 29t-28.5 41t-9.5 48q0 23 14 31t37 8q0 -23 8.5 -39t23 -27t32.5 -16t37 -5t37 5t32 16t23 27t9 39q23 0 37.5 -8t14.5 -31q0 -25 -9.5 -48t-28.5 -41t-48 -29t-67 -11z" />
    <glyph glyph-name="dotaccent" unicode="&#x2d9;" horiz-adv-x="501" 
d="M305 647q0 -56 -55 -56q-29 0 -41.5 14.5t-12.5 41.5q0 26 12.5 40.5t41.5 14.5t42 -14.5t13 -40.5z" />
    <glyph glyph-name="dotaccent" unicode="&#x307;" horiz-adv-x="501" 
d="M305 647q0 -56 -55 -56q-29 0 -41.5 14.5t-12.5 41.5q0 26 12.5 40.5t41.5 14.5t42 -14.5t13 -40.5z" />
    <glyph glyph-name="ring" unicode="&#x2da;" horiz-adv-x="501" 
d="M351 648q0 -45 -28.5 -72.5t-73.5 -27.5q-44 0 -72 27.5t-28 72.5q0 44 28 71.5t72 27.5q45 0 73.5 -27.5t28.5 -71.5zM292 648q0 20 -12 31t-31 11q-18 0 -29.5 -11t-11.5 -31t12 -32t29 -12q19 0 31 12t12 32z" />
    <glyph glyph-name="ring" unicode="&#x30a;" horiz-adv-x="501" 
d="M351 648q0 -45 -28.5 -72.5t-73.5 -27.5q-44 0 -72 27.5t-28 72.5q0 44 28 71.5t72 27.5q45 0 73.5 -27.5t28.5 -71.5zM292 648q0 20 -12 31t-31 11q-18 0 -29.5 -11t-11.5 -31t12 -32t29 -12q19 0 31 12t12 32z" />
    <glyph glyph-name="ogonek" unicode="&#x2db;" horiz-adv-x="501" 
d="M335 -160q0 -12 -7 -20.5t-19 -14t-27 -8t-31 -2.5q-38 0 -62 20.5t-24 58.5q0 28 14.5 55.5t34.5 49t42 34.5t36 13q10 0 17 -10l11 -16q-37 -25 -58.5 -49.5t-21.5 -54.5q0 -24 13.5 -35t36.5 -11q22 0 45 9v-19z" />
    <glyph glyph-name="ogonek" unicode="&#x328;" horiz-adv-x="501" 
d="M335 -160q0 -12 -7 -20.5t-19 -14t-27 -8t-31 -2.5q-38 0 -62 20.5t-24 58.5q0 28 14.5 55.5t34.5 49t42 34.5t36 13q10 0 17 -10l11 -16q-37 -25 -58.5 -49.5t-21.5 -54.5q0 -24 13.5 -35t36.5 -11q22 0 45 9v-19z" />
    <glyph glyph-name="tilde" unicode="&#x2dc;" horiz-adv-x="501" 
d="M420 675q0 -40 -27.5 -68t-69.5 -28q-23 0 -41.5 9t-35.5 20t-32.5 20t-32.5 9t-30.5 -15.5t-13.5 -43.5q-28 0 -42 11t-14 37q0 40 27.5 66t69.5 26q23 0 41.5 -9t35 -20t32.5 -20t33 -9t30 16t13 43q29 0 43 -9t14 -35z" />
    <glyph glyph-name="tilde" unicode="&#x303;" horiz-adv-x="501" 
d="M420 675q0 -40 -27.5 -68t-69.5 -28q-23 0 -41.5 9t-35.5 20t-32.5 20t-32.5 9t-30.5 -15.5t-13.5 -43.5q-28 0 -42 11t-14 37q0 40 27.5 66t69.5 26q23 0 41.5 -9t35 -20t32.5 -20t33 -9t30 16t13 43q29 0 43 -9t14 -35z" />
    <glyph glyph-name="hungarumlaut" unicode="&#x2dd;" horiz-adv-x="501" 
d="M142 561h-50l-4 12l51 221q29 -3 57 -15.5t51 -29.5zM308 561h-50l-4 12l51 221q29 -3 57 -15.5t51 -29.5z" />
    <glyph glyph-name="hungarumlaut" unicode="&#x30b;" horiz-adv-x="501" 
d="M142 561h-50l-4 12l51 221q29 -3 57 -15.5t51 -29.5zM308 561h-50l-4 12l51 221q29 -3 57 -15.5t51 -29.5z" />
    <glyph glyph-name="uni0326" unicode="&#x326;" horiz-adv-x="501" 
d="M324 -121q0 -35 -23.5 -59.5t-62.5 -24.5q-21 0 -41 8.5t-20 31.5v22q19 -8 34 -8q20 0 31 11.5t11 31.5q0 12 -6.5 22.5t-12.5 17.5l16 12q9 7 22 4.5t24.5 -12t19.5 -24.5t8 -33z" />
    <glyph glyph-name="Delta" unicode="&#x394;" horiz-adv-x="661" 
d="M43 0q-1 20 1.5 42.5t7.5 39.5q22 64 46 123t49.5 116.5t53.5 114t58 115.5q21 42 11 68q26 16 54.5 23.5t57.5 9.5l247 -570q-16 -49 -49 -82h-537zM338 522q-52 -103 -98 -209.5t-86 -221.5h358z" />
    <glyph glyph-name="Delta" unicode="&#x2206;" horiz-adv-x="661" 
d="M43 0q-1 20 1.5 42.5t7.5 39.5q22 64 46 123t49.5 116.5t53.5 114t58 115.5q21 42 11 68q26 16 54.5 23.5t57.5 9.5l247 -570q-16 -49 -49 -82h-537zM338 522q-52 -103 -98 -209.5t-86 -221.5h358z" />
    <glyph glyph-name="Omega" unicode="&#x3a9;" horiz-adv-x="740" 
d="M406 0q-2 22 0.5 47.5t10.5 42.5q34 25 62.5 56.5t49 66.5t32 73t11.5 76q0 95 -50 150.5t-146 55.5q-48 0 -85.5 -15.5t-64 -43t-40.5 -65t-14 -82.5q0 -40 12 -80t33 -75t49.5 -64.5t62.5 -48.5q-2 -26 -8.5 -49.5t-17.5 -44.5h-227v91h120q-63 59 -93.5 131.5
t-30.5 147.5q0 61 20.5 113.5t59.5 90t95.5 59t128.5 21.5t127 -21.5t93 -59t57.5 -90t19.5 -113.5q0 -73 -35 -146t-100 -133h130v-91h-262z" />
    <glyph glyph-name="Omega" unicode="&#x2126;" horiz-adv-x="740" 
d="M406 0q-2 22 0.5 47.5t10.5 42.5q34 25 62.5 56.5t49 66.5t32 73t11.5 76q0 95 -50 150.5t-146 55.5q-48 0 -85.5 -15.5t-64 -43t-40.5 -65t-14 -82.5q0 -40 12 -80t33 -75t49.5 -64.5t62.5 -48.5q-2 -26 -8.5 -49.5t-17.5 -44.5h-227v91h120q-63 59 -93.5 131.5
t-30.5 147.5q0 61 20.5 113.5t59.5 90t95.5 59t128.5 21.5t127 -21.5t93 -59t57.5 -90t19.5 -113.5q0 -73 -35 -146t-100 -133h130v-91h-262z" />
    <glyph glyph-name="pi" unicode="&#x3c0;" horiz-adv-x="612" 
d="M123 0v389h-93v92h521q13 0 20.5 -4.5t11.5 -15t4.5 -28t0.5 -44.5h-122v-275q0 -18 8.5 -33t35.5 -15q23 0 42 7v-33q0 -15 -8 -24.5t-20 -15t-26.5 -8t-26.5 -2.5q-26 0 -42.5 9.5t-26 25t-13.5 36.5t-4 45v283h-181v-389h-81z" />
    <glyph glyph-name="Wgrave" unicode="&#x1e80;" horiz-adv-x="929" 
d="M343 777q6 27 21 54t37 48l174 -142l-24 -45h-10zM897 644q-18 -82 -42 -168t-51.5 -169.5t-57 -159t-56.5 -136.5q-21 -9 -39.5 -12.5t-41.5 -5.5l-131 476q-35 -128 -78 -247t-83 -211q-22 -9 -40.5 -12.5t-41.5 -5.5l-196 639v12h105l136 -505q20 52 39.5 106
t37 105.5t32.5 100.5t26 91q6 24 8 46t-3 36q26 15 52 20.5t55 7.5l130 -504q21 58 41 122t38.5 128.5t34.5 127t27 118.5h99z" />
    <glyph glyph-name="wgrave" unicode="&#x1e81;" horiz-adv-x="766" 
d="M583 13q-43 -17 -89 -20l-104 367q-26 -90 -57.5 -175t-67.5 -172q-23 -9 -45 -13.5t-46 -6.5l-147 479v9h100l98 -372q35 88 60.5 158.5t44.5 136.5q5 18 7 34.5t-3 27.5q21 11 50 16t53 5l106 -379q35 100 62 193.5t44 179.5h93q-32 -126 -71.5 -239.5t-87.5 -228.5z
M241 646q6 27 21 54t37 48l174 -142l-24 -45h-10z" />
    <glyph glyph-name="Wacute" unicode="&#x1e82;" horiz-adv-x="929" 
d="M414 692h-10l-24 45l174 142q22 -21 37 -48t21 -54zM897 644q-18 -82 -42 -168t-51.5 -169.5t-57 -159t-56.5 -136.5q-21 -9 -39.5 -12.5t-41.5 -5.5l-131 476q-35 -128 -78 -247t-83 -211q-22 -9 -40.5 -12.5t-41.5 -5.5l-196 639v12h105l136 -505q20 52 39.5 106
t37 105.5t32.5 100.5t26 91q6 24 8 46t-3 36q26 15 52 20.5t55 7.5l130 -504q21 58 41 122t38.5 128.5t34.5 127t27 118.5h99z" />
    <glyph glyph-name="wacute" unicode="&#x1e83;" horiz-adv-x="766" 
d="M337 561h-10l-24 45l174 142q22 -21 37 -48t21 -54zM583 13q-43 -17 -89 -20l-104 367q-26 -90 -57.5 -175t-67.5 -172q-23 -9 -45 -13.5t-46 -6.5l-147 479v9h100l98 -372q35 88 60.5 158.5t44.5 136.5q5 18 7 34.5t-3 27.5q21 11 50 16t53 5l106 -379q35 100 62 193.5
t44 179.5h93q-32 -126 -71.5 -239.5t-87.5 -228.5z" />
    <glyph glyph-name="Wdieresis" unicode="&#x1e84;" horiz-adv-x="929" 
d="M457 778q0 -58 -58 -58q-31 0 -44.5 14.5t-13.5 43.5q0 27 13.5 42.5t44.5 15.5q30 0 44 -15.5t14 -42.5zM633 778q0 -58 -57 -58q-32 0 -45 14.5t-13 43.5q0 27 13 42.5t45 15.5q29 0 43 -15.5t14 -42.5zM897 644q-18 -82 -42 -168t-51.5 -169.5t-57 -159t-56.5 -136.5
q-21 -9 -39.5 -12.5t-41.5 -5.5l-131 476q-35 -128 -78 -247t-83 -211q-22 -9 -40.5 -12.5t-41.5 -5.5l-196 639v12h105l136 -505q20 52 39.5 106t37 105.5t32.5 100.5t26 91q6 24 8 46t-3 36q26 15 52 20.5t55 7.5l130 -504q21 58 41 122t38.5 128.5t34.5 127t27 118.5h99z
" />
    <glyph glyph-name="wdieresis" unicode="&#x1e85;" horiz-adv-x="766" 
d="M362 647q0 -58 -58 -58q-31 0 -44.5 14.5t-13.5 43.5q0 27 13.5 42.5t44.5 15.5q30 0 44 -15.5t14 -42.5zM538 647q0 -58 -57 -58q-32 0 -45 14.5t-13 43.5q0 27 13 42.5t45 15.5q29 0 43 -15.5t14 -42.5zM583 13q-43 -17 -89 -20l-104 367q-26 -90 -57.5 -175
t-67.5 -172q-23 -9 -45 -13.5t-46 -6.5l-147 479v9h100l98 -372q35 88 60.5 158.5t44.5 136.5q5 18 7 34.5t-3 27.5q21 11 50 16t53 5l106 -379q35 100 62 193.5t44 179.5h93q-32 -126 -71.5 -239.5t-87.5 -228.5z" />
    <glyph glyph-name="Ygrave" unicode="&#x1ef2;" horiz-adv-x="606" 
d="M258 0v207l-230 425v12h100l180 -339q51 82 94 167t76 172h108q-29 -63 -56.5 -120t-56 -109.5t-59.5 -103t-66 -101.5v-210h-90zM167 777q6 27 21 54t37 48l174 -142l-24 -45h-10z" />
    <glyph glyph-name="ygrave" unicode="&#x1ef3;" horiz-adv-x="513" 
d="M496 469l-172 -463q-12 -98 -53.5 -139.5t-99.5 -41.5q-32 0 -54.5 12.5t-22.5 43.5v31q25 -6 43 -6q38 0 64 21.5t34 68.5q-67 123 -120.5 245t-94.5 240h102q29 -95 71 -193t84 -184l126 377h93v-12zM121 646q6 27 21 54t37 48l174 -142l-24 -45h-10z" />
    <glyph glyph-name="uni2007" unicode="&#x2007;" horiz-adv-x="511" 
 />
    <glyph glyph-name="endash" unicode="&#x2013;" horiz-adv-x="522" 
d="M486 227h-450v79h450v-79z" />
    <glyph glyph-name="emdash" unicode="&#x2014;" horiz-adv-x="949" 
d="M913 227h-877v79h877v-79z" />
    <glyph glyph-name="quoteleft" unicode="&#x2018;" horiz-adv-x="222" 
d="M109 664q7 12 12.5 17.5t13.5 5.5t18.5 -3.5t27.5 -9.5q-17 -64 -23.5 -124.5t-10.5 -126.5h-103q5 72 22.5 133t42.5 108z" />
    <glyph glyph-name="quoteright" unicode="&#x2019;" horiz-adv-x="222" 
d="M113 443q-7 -12 -12.5 -17.5t-13.5 -5.5t-18.5 3.5t-27.5 9.5q17 64 23.5 124.5t10.5 126.5h103q-5 -72 -22.5 -133t-42.5 -108z" />
    <glyph glyph-name="quotesinglbase" unicode="&#x201a;" horiz-adv-x="222" 
d="M116 -127q-7 -12 -12.5 -18t-13.5 -6t-18.5 4t-27.5 10q17 64 23.5 124.5t10.5 126.5h103q-5 -72 -22.5 -133t-42.5 -108z" />
    <glyph glyph-name="quotedblleft" unicode="&#x201c;" horiz-adv-x="405" 
d="M292 664q6 12 11.5 17.5t14.5 5.5q7 0 18 -3.5t28 -9.5q-17 -64 -24 -124.5t-11 -126.5h-103q5 72 23 133t43 108zM109 664q7 12 12.5 17.5t13.5 5.5t18.5 -3.5t27.5 -9.5q-17 -64 -23.5 -124.5t-10.5 -126.5h-103q5 72 22.5 133t42.5 108z" />
    <glyph glyph-name="quotedblright" unicode="&#x201d;" horiz-adv-x="405" 
d="M295 443q-6 -12 -11.5 -17.5t-14.5 -5.5q-7 0 -18 3.5t-28 9.5q17 64 24 124.5t11 126.5h103q-5 -72 -23 -133t-43 -108zM113 443q-7 -12 -12.5 -17.5t-13.5 -5.5t-18.5 3.5t-27.5 9.5q17 64 23.5 124.5t10.5 126.5h103q-5 -72 -22.5 -133t-42.5 -108z" />
    <glyph glyph-name="quotedblbase" unicode="&#x201e;" horiz-adv-x="405" 
d="M298 -127q-6 -12 -11.5 -18t-14.5 -6q-7 0 -18 4t-28 10q17 64 24 124.5t11 126.5h103q-5 -72 -23 -133t-43 -108zM116 -127q-7 -12 -12.5 -18t-13.5 -6t-18.5 4t-27.5 10q17 64 23.5 124.5t10.5 126.5h103q-5 -72 -22.5 -133t-42.5 -108z" />
    <glyph glyph-name="dagger" unicode="&#x2020;" horiz-adv-x="411" 
d="M178 492l-14 208q19 4 41 4t41 -4l-16 -209l131 14q4 -14 4 -37.5t-4 -37.5l-131 12l16 -300q-19 -4 -41 -4t-41 4l14 300l-128 -12q-4 14 -4 37.5t4 37.5z" />
    <glyph glyph-name="daggerdbl" unicode="&#x2021;" horiz-adv-x="411" 
d="M178 500l-14 200q19 4 41 4t41 -4l-16 -201l131 15q4 -15 4 -38t-4 -38l-117 12l-13 -277l130 14q4 -15 4 -38t-4 -38l-131 14l16 -173q-19 -4 -41 -4t-41 4l14 173l-128 -14q-4 15 -4 38t4 38l128 -13l-13 276l-115 -12q-4 15 -4 38t4 38z" />
    <glyph glyph-name="bullet" unicode="&#x2022;" horiz-adv-x="464" 
d="M233 158q-85 0 -123 41t-38 119q0 75 38 117t123 42q81 0 120 -42t39 -117q0 -78 -39 -119t-120 -41z" />
    <glyph glyph-name="ellipsis" unicode="&#x2026;" horiz-adv-x="783" 
d="M131 -8q-36 0 -52.5 18t-16.5 52q0 32 16.5 50.5t52.5 18.5q34 0 50.5 -18.5t16.5 -50.5q0 -70 -67 -70zM392 -8q-36 0 -52.5 18t-16.5 52q0 32 16.5 50.5t52.5 18.5q34 0 50.5 -18.5t16.5 -50.5q0 -70 -67 -70zM653 -8q-36 0 -52 18t-16 52q0 32 16 50.5t52 18.5
q34 0 50.5 -18.5t16.5 -50.5q0 -70 -67 -70z" />
    <glyph glyph-name="perthousand" unicode="&#x2030;" horiz-adv-x="1192" 
d="M1171 211q0 -44 -10 -83.5t-30 -70t-50 -48.5t-70 -18q-41 0 -71 18t-50 48.5t-29.5 70t-9.5 83.5q0 43 9.5 79t29.5 61.5t50 39.5t71 14q40 0 70 -14t50 -39.5t30 -61.5t10 -79zM1091 211q0 57 -17.5 92t-62.5 35t-62.5 -36t-17.5 -91q0 -28 4 -55.5t13.5 -49t24.5 -35
t38 -13.5q22 0 37.5 13t25 34.5t13.5 49t4 56.5zM810 211q0 -44 -10 -83.5t-30 -70t-50 -48.5t-70 -18q-41 0 -71 18t-49.5 48.5t-29.5 70t-10 83.5q0 43 9.5 79t29.5 61.5t50 39.5t71 14q40 0 70 -14t50 -39.5t30 -61.5t10 -79zM730 211q0 57 -17.5 92t-62.5 35t-62.5 -36
t-17.5 -91q0 -28 4 -55.5t13.5 -49t24.5 -35t38 -13.5q22 0 37.5 13t25 34.5t13.5 49t4 56.5zM272 -40h-82l371 752h82zM340 467q0 -44 -10 -83.5t-30 -70t-50 -48.5t-70 -18q-41 0 -70.5 18t-49.5 48.5t-29.5 70t-9.5 83.5q0 43 9.5 79t29.5 61.5t49.5 39.5t70.5 14
q40 0 70 -14t50 -39.5t30 -61.5t10 -79zM261 467q0 57 -17.5 92t-63.5 35q-45 0 -62.5 -36t-17.5 -91q0 -28 4 -55.5t13.5 -49t24.5 -35t38 -13.5t38.5 13t25 34.5t13.5 49t4 56.5z" />
    <glyph glyph-name="guilsinglleft" unicode="&#x2039;" horiz-adv-x="320" 
d="M185 123q-19 11 -40 29.5t-39 41.5t-30 50t-12 55q0 30 12 55t30 45.5t39 36.5t40 27h67v-12q-36 -33 -60 -71t-24 -81q0 -44 24 -87.5t60 -76.5v-12h-67z" />
    <glyph glyph-name="guilsinglright" unicode="&#x203a;" horiz-adv-x="320" 
d="M68 123v12q36 33 60 76.5t24 87.5q0 43 -24 81t-60 71v12h66q19 -11 40.5 -27t39.5 -36.5t30 -45.5t12 -55q0 -28 -12 -55t-30 -50t-39.5 -41.5t-40.5 -29.5h-66z" />
    <glyph glyph-name="fraction" unicode="&#x2044;" horiz-adv-x="159" 
d="M-130 -40l337 684h82l-337 -684h-82z" />
    <glyph glyph-name="uni2070" unicode="&#x2070;" 
d="M340 589q0 -44 -10 -83.5t-30 -70t-50 -48.5t-70 -18q-41 0 -70.5 18t-49.5 48.5t-29.5 70t-9.5 83.5q0 43 9.5 79t29.5 61.5t49.5 39.5t70.5 14q40 0 70 -14t50 -39.5t30 -61.5t10 -79zM261 589q0 57 -17.5 92t-63.5 35q-45 0 -62.5 -36t-17.5 -91q0 -28 4 -55.5
t13.5 -49t24.5 -35t38 -13.5t38.5 13t25 34.5t13.5 49t4 56.5z" />
    <glyph glyph-name="uni2071" unicode="&#x2071;" horiz-adv-x="163" 
d="M46 378v301q0 15 2 22.5t9.5 11.5t21.5 4.5t38 0.5v-340h-71zM132 828q0 -24 -11 -35.5t-37 -11.5t-36.5 11.5t-10.5 35.5q0 23 10.5 35t36.5 12t37 -12t11 -35z" />
    <glyph glyph-name="uni2074" unicode="&#x2074;" 
d="M281 455v-77h-73v77h-191q-2 15 1 33.5t8 29.5q47 65 85.5 131t72.5 129h79v-7q-37 -69 -75.5 -129.5t-83.5 -122.5h104v56q0 25 17 29t56 4v-89h61v-64h-61z" />
    <glyph glyph-name="uni2075" unicode="&#x2075;" 
d="M322 500q0 -32 -13.5 -56.5t-36.5 -41t-52.5 -25t-62.5 -8.5q-57 0 -87 17.5t-30 49.5v26q23 -11 51 -17.5t57 -6.5q18 0 35 4t30.5 11.5t21.5 18.5t8 25q0 29 -27 40.5t-75 11.5q-14 0 -34.5 -2t-37.5 -7q-7 13 -11.5 24.5t-7.5 25.5l7 187h237q18 0 21 -15t3 -54h-203
l-6 -102q25 3 49 3q164 0 164 -109z" />
    <glyph glyph-name="uni2076" unicode="&#x2076;" 
d="M334 505q0 -32 -11.5 -57t-31.5 -42.5t-47 -27t-58 -9.5q-40 0 -69.5 15t-49 40t-29 58.5t-9.5 70.5q0 49 13.5 91t38.5 73t61 48.5t81 17.5q49 0 81 -22t32 -60q0 -22 -13.5 -33.5t-35.5 -11.5h-14v15q0 20 -14.5 32.5t-40.5 12.5q-25 0 -45.5 -12.5t-34.5 -33.5
t-22 -47t-8 -53v-15q20 23 51 37.5t65 14.5q47 0 78.5 -25.5t31.5 -76.5zM255 493q0 25 -16.5 37.5t-43.5 12.5q-26 0 -48.5 -14t-22.5 -41q0 -23 17 -38t45 -15q30 0 49.5 16t19.5 42z" />
    <glyph glyph-name="uni2077" unicode="&#x2077;" 
d="M328 708q-25 -45 -46 -84t-39.5 -78t-36.5 -79.5t-38 -88.5h-87v7q39 91 80.5 167.5t89.5 155.5h-216q0 36 3 52.5t20 16.5h278q2 -15 -0.5 -34t-7.5 -35z" />
    <glyph glyph-name="uni2078" unicode="&#x2078;" 
d="M330 484q0 -27 -11.5 -48.5t-31.5 -36.5t-47.5 -22.5t-58.5 -7.5q-32 0 -59 7.5t-47.5 22.5t-32 36.5t-11.5 48.5q0 35 22.5 59t60.5 36q-38 13 -59.5 37.5t-21.5 56.5q0 29 12.5 50t33 34.5t47 19.5t55.5 6q28 0 55 -6t47 -19.5t32.5 -34.5t12.5 -50q0 -32 -21.5 -56.5
t-59.5 -37.5q38 -12 60.5 -36t22.5 -59zM250 489q0 20 -18 36.5t-51 16.5q-34 0 -52 -16.5t-18 -36.5t18 -37t52 -17q33 0 51 17t18 37zM248 665q0 23 -17 37.5t-50 14.5q-34 0 -51 -16t-17 -36t18 -39t50 -19t49.5 18.5t17.5 39.5z" />
    <glyph glyph-name="uni2079" unicode="&#x2079;" 
d="M332 599q0 -49 -14.5 -91t-41.5 -73t-65.5 -48.5t-85.5 -17.5q-15 0 -30 2t-27 7.5t-19.5 16t-7.5 28.5v25q17 -6 36.5 -8.5t36.5 -2.5q33 0 59 11t43.5 30.5t27 45t9.5 55.5v6q-45 -55 -115 -55q-48 0 -79.5 26.5t-31.5 82.5q0 32 11.5 58.5t31.5 45.5t47 29.5t57 10.5
q40 0 70 -14.5t49.5 -39.5t29 -58.5t9.5 -71.5zM237 659q0 25 -17 41.5t-46 16.5t-48.5 -17t-19.5 -46q0 -26 16 -41.5t45 -15.5q26 0 48 15.5t22 46.5z" />
    <glyph glyph-name="uni207A" unicode="&#x207a;" 
d="M152 393v123h-122v57h122v124h57v-124h122v-57h-122v-123h-57z" />
    <glyph glyph-name="uni207B" unicode="&#x207b;" 
d="M30 516v57h301v-57h-301z" />
    <glyph glyph-name="uni207C" unicode="&#x207c;" 
d="M30 586v56h301v-56h-301zM30 448v56h301v-56h-301z" />
    <glyph glyph-name="uni207D" unicode="&#x207d;" horiz-adv-x="221" 
d="M160 271q-30 43 -51.5 82.5t-36 80t-21 83t-6.5 90.5q0 37 7.5 72.5t20.5 68.5t29.5 62t34.5 53q12 17 28 17t40 -20q-42 -61 -64 -122.5t-22 -130.5q0 -83 21 -158.5t66 -145.5z" />
    <glyph glyph-name="uni207E" unicode="&#x207e;" horiz-adv-x="221" 
d="M175 606q0 -102 -28.5 -182t-64.5 -128q-12 -17 -28 -17q-18 0 -40 21q42 66 64.5 140.5t22.5 165.5q0 34 -5.5 65.5t-17 61.5t-27.5 60.5t-37 62.5l46 32q30 -37 51.5 -70t35.5 -66t21 -68.5t7 -77.5z" />
    <glyph glyph-name="uni207F" unicode="&#x207f;" horiz-adv-x="393" 
d="M353 415q0 -15 -2.5 -23t-10 -12t-21.5 -4.5t-38 -0.5v199q0 40 -18 61.5t-54 21.5q-17 0 -33.5 -6.5t-29.5 -19.5t-21 -32t-8 -44v-177h-71v301q0 15 2 23t9.5 12t21.5 4.5t38 0.5v-62q23 34 55.5 50t68.5 16q54 0 83 -30.5t29 -85.5v-192v0z" />
    <glyph glyph-name="uni2080" unicode="&#x2080;" 
d="M340 69q0 -44 -10 -83.5t-30 -70t-50 -48.5t-70 -18q-41 0 -70.5 18t-49.5 48.5t-29.5 70t-9.5 83.5q0 43 9.5 79t29.5 61.5t49.5 39.5t70.5 14q40 0 70 -14t50 -39.5t30 -61.5t10 -79zM261 69q0 57 -17.5 92t-63.5 35q-45 0 -62.5 -36t-17.5 -91q0 -28 4 -55.5t13.5 -49
t24.5 -35t38 -13.5t38.5 13t25 34.5t13.5 49t4 56.5z" />
    <glyph glyph-name="uni2081" unicode="&#x2081;" 
d="M58 143q16 4 37.5 12.5t41 19t33.5 22t14 22.5v6q0 14 3 22t11 11.5t22.5 4t38.5 0.5v-405h-75v266q-45 -30 -104 -48z" />
    <glyph glyph-name="uni2082" unicode="&#x2082;" 
d="M33 -142q-2 15 0.5 34.5t7.5 34.5q37 18 73.5 38.5t66 45t47.5 53t18 62.5q0 33 -20 50.5t-53 17.5t-53.5 -17.5t-20.5 -43.5v-14h-29q-15 0 -25 11t-10 28q0 23 11.5 42.5t31 33.5t46 21.5t56.5 7.5q65 0 105.5 -33.5t40.5 -93.5q0 -32 -12.5 -61.5t-34 -55.5
t-50.5 -49.5t-61 -43.5h153v-68h-288z" />
    <glyph glyph-name="uni2083" unicode="&#x2083;" 
d="M307 -30q0 -30 -13.5 -53t-35.5 -38t-49 -22.5t-55 -7.5q-53 0 -81.5 17t-28.5 50v24q49 -23 99 -23q35 0 60 13.5t25 43.5q0 14 -8 23t-21.5 14t-30 6.5t-34.5 1.5h-25v63h14q54 0 78 17t24 46q0 25 -18 37.5t-43 12.5q-29 0 -44.5 -14.5t-15.5 -34.5v-15h-26
q-15 0 -26.5 10t-11.5 30q0 23 11.5 40.5t30.5 29t43 17t49 5.5q57 0 94.5 -27.5t37.5 -75.5q0 -35 -19.5 -60.5t-53.5 -40.5q34 -10 54 -31t20 -58z" />
    <glyph glyph-name="uni2084" unicode="&#x2084;" 
d="M281 -65v-77h-73v77h-191q-2 15 1 33.5t8 29.5q47 65 85.5 131t72.5 129h79v-7q-37 -69 -75.5 -129.5t-83.5 -122.5h104v56q0 25 17 29t56 4v-89h61v-64h-61z" />
    <glyph glyph-name="uni2085" unicode="&#x2085;" 
d="M322 -20q0 -32 -13.5 -56.5t-36.5 -41t-52.5 -25t-62.5 -8.5q-57 0 -87 17.5t-30 49.5v26q23 -11 51 -17.5t57 -6.5q18 0 35 4t30.5 11.5t21.5 18.5t8 25q0 29 -27 40.5t-75 11.5q-14 0 -34.5 -2t-37.5 -7q-7 13 -11.5 24.5t-7.5 25.5l7 187h237q18 0 21 -15t3 -54h-203
l-6 -102q25 3 49 3q164 0 164 -109z" />
    <glyph glyph-name="uni2086" unicode="&#x2086;" 
d="M334 -15q0 -32 -11.5 -57t-31.5 -42.5t-47 -27t-58 -9.5q-40 0 -69.5 15t-49 40t-29 58.5t-9.5 70.5q0 49 13.5 91t38.5 73t61 48.5t81 17.5q49 0 81 -22t32 -60q0 -22 -13.5 -33.5t-35.5 -11.5h-14v15q0 20 -14.5 32.5t-40.5 12.5q-25 0 -45.5 -12.5t-34.5 -33.5
t-22 -47t-8 -53v-15q20 23 51 37.5t65 14.5q47 0 78.5 -25.5t31.5 -76.5zM255 -27q0 25 -16.5 37.5t-43.5 12.5q-26 0 -48.5 -14t-22.5 -41q0 -23 17 -38t45 -15q30 0 49.5 16t19.5 42z" />
    <glyph glyph-name="uni2087" unicode="&#x2087;" 
d="M328 188q-25 -45 -46 -84t-39.5 -78t-36.5 -79.5t-38 -88.5h-87v7q39 91 80.5 167.5t89.5 155.5h-216q0 36 3 52.5t20 16.5h278q2 -15 -0.5 -34t-7.5 -35z" />
    <glyph glyph-name="uni2088" unicode="&#x2088;" 
d="M330 -36q0 -27 -11.5 -48.5t-31.5 -36.5t-47.5 -22.5t-58.5 -7.5q-32 0 -59 7.5t-47.5 22.5t-32 36.5t-11.5 48.5q0 35 22.5 59t60.5 36q-38 13 -59.5 37.5t-21.5 56.5q0 29 12.5 50t33 34.5t47 19.5t55.5 6q28 0 55 -6t47 -19.5t32.5 -34.5t12.5 -50q0 -32 -21.5 -56.5
t-59.5 -37.5q38 -12 60.5 -36t22.5 -59zM250 -31q0 20 -18 36.5t-51 16.5q-34 0 -52 -16.5t-18 -36.5t18 -37t52 -17q33 0 51 17t18 37zM248 145q0 23 -17 37.5t-50 14.5q-34 0 -51 -16t-17 -36t18 -39t50 -19t49.5 18.5t17.5 39.5z" />
    <glyph glyph-name="uni2089" unicode="&#x2089;" 
d="M332 79q0 -49 -14.5 -91t-41.5 -73t-65.5 -48.5t-85.5 -17.5q-15 0 -30 2t-27 7.5t-19.5 16t-7.5 28.5v25q17 -6 36.5 -8.5t36.5 -2.5q33 0 59 11t43.5 30.5t27 45t9.5 55.5v6q-45 -55 -115 -55q-48 0 -79.5 26.5t-31.5 82.5q0 32 11.5 58.5t31.5 45.5t47 29.5t57 10.5
q40 0 70 -14.5t49.5 -39.5t29 -58.5t9.5 -71.5zM237 139q0 25 -17 41.5t-46 16.5t-48.5 -17t-19.5 -46q0 -26 16 -41.5t45 -15.5q26 0 48 15.5t22 46.5z" />
    <glyph glyph-name="uni208A" unicode="&#x208a;" 
d="M152 -127v123h-122v57h122v124h57v-124h122v-57h-122v-123h-57z" />
    <glyph glyph-name="uni208B" unicode="&#x208b;" 
d="M30 -4v57h301v-57h-301z" />
    <glyph glyph-name="uni208C" unicode="&#x208c;" 
d="M30 66v56h301v-56h-301zM30 -72v56h301v-56h-301z" />
    <glyph glyph-name="uni208D" unicode="&#x208d;" horiz-adv-x="221" 
d="M160 -249q-30 43 -51.5 82.5t-36 80t-21 83t-6.5 90.5q0 37 7.5 72.5t20.5 68.5t29.5 62t34.5 53q12 17 28 17t40 -20q-42 -61 -64 -122.5t-22 -130.5q0 -83 21 -158.5t66 -145.5z" />
    <glyph glyph-name="uni208E" unicode="&#x208e;" horiz-adv-x="221" 
d="M175 86q0 -102 -28.5 -182t-64.5 -128q-12 -17 -28 -17q-18 0 -40 21q42 66 64.5 140.5t22.5 165.5q0 34 -5.5 65.5t-17 61.5t-27.5 60.5t-37 62.5l46 32q30 -37 51.5 -70t35.5 -66t21 -68.5t7 -77.5z" />
    <glyph glyph-name="Euro" unicode="&#x20ac;" horiz-adv-x="511" 
d="M203 179q19 -56 56.5 -84t91.5 -28q32 0 61.5 7t56.5 20v-31q0 -21 -14 -35t-35.5 -22.5t-47 -12t-47.5 -3.5q-83 0 -140.5 47.5t-80.5 141.5h-78v64h67q-3 27 -3 58h-64v64h68q8 55 29.5 95.5t52.5 67.5t70 40.5t82 13.5q33 0 62.5 -7t52 -20t36 -32t13.5 -44
q0 -32 -14.5 -49.5t-36.5 -17.5h-31v21q0 40 -24 55.5t-56 15.5q-22 0 -44 -6.5t-41.5 -22t-34 -42.5t-20.5 -68h196v-64h-200q0 -31 3 -58h197v-64h-183z" />
    <glyph glyph-name="afii61289" unicode="&#x2113;" horiz-adv-x="366" 
d="M198 -10q-51 0 -75 32t-24 85v41q-39 -9 -83 -9v75q45 0 83 12v279q0 29 6.5 56t21 47.5t37.5 33t55 12.5q60 0 91.5 -42.5t31.5 -122.5q0 -47 -10 -92t-30.5 -85t-50 -73.5t-68.5 -56.5v-51q0 -25 12.5 -43t45.5 -18q10 0 19 1t18 4v-30q0 -15 -7.5 -25.5t-19.5 -17
t-26 -9.5t-27 -3zM183 277q35 36 52.5 88.5t17.5 115.5q0 43 -7 70t-29 27q-11 0 -17.5 -7t-10 -18t-5 -23.5t-1.5 -24.5v-228z" />
    <glyph glyph-name="uni2117" unicode="&#x2117;" horiz-adv-x="636" 
d="M597 278q0 -57 -19.5 -108t-56 -88.5t-88 -59.5t-114.5 -22t-114.5 22t-88 59.5t-56.5 88.5t-20 108t20 108t56.5 88.5t88 59.5t114.5 22t114.5 -22t88 -59.5t56 -88.5t19.5 -108zM538 278q0 47 -15 87.5t-43.5 70.5t-69 47.5t-91.5 17.5t-92 -17.5t-70 -47.5
t-44.5 -70.5t-15.5 -87.5t15.5 -87.5t44.5 -70.5t70 -47.5t92 -17.5t91.5 17.5t69 47.5t43.5 70.5t15 87.5zM439 314q0 -45 -32 -72t-81 -27h-27v-68h-69v229q0 21 18 25t51 4h32q48 0 78 -22t30 -69zM367 313q0 20 -14 27.5t-37 7.5h-17v-78h16q26 0 39 12t13 31z" />
    <glyph glyph-name="trademark" unicode="&#x2122;" horiz-adv-x="597" 
d="M564 465q0 -21 -16 -25t-47 -4v151q-13 -31 -26.5 -60.5t-27.5 -55.5q-14 -5 -29.5 -7t-30.5 -3q-15 29 -28.5 60.5t-25.5 64.5v-148h-64v245q16 8 41 11.5t44 3.5q14 -42 28.5 -80t34.5 -76q18 36 31.5 69.5t28.5 71.5q17 8 42 11.5t45 3.5v-233zM82 438v196h-82v62h213
q14 0 17.5 -15t3.5 -47h-82v-196h-70z" />
    <glyph glyph-name="estimated" unicode="&#x212e;" horiz-adv-x="773" 
d="M675 126q-23 -27 -51 -51t-64 -42.5t-81 -29.5t-102 -11q-68 0 -129.5 22t-108.5 63.5t-75 101t-28 135.5q0 73 29.5 134t79.5 105t115.5 68.5t138.5 24.5q86 0 150.5 -29t107.5 -75.5t64.5 -105.5t21.5 -120v-5h-556l-7 -8v-199q43 -37 94.5 -53t106.5 -16
q40 0 73.5 7.5t61.5 20.5t50 29t39 34h70zM600 362v171q-48 45 -99 57.5t-102 12.5q-26 0 -54 -3.5t-56.5 -12t-56 -23.5t-52.5 -39v-163l7 -8h406z" />
    <glyph glyph-name="arrowleft" unicode="&#x2190;" horiz-adv-x="762" 
d="M276 280l160 -131q-19 -23 -32.5 -37t-26.5 -14q-7 0 -18 9l-252 211l252 212q11 9 18 9q13 0 26.5 -14t32.5 -37l-159 -131h356v-77h-357z" />
    <glyph glyph-name="arrowup" unicode="&#x2191;" horiz-adv-x="762" 
d="M343 67v353l-132 -157q-30 27 -43 44t2 36l211 253l210 -253q15 -19 2 -36t-43 -44l-132 158v-354h-75z" />
    <glyph glyph-name="arrowright" unicode="&#x2192;" horiz-adv-x="762" 
d="M403 107q-11 -9 -18 -9q-13 0 -26.5 14t-32.5 37l160 131h-357v77h357l-160 134q19 23 32.5 36.5t26.5 13.5q8 0 18 -8l252 -215z" />
    <glyph glyph-name="arrowdown" unicode="&#x2193;" horiz-adv-x="762" 
d="M170 296q-15 20 -2 37t43 44l132 -157v353h75v-354l132 158q30 -27 43 -44t-2 -37l-210 -253z" />
    <glyph glyph-name="uni2196" unicode="&#x2196;" horiz-adv-x="762" 
d="M536 105l-266 263l22 -229q-20 -2 -35 -2.5t-25.5 2t-16 9t-6.5 19.5l-34 360l366 -32q25 -2 27 -23t-1 -63l-239 21l267 -264z" />
    <glyph glyph-name="uni2197" unicode="&#x2197;" horiz-adv-x="762" 
d="M553 167q-1 -13 -6.5 -19.5t-16 -9t-25.5 -2t-35 2.5l22 229l-266 -263l-59 61l267 264l-239 -21q-3 42 -1 63t27 23l366 32l-34 -360v0z" />
    <glyph glyph-name="uni2198" unicode="&#x2198;" horiz-adv-x="762" 
d="M221 145q-25 2 -27 22.5t1 62.5l239 -20l-267 264l59 60l266 -262l-22 228q40 4 60.5 1t22.5 -28l34 -360z" />
    <glyph glyph-name="uni2199" unicode="&#x2199;" horiz-adv-x="762" 
d="M567 230q3 -42 1 -62.5t-27 -22.5l-366 -32l34 360q2 25 22.5 28t60.5 -1l-22 -228l266 262l59 -60l-267 -264l239 20v0z" />
    <glyph glyph-name="partialdiff" unicode="&#x2202;" horiz-adv-x="525" 
d="M479 265q0 -62 -16 -113t-45.5 -87t-71 -55.5t-93.5 -19.5q-44 0 -82 14.5t-65.5 43t-43.5 69t-16 93.5q0 48 15.5 85t42 62t61 38t72.5 13q42 0 81 -15.5t68 -46.5q-19 100 -90.5 151.5t-186.5 63.5q6 42 13 58t32 13q90 -12 152 -44.5t100.5 -81t55.5 -110.5t17 -131z
M386 210q0 25 -9 47.5t-25.5 39t-40.5 26t-54 9.5q-60 0 -90 -32.5t-30 -89.5q0 -69 34 -105t88 -36q26 0 49 9t40.5 27t27.5 44t10 61z" />
    <glyph glyph-name="product" unicode="&#x220f;" horiz-adv-x="731" 
d="M652 -58q0 -18 -4 -28t-14.5 -14.5t-28.5 -5t-47 -0.5v591q0 21 -3 35t-12 23t-25 12.5t-43 3.5h-302v-661h-94v698q0 18 4 27.5t14.5 14t29 5.5t46.5 1h384q54 0 74.5 -27t20.5 -80v-595v0z" />
    <glyph glyph-name="summation" unicode="&#x2211;" horiz-adv-x="575" 
d="M33 -106q-2 22 0.5 47.5t10.5 42.5q32 31 65.5 66t66.5 71.5t65 73t60 72.5q-62 84 -131.5 166.5t-132.5 148.5q17 20 35.5 36t41.5 26h390q25 0 29 -19.5t4 -62.5h-356q55 -59 105 -120.5t101 -130.5q2 -21 -0.5 -43t-10.5 -38q-42 -54 -98 -116.5t-122 -128.5h387v-91
h-510z" />
    <glyph glyph-name="minus" unicode="&#x2212;" horiz-adv-x="511" 
d="M41 204v74h429v-74h-429z" />
    <glyph glyph-name="uni2219" unicode="&#x2219;" horiz-adv-x="511" 
d="M256 174q-36 0 -52.5 18t-16.5 52q0 32 16.5 50.5t52.5 18.5q34 0 50.5 -18.5t16.5 -50.5q0 -70 -67 -70z" />
    <glyph glyph-name="radical" unicode="&#x221a;" horiz-adv-x="534" 
d="M344 -62h-94l-112 312h-97v74h158l94 -268l150 617h85z" />
    <glyph glyph-name="infinity" unicode="&#x221e;" horiz-adv-x="672" 
d="M637 251q0 -36 -10 -73.5t-30 -68.5t-51 -50.5t-73 -19.5q-48 0 -84 30.5t-53 83.5q-17 -53 -53 -83.5t-84 -30.5q-42 0 -72.5 19.5t-51 50.5t-30 68.5t-9.5 73.5t9 70.5t28 61.5t48 43.5t69 16.5q52 0 90 -31t56 -84q17 53 55.5 84t90.5 31q40 0 69.5 -16.5t48.5 -43.5
t28 -61.5t9 -70.5zM540 251q0 47 -20 80t-60 33q-20 0 -35 -9t-25 -25t-15 -36.5t-5 -42.5q0 -23 4.5 -46.5t14.5 -43t25 -31.5t35 -12t35 12t25.5 31t15.5 42.5t5 47.5zM292 251q0 22 -5 42.5t-14.5 36.5t-24.5 25t-35 9t-35.5 -9t-25.5 -24.5t-15 -36t-5 -43.5
q0 -24 5 -47.5t15.5 -42.5t26 -31t35.5 -12t34.5 12t24.5 31.5t14.5 43t4.5 46.5z" />
    <glyph glyph-name="integral" unicode="&#x222b;" horiz-adv-x="317" 
d="M200 17q0 -53 -30.5 -85t-78.5 -32q-12 0 -24 2.5t-22 8t-16.5 15t-6.5 24.5v30q9 -3 18 -4t19 -1q27 0 42.5 17.5t15.5 43.5v491q0 53 30.5 85t79.5 32q11 0 23 -2.5t22 -8t16.5 -15t6.5 -24.5v-30q-9 3 -18 4t-19 1q-27 0 -42.5 -17.5t-15.5 -43.5v-491z" />
    <glyph glyph-name="approxequal" unicode="&#x2248;" horiz-adv-x="511" 
d="M413 436q26 0 42.5 -10.5t16.5 -36.5q0 -24 -10 -45t-27 -36t-39 -24t-47 -9q-37 0 -61 13t-43.5 28.5t-38.5 28.5t-44 13q-29 0 -46.5 -22.5t-17.5 -62.5q-25 0 -42 10.5t-17 36.5q0 24 10 45t27 36.5t39 24t47 8.5q37 0 61 -13t43.5 -28.5t38.5 -28.5t45 -13
q29 0 46 22.5t17 62.5zM413 209q26 0 42.5 -10.5t16.5 -36.5q0 -24 -10 -45t-27 -36.5t-39 -24t-47 -8.5q-37 0 -61 13t-43.5 28.5t-38.5 28.5t-44 13q-29 0 -46.5 -22.5t-17.5 -62.5q-25 0 -42 10.5t-17 36.5q0 24 10 45t27 36t39 24t47 9q37 0 61 -13t43.5 -28.5
t38.5 -28.5t45 -13q29 0 46 22.5t17 62.5z" />
    <glyph glyph-name="notequal" unicode="&#x2260;" horiz-adv-x="511" 
d="M330 303l-62 -124h202v-74h-239l-61 -122h-84l61 122h-106v74h143l62 124h-205v74h242l58 116h84l-58 -116h103v-74h-140z" />
    <glyph glyph-name="lessequal" unicode="&#x2264;" horiz-adv-x="511" 
d="M470 0h-429v74h429v-74zM470 380l-336 -103l336 -102v-80l-428 138v89l428 138v-80z" />
    <glyph glyph-name="greaterequal" unicode="&#x2265;" horiz-adv-x="511" 
d="M41 74h429v-74h-429v74zM41 460l428 -138v-89l-428 -138v80l335 102l-335 103v80z" />
    <glyph glyph-name="lozenge" unicode="&#x25ca;" horiz-adv-x="629" 
d="M315 -2l-287 289l287 289l287 -289zM315 465l-180 -178l180 -178l180 178z" />
    <glyph glyph-name="uni266D" unicode="&#x266d;" horiz-adv-x="438" 
d="M381 238q0 -53 -21 -97.5t-57 -76.5t-83.5 -50t-99.5 -18q-23 9 -39 28v648q0 16 2.5 25t9 13.5t18 5t29.5 0.5v-426q23 32 54.5 53t73.5 21q56 0 84.5 -34.5t28.5 -91.5zM290 219q0 29 -11 49t-40 20q-13 0 -30 -9.5t-32.5 -27.5t-26 -44.5t-10.5 -61.5v-85q36 1 64 16
t47 37.5t29 50.5t10 55z" />
    <glyph glyph-name="uni266E" unicode="&#x266e;" horiz-adv-x="438" 
d="M360 6q0 -17 -2.5 -25.5t-9 -13t-18 -5t-29.5 -0.5v213l-179 -118q-22 1 -45 15v600q0 16 2.5 25t9 13.5t18 5t29.5 0.5v-251l179 119q25 -2 45 -16v-562zM301 459l-165 -108v-170l165 109v169z" />
    <glyph glyph-name="uni266F" unicode="&#x266f;" horiz-adv-x="438" 
d="M113 -38v102l-67 -45l-7 4v106l74 49v162l-67 -45l-7 4v106l74 49v135q0 16 2 25t8.5 13.5t18 5t30.5 0.5v-139l95 63v159h59v-119l67 45l7 -4v-106l-74 -50v-161l67 45l7 -4v-106l-74 -50v-117q0 -17 -2.5 -25.5t-9 -13t-18 -5t-29.5 -0.5v122l-95 -64v-141h-59z
M172 218l95 63v162l-95 -64v-161z" />
    <glyph glyph-name="uni2070.aalt" 
d="M340 388q0 -44 -10 -83.5t-30 -70t-50 -48.5t-70 -18q-41 0 -70.5 18t-49.5 48.5t-29.5 70t-9.5 83.5q0 43 9.5 79t29.5 61.5t49.5 39.5t70.5 14q40 0 70 -14t50 -39.5t30 -61.5t10 -79zM261 388q0 57 -17.5 92t-63.5 35q-45 0 -62.5 -36t-17.5 -91q0 -28 4 -55.5
t13.5 -49t24.5 -35t38 -13.5t38.5 13t25 34.5t13.5 49t4 56.5z" />
    <glyph glyph-name="uni00B9.aalt" 
d="M58 462q16 4 37.5 12.5t41 19t33.5 22t14 22.5v6q0 14 3 22t11 11.5t22.5 4t38.5 0.5v-405h-75v266q-45 -30 -104 -48z" />
    <glyph glyph-name="uni00B2.aalt" 
d="M33 177q-2 15 0.5 34.5t7.5 34.5q37 18 73.5 38.5t66 45t47.5 53t18 62.5q0 33 -20 50.5t-53 17.5t-53.5 -17.5t-20.5 -43.5v-14h-29q-15 0 -25 11t-10 28q0 23 11.5 42.5t31 33.5t46 21.5t56.5 7.5q65 0 105.5 -33.5t40.5 -93.5q0 -32 -12.5 -61.5t-34 -55.5
t-50.5 -49.5t-61 -43.5h153v-68h-288z" />
    <glyph glyph-name="uni00B3.aalt" 
d="M307 289q0 -30 -13.5 -53t-35.5 -38t-49 -22.5t-55 -7.5q-53 0 -81.5 17t-28.5 50v24q49 -23 99 -23q35 0 60 13.5t25 43.5q0 14 -8 23t-21.5 14t-30 6.5t-34.5 1.5h-25v63h14q54 0 78 17t24 46q0 25 -18 37.5t-43 12.5q-29 0 -44.5 -14.5t-15.5 -34.5v-15h-26
q-15 0 -26.5 10t-11.5 30q0 23 11.5 40.5t30.5 29t43 17t49 5.5q57 0 94.5 -27.5t37.5 -75.5q0 -35 -19.5 -60.5t-53.5 -40.5q34 -10 54 -31t20 -58z" />
    <glyph glyph-name="uni2074.aalt" 
d="M281 254v-77h-73v77h-191q-2 15 1 33.5t8 29.5q47 65 85.5 131t72.5 129h79v-7q-37 -69 -75.5 -129.5t-83.5 -122.5h104v56q0 25 17 29t56 4v-89h61v-64h-61z" />
    <glyph glyph-name="uni2075.aalt" 
d="M322 299q0 -32 -13.5 -56.5t-36.5 -41t-52.5 -25t-62.5 -8.5q-57 0 -87 17.5t-30 49.5v26q23 -11 51 -17.5t57 -6.5q18 0 35 4t30.5 11.5t21.5 18.5t8 25q0 29 -27 40.5t-75 11.5q-14 0 -34.5 -2t-37.5 -7q-7 13 -11.5 24.5t-7.5 25.5l7 187h237q18 0 21 -15t3 -54h-203
l-6 -102q25 3 49 3q164 0 164 -109z" />
    <glyph glyph-name="uni2076.aalt" 
d="M334 304q0 -32 -11.5 -57t-31.5 -42.5t-47 -27t-58 -9.5q-40 0 -69.5 15t-49 40t-29 58.5t-9.5 70.5q0 49 13.5 91t38.5 73t61 48.5t81 17.5q49 0 81 -22t32 -60q0 -22 -13.5 -33.5t-35.5 -11.5h-14v15q0 20 -14.5 32.5t-40.5 12.5q-25 0 -45.5 -12.5t-34.5 -33.5
t-22 -47t-8 -53v-15q20 23 51 37.5t65 14.5q47 0 78.5 -25.5t31.5 -76.5zM255 292q0 25 -16.5 37.5t-43.5 12.5q-26 0 -48.5 -14t-22.5 -41q0 -23 17 -38t45 -15q30 0 49.5 16t19.5 42z" />
    <glyph glyph-name="uni2077.aalt" 
d="M328 507q-25 -45 -46 -84t-39.5 -78t-36.5 -79.5t-38 -88.5h-87v7q39 91 80.5 167.5t89.5 155.5h-216q0 36 3 52.5t20 16.5h278q2 -15 -0.5 -34t-7.5 -35z" />
    <glyph glyph-name="uni2078.aalt" 
d="M330 283q0 -27 -11.5 -48.5t-31.5 -36.5t-47.5 -22.5t-58.5 -7.5q-32 0 -59 7.5t-47.5 22.5t-32 36.5t-11.5 48.5q0 35 22.5 59t60.5 36q-38 13 -59.5 37.5t-21.5 56.5q0 29 12.5 50t33 34.5t47 19.5t55.5 6q28 0 55 -6t47 -19.5t32.5 -34.5t12.5 -50q0 -32 -21.5 -56.5
t-59.5 -37.5q38 -12 60.5 -36t22.5 -59zM250 288q0 20 -18 36.5t-51 16.5q-34 0 -52 -16.5t-18 -36.5t18 -37t52 -17q33 0 51 17t18 37zM248 464q0 23 -17 37.5t-50 14.5q-34 0 -51 -16t-17 -36t18 -39t50 -19t49.5 18.5t17.5 39.5z" />
    <glyph glyph-name="uni2079.aalt" 
d="M332 398q0 -49 -14.5 -91t-41.5 -73t-65.5 -48.5t-85.5 -17.5q-15 0 -30 2t-27 7.5t-19.5 16t-7.5 28.5v25q17 -6 36.5 -8.5t36.5 -2.5q33 0 59 11t43.5 30.5t27 45t9.5 55.5v6q-45 -55 -115 -55q-48 0 -79.5 26.5t-31.5 82.5q0 32 11.5 58.5t31.5 45.5t47 29.5t57 10.5
q40 0 70 -14.5t49.5 -39.5t29 -58.5t9.5 -71.5zM237 458q0 25 -17 41.5t-46 16.5t-48.5 -17t-19.5 -46q0 -26 16 -41.5t45 -15.5q26 0 48 15.5t22 46.5z" />
    <glyph glyph-name="uni2070.aalt.aalt" 
d="M340 211q0 -44 -10 -83.5t-30 -70t-50 -48.5t-70 -18q-41 0 -70.5 18t-49.5 48.5t-29.5 70t-9.5 83.5q0 43 9.5 79t29.5 61.5t49.5 39.5t70.5 14q40 0 70 -14t50 -39.5t30 -61.5t10 -79zM261 211q0 57 -17.5 92t-63.5 35q-45 0 -62.5 -36t-17.5 -91q0 -28 4 -55.5
t13.5 -49t24.5 -35t38 -13.5t38.5 13t25 34.5t13.5 49t4 56.5z" />
    <glyph glyph-name="uni00B9.aalt.aalt" 
d="M58 285q16 4 37.5 12.5t41 19t33.5 22t14 22.5v6q0 14 3 22t11 11.5t22.5 4t38.5 0.5v-405h-75v266q-45 -30 -104 -48z" />
    <glyph glyph-name="uni00B2.aalt.aalt" 
d="M33 0q-2 15 0.5 34.5t7.5 34.5q37 18 73.5 38.5t66 45t47.5 53t18 62.5q0 33 -20 50.5t-53 17.5t-53.5 -17.5t-20.5 -43.5v-14h-29q-15 0 -25 11t-10 28q0 23 11.5 42.5t31 33.5t46 21.5t56.5 7.5q65 0 105.5 -33.5t40.5 -93.5q0 -32 -12.5 -61.5t-34 -55.5t-50.5 -49.5
t-61 -43.5h153v-68h-288z" />
    <glyph glyph-name="uni00B3.aalt.aalt" 
d="M307 112q0 -30 -13.5 -53t-35.5 -38t-49 -22.5t-55 -7.5q-53 0 -81.5 17t-28.5 50v24q49 -23 99 -23q35 0 60 13.5t25 43.5q0 14 -8 23t-21.5 14t-30 6.5t-34.5 1.5h-25v63h14q54 0 78 17t24 46q0 25 -18 37.5t-43 12.5q-29 0 -44.5 -14.5t-15.5 -34.5v-15h-26
q-15 0 -26.5 10t-11.5 30q0 23 11.5 40.5t30.5 29t43 17t49 5.5q57 0 94.5 -27.5t37.5 -75.5q0 -35 -19.5 -60.5t-53.5 -40.5q34 -10 54 -31t20 -58z" />
    <glyph glyph-name="uni2074.aalt.aalt" 
d="M281 77v-77h-73v77h-191q-2 15 1 33.5t8 29.5q47 65 85.5 131t72.5 129h79v-7q-37 -69 -75.5 -129.5t-83.5 -122.5h104v56q0 25 17 29t56 4v-89h61v-64h-61z" />
    <glyph glyph-name="uni2075.aalt.aalt" 
d="M322 122q0 -32 -13.5 -56.5t-36.5 -41t-52.5 -25t-62.5 -8.5q-57 0 -87 17.5t-30 49.5v26q23 -11 51 -17.5t57 -6.5q18 0 35 4t30.5 11.5t21.5 18.5t8 25q0 29 -27 40.5t-75 11.5q-14 0 -34.5 -2t-37.5 -7q-7 13 -11.5 24.5t-7.5 25.5l7 187h237q18 0 21 -15t3 -54h-203
l-6 -102q25 3 49 3q164 0 164 -109z" />
    <glyph glyph-name="uni2076.aalt.aalt" 
d="M334 127q0 -32 -11.5 -57t-31.5 -42.5t-47 -27t-58 -9.5q-40 0 -69.5 15t-49 40t-29 58.5t-9.5 70.5q0 49 13.5 91t38.5 73t61 48.5t81 17.5q49 0 81 -22t32 -60q0 -22 -13.5 -33.5t-35.5 -11.5h-14v15q0 20 -14.5 32.5t-40.5 12.5q-25 0 -45.5 -12.5t-34.5 -33.5
t-22 -47t-8 -53v-15q20 23 51 37.5t65 14.5q47 0 78.5 -25.5t31.5 -76.5zM255 115q0 25 -16.5 37.5t-43.5 12.5q-26 0 -48.5 -14t-22.5 -41q0 -23 17 -38t45 -15q30 0 49.5 16t19.5 42z" />
    <glyph glyph-name="uni2077.aalt.aalt" 
d="M328 330q-25 -45 -46 -84t-39.5 -78t-36.5 -79.5t-38 -88.5h-87v7q39 91 80.5 167.5t89.5 155.5h-216q0 36 3 52.5t20 16.5h278q2 -15 -0.5 -34t-7.5 -35z" />
    <glyph glyph-name="uni2078.aalt.aalt" 
d="M330 106q0 -27 -11.5 -48.5t-31.5 -36.5t-47.5 -22.5t-58.5 -7.5q-32 0 -59 7.5t-47.5 22.5t-32 36.5t-11.5 48.5q0 35 22.5 59t60.5 36q-38 13 -59.5 37.5t-21.5 56.5q0 29 12.5 50t33 34.5t47 19.5t55.5 6q28 0 55 -6t47 -19.5t32.5 -34.5t12.5 -50q0 -32 -21.5 -56.5
t-59.5 -37.5q38 -12 60.5 -36t22.5 -59zM250 111q0 20 -18 36.5t-51 16.5q-34 0 -52 -16.5t-18 -36.5t18 -37t52 -17q33 0 51 17t18 37zM248 287q0 23 -17 37.5t-50 14.5q-34 0 -51 -16t-17 -36t18 -39t50 -19t49.5 18.5t17.5 39.5z" />
    <glyph glyph-name="uni2079.aalt.aalt" 
d="M332 221q0 -49 -14.5 -91t-41.5 -73t-65.5 -48.5t-85.5 -17.5q-15 0 -30 2t-27 7.5t-19.5 16t-7.5 28.5v25q17 -6 36.5 -8.5t36.5 -2.5q33 0 59 11t43.5 30.5t27 45t9.5 55.5v6q-45 -55 -115 -55q-48 0 -79.5 26.5t-31.5 82.5q0 32 11.5 58.5t31.5 45.5t47 29.5t57 10.5
q40 0 70 -14.5t49.5 -39.5t29 -58.5t9.5 -71.5zM237 281q0 25 -17 41.5t-46 16.5t-48.5 -17t-19.5 -46q0 -26 16 -41.5t45 -15.5q26 0 48 15.5t22 46.5z" />
    <glyph glyph-name="a.superior" horiz-adv-x="360" 
d="M25 473q0 41 28.5 65.5t92.5 32.5l91 9v3q-2 45 -29.5 62t-65.5 17q-23 0 -43.5 -6t-40.5 -14v23q0 15 11 26t28 18t36.5 10.5t37.5 3.5q22 0 45.5 -5t43 -19.5t33.5 -41t17 -69.5l13 -178q1 -26 -16 -30.5t-58 -4.5l-4 63q-20 -32 -48.5 -49.5t-69.5 -17.5q-27 0 -46 9
t-31.5 23.5t-18.5 33t-6 36.5zM106 478q0 -22 12.5 -37.5t36.5 -15.5q19 0 34 9.5t25.5 25t16.5 34.5t7 39l-82 -11q-23 -2 -36.5 -14t-13.5 -30z" />
    <glyph glyph-name="b.superior" horiz-adv-x="403" 
d="M116 644q19 38 51 58.5t75 20.5q32 0 57 -12t42 -34t25.5 -51.5t8.5 -64.5q0 -39 -11.5 -73.5t-32.5 -60.5t-50 -41t-64 -15q-32 0 -58 12.5t-43 38.5v-44h-70v413q0 15 2 23t9.5 12t21.5 4.5t37 0.5v-187zM298 560q0 40 -18 69.5t-62 29.5t-69.5 -37.5t-25.5 -96.5
q0 -16 5.5 -32t15.5 -29t24.5 -21t33.5 -8q24 0 42 11t30 28.5t18 40t6 45.5z" />
    <glyph glyph-name="c.superior" horiz-adv-x="345" 
d="M308 429q0 -17 -10.5 -28t-26.5 -17.5t-36 -9.5t-38 -3q-76 0 -122 48.5t-46 139.5q0 38 13.5 68.5t36.5 51.5t54.5 32.5t67.5 11.5q23 0 44.5 -5t38.5 -15.5t27 -27t10 -38.5q0 -23 -12 -34.5t-29 -11.5h-22v14q0 32 -18 44.5t-44 12.5q-41 0 -66 -30t-25 -73
q0 -57 28.5 -90.5t92.5 -33.5q44 0 82 16v-22z" />
    <glyph glyph-name="d.superior" horiz-adv-x="402" 
d="M29 532q0 39 11.5 73.5t32 60.5t49 41.5t63.5 15.5q31 0 57 -11.5t43 -35.5v153h72v-414q0 -15 -2.5 -23t-10 -12t-21.5 -4.5t-38 -0.5v74q-20 -38 -52.5 -58t-73.5 -20q-63 0 -96.5 45t-33.5 116zM104 534q0 -39 18.5 -68.5t56.5 -29.5q43 0 71 37t28 96q0 16 -4.5 32.5
t-13.5 29.5t-24 21t-36 8q-24 0 -42 -11t-30 -29t-18 -40.5t-6 -45.5z" />
    <glyph glyph-name="e.superior" horiz-adv-x="365" 
d="M314 427q0 -15 -10.5 -26t-27 -17.5t-37 -9.5t-41.5 -3q-37 0 -68 12t-53.5 35t-35 58t-12.5 82q0 36 12 66t33.5 52t51.5 34.5t66 12.5q70 0 108.5 -43t38.5 -114q0 -28 -18 -37.5t-39 -9.5h-173q8 -42 38 -63.5t84 -21.5q22 0 42.5 4t40.5 12v-23zM190 666
q-43 0 -63 -26.5t-22 -67.5h138q11 0 15 7.5t4 12.5q0 36 -20 55t-52 19z" />
    <glyph glyph-name="f.superior" horiz-adv-x="259" 
d="M65 378v245l-51 19q0 10 3.5 21t9.5 18h38v18q0 59 33.5 98t94.5 39q20 0 37.5 -10t17.5 -36v-22q-5 2 -13.5 3.5t-16.5 1.5q-45 0 -63.5 -21.5t-18.5 -64.5v-6h75q20 0 23 -14t3 -47h-101v-242h-71z" />
    <glyph glyph-name="g.superior" horiz-adv-x="349" 
d="M343 740q-18 1 -33.5 -1t-27.5 -7t-19 -11.5t-7 -13.5v-6q25 -14 39 -37.5t14 -55.5q0 -28 -11.5 -49t-31 -35.5t-44.5 -21.5t-53 -7h-6q-56 -2 -56 -24q0 -23 47 -23h48q60 0 94.5 -17.5t34.5 -63.5q0 -31 -16 -52.5t-41 -34.5t-56.5 -19t-62.5 -6q-62 0 -102.5 19.5
t-40.5 61.5q0 27 15.5 43t40.5 24q-13 8 -21 20t-8 29q0 25 14.5 38.5t36.5 21.5q-27 14 -43.5 37.5t-16.5 58.5q0 28 10.5 49.5t29.5 36t44.5 22t54.5 7.5q21 0 44 -5v8q0 22 9 37.5t23.5 26t32 15.5t35.5 5q20 0 25 -16t5 -54zM237 605q0 26 -18 42.5t-50 16.5
q-31 0 -49 -15t-18 -44t19 -44.5t48 -15.5t48.5 17t19.5 43zM153 387q-35 0 -52.5 -10.5t-17.5 -27.5q0 -23 21 -33.5t58 -10.5q38 0 65 11.5t27 37.5q0 20 -18.5 26.5t-50.5 6.5h-32z" />
    <glyph glyph-name="h.superior" horiz-adv-x="393" 
d="M353 415q0 -15 -2.5 -23t-10 -12t-21.5 -4.5t-38 -0.5v199q0 83 -72 83q-17 0 -33.5 -6.5t-29.5 -19.5t-21 -31.5t-8 -43.5v-178h-71v413q0 15 2 23t9.5 12t21.5 4.5t38 0.5v-174q23 34 55.5 50t68.5 16q54 0 83 -30.5t29 -85.5v-192v0z" />
    <glyph glyph-name="j.aalt" horiz-adv-x="167" 
d="M122 346q0 -42 -22.5 -66t-61.5 -24q-19 0 -36 8.5t-17 30.5v28q6 -2 12 -2.5t14 -0.5q19 0 29.5 12t10.5 30v317q0 15 2 23t9.5 12t21.5 4.5t38 0.5v-373zM137 828q0 -23 -11 -34.5t-37 -11.5t-36.5 11.5t-10.5 34.5t10.5 35.5t36.5 12.5t37 -12.5t11 -35.5z" />
    <glyph glyph-name="k.aalt" horiz-adv-x="362" 
d="M354 403q0 -17 -19 -24.5t-39 -7.5q-13 0 -22.5 2t-17.5 8t-16 15.5t-17 24.5l-62 90h-45v-133h-70v413q0 15 2 23t9.5 12t21.5 4.5t37 0.5v-261h43q29 29 56.5 70t47.5 76h78v-9q-23 -39 -54 -81t-66 -79l72 -92q24 -35 55 -35h6v-17z" />
    <glyph glyph-name="l.aalt" horiz-adv-x="163" 
d="M46 378v436q0 15 2 23t9.5 12t21.5 4.5t38 0.5v-476h-71z" />
    <glyph glyph-name="m.aalt" horiz-adv-x="577" 
d="M537 415q0 -15 -2.5 -23t-10 -12t-21.5 -4.5t-38 -0.5v204q0 38 -13.5 58t-45.5 20q-30 0 -54.5 -25.5t-24.5 -74.5v-179h-72v201q0 38 -13.5 58t-45.5 20q-30 0 -54.5 -25t-24.5 -76v-178h-71v301q0 15 2 23t9.5 12t21.5 4.5t38 0.5v-59q44 63 112 63q36 0 59 -17
t33 -49q26 38 56 52t62 14q48 0 73 -29.5t25 -81.5v-197v0z" />
    <glyph glyph-name="o.superior" horiz-adv-x="390" 
d="M362 554q0 -41 -12 -74.5t-34 -57.5t-53 -37.5t-68 -13.5q-38 0 -68.5 13.5t-52 37.5t-33.5 57.5t-12 74.5q0 81 44 125t122 44t122.5 -44t44.5 -125zM285 554q0 48 -21 77t-69 29t-69 -29t-21 -77q0 -24 5.5 -45t17 -37.5t28 -26t39.5 -9.5q22 0 39 9.5t28 26t17 37.5
t6 45z" />
    <glyph glyph-name="p.aalt" horiz-adv-x="403" 
d="M46 262v417q0 15 2 23t9.5 12t21.5 4.5t37 0.5v-74q19 37 51 57.5t75 20.5q32 0 57 -12t42 -33.5t25.5 -51.5t8.5 -65q0 -39 -11.5 -73.5t-32.5 -60.5t-50 -41t-64 -15q-32 0 -58 12.5t-43 38.5v-160h-70zM298 560q0 40 -18 69.5t-62 29.5t-69.5 -37t-25.5 -97
q0 -16 5.5 -32t15.5 -29t24.5 -21t33.5 -8q24 0 42 11t30 28.5t18 40t6 45.5z" />
    <glyph glyph-name="q.aalt" horiz-adv-x="402" 
d="M29 532q0 39 11.5 73.5t32 60.5t49 41.5t63.5 15.5q30 0 56 -12t44 -37v42h72v-416q0 -15 -2.5 -23t-10 -12t-21.5 -4.5t-38 -0.5v189q-20 -38 -52.5 -58t-73.5 -20q-64 0 -97 45t-33 116zM104 534q0 -39 18.5 -68.5t57.5 -29.5q43 0 70.5 37t27.5 96q0 16 -4.5 32
t-14 29t-24 21.5t-35.5 8.5q-24 0 -42 -11t-30 -29t-18 -40.5t-6 -45.5z" />
    <glyph glyph-name="r.aalt" horiz-adv-x="253" 
d="M46 378v301q0 15 2 23t9.5 12t21.5 4.5t37 0.5v-68q20 38 46 55t49 17q20 0 25.5 -15.5t3.5 -58.5q-60 5 -92 -24.5t-32 -90.5v-156h-70z" />
    <glyph glyph-name="s.aalt" horiz-adv-x="298" 
d="M265 476q0 -27 -10.5 -46.5t-28 -32.5t-40.5 -19.5t-48 -6.5q-16 0 -32 2.5t-28.5 9.5t-20 17.5t-7.5 27.5v24q37 -19 79 -19q25 0 43 8.5t18 25.5q0 15 -12 23t-30 13.5t-39.5 11.5t-39.5 17t-30 29t-12 49q0 51 37 82t96 31q52 0 83 -22.5t31 -54.5q0 -21 -11 -30
t-28 -9h-20v11q0 20 -14.5 33t-40.5 13q-27 0 -42.5 -12.5t-15.5 -29.5q0 -19 12 -29.5t30 -17t39.5 -12t39.5 -15.5t30 -26.5t12 -45.5z" />
    <glyph glyph-name="t.aalt" horiz-adv-x="291" 
d="M134 655v-132q0 -44 15 -66.5t53 -22.5q17 0 33.5 4t30.5 10v-22q0 -16 -9 -26.5t-23 -17t-30 -9t-31 -2.5q-24 0 -44 6.5t-34.5 22t-23 42t-8.5 66.5v150l-51 19q1 10 4.5 21t8.5 18h38v38q0 15 2.5 22.5t10 11.5t21.5 4.5t37 0.5v-77h110q20 0 23 -14t3 -47h-136z" />
    <glyph glyph-name="u.aalt" horiz-adv-x="385" 
d="M341 518q0 -39 -12 -67t-32.5 -45.5t-48 -26t-58.5 -8.5t-57.5 8.5t-46 26t-31 45.5t-11.5 67v161q0 15 2 22.5t9.5 11.5t21.5 4.5t38 0.5v-189q0 -90 75 -90q79 0 79 90v187h72v-198v0z" />
    <glyph glyph-name="v.aalt" horiz-adv-x="369" 
d="M220 388q-36 -13 -79 -15l-126 337v6h84l85 -253q29 66 51.5 131t38.5 122h83q-28 -85 -63 -169t-74 -159z" />
    <glyph glyph-name="w.aalt" horiz-adv-x="542" 
d="M417 388q-35 -14 -75 -15l-67 239q-17 -58 -37 -113t-43 -111q-36 -14 -76 -15l-102 337v6h82l62 -250q23 57 39.5 103.5t28.5 90.5q3 12 4 24t-2 20q17 8 41 12t44 5l67 -255q23 66 40.5 129.5t28.5 120.5h76q-22 -88 -50 -167.5t-61 -160.5z" />
    <glyph glyph-name="x.aalt" horiz-adv-x="370" 
d="M268 378l-90 120q-22 -26 -39.5 -54.5t-35.5 -65.5h-83q27 53 55 93t66 78l-116 159v8h83l90 -119q22 30 40 60.5t32 58.5h78q-23 -47 -52 -91t-61 -81l117 -158v-8h-84z" />
    <glyph glyph-name="y.aalt" horiz-adv-x="366" 
d="M357 708l-121 -328q-9 -66 -39 -95.5t-75 -29.5q-23 0 -41 9.5t-18 33.5v26q9 -3 17.5 -4t15.5 -1q54 0 66 55q-48 87 -85 172.5t-66 169.5h86q19 -64 44.5 -127.5t53.5 -122.5l85 250h77v-8z" />
    <glyph glyph-name="z.aalt" horiz-adv-x="329" 
d="M19 378q-2 14 0 29t6 26l179 222h-170q0 33 3 47t22 14h244q2 -14 0 -29t-6 -25l-179 -222h187v-62h-286z" />
    <glyph glyph-name="uniFB01.aalt" horiz-adv-x="743" 
d="M79 0v596q0 18 3.5 27.5t13 14t27.5 5.5t47 1h261q25 0 29 -21.5t4 -65.5h-294v-228h253v-83h-253v-246h-91zM572 0v600q0 18 3.5 27.5t13.5 14t28 5.5t46 1v-648h-91z" />
    <glyph glyph-name="uniFB02.aalt" horiz-adv-x="984" 
d="M79 0v596q0 18 3.5 27.5t13 14t27.5 5.5t47 1h261q25 0 29 -21.5t4 -65.5h-294v-228h253v-83h-253v-246h-91zM723 0q-42 0 -71 8t-46.5 25.5t-25.5 46t-8 69.5v451q0 18 3.5 27.5t13 14t27 5.5t46.5 1v-488q0 -38 17.5 -55t58.5 -17h205v-88h-220z" />
    <glyph glyph-name="germandbls.aalt" horiz-adv-x="1040" 
d="M451 178q0 -47 -18 -82t-48 -58.5t-69.5 -35.5t-82.5 -12q-29 0 -57 4.5t-50 15t-35 28t-13 43.5v37q32 -17 71 -27.5t81 -10.5q24 0 47 5t40 15.5t27.5 26.5t10.5 39q0 31 -22.5 49.5t-56 32t-73 26.5t-73 34.5t-56 55t-22.5 87.5q0 48 17 85.5t47 64t71 40t90 13.5
q41 0 76.5 -10.5t61.5 -28.5t41 -42.5t15 -52.5q0 -39 -18 -55t-41 -16h-25v22q0 40 -30 68.5t-87 28.5q-55 0 -89 -27.5t-34 -72.5q0 -39 22.5 -61.5t56.5 -38t73 -28.5t73 -32t56.5 -49.5t22.5 -80.5zM971 178q0 -47 -18 -82t-48 -58.5t-69.5 -35.5t-82.5 -12
q-29 0 -57 4.5t-50 15t-35 28t-13 43.5v37q32 -17 71 -27.5t81 -10.5q24 0 47 5t40 15.5t27.5 26.5t10.5 39q0 31 -22.5 49.5t-56 32t-73 26.5t-73 34.5t-56 55t-22.5 87.5q0 48 17 85.5t47 64t71 40t90 13.5q41 0 76.5 -10.5t61.5 -28.5t41 -42.5t15 -52.5q0 -39 -18 -55
t-41 -16h-25v22q0 40 -30 68.5t-87 28.5q-55 0 -89 -27.5t-34 -72.5q0 -39 22.5 -61.5t56.5 -38t73 -28.5t73 -32t56.5 -49.5t22.5 -80.5z" />
    <glyph glyph-name="numbersign.aalt" horiz-adv-x="515" 
d="M105 -10l19 169h-82v70h90l15 126h-115v70h123l18 157h74l-18 -157h89l18 157h74l-18 -157h64q20 0 23 -18t3 -52h-98l-15 -126h80q20 0 23 -17.5t3 -52.5h-114l-19 -169h-74l19 169h-89l-19 -169h-74zM206 229h89l15 126h-89z" />
    <glyph glyph-name="currency.aalt" horiz-adv-x="473" 
d="M394 242q0 -46 -22 -85l69 -68l-53 -54l-69 68q-35 -20 -82 -20q-24 0 -44.5 5.5t-37.5 15.5l-71 -71l-54 55l70 70q-22 39 -22 84t22 81l-68 70l53 54l70 -70q17 9 38 14.5t44 5.5q45 0 81 -19l71 71l54 -55l-70 -70q10 -18 15.5 -38.5t5.5 -43.5zM317 242
q0 37 -22.5 59t-57.5 22q-36 0 -58.5 -22t-22.5 -59q0 -38 22.5 -62t58.5 -24q35 0 57.5 24t22.5 62z" />
    <glyph glyph-name="dollar.aalt" horiz-adv-x="455" 
d="M193 -101v91q-64 2 -102.5 22.5t-38.5 61.5v30q29 -15 68 -25t79 -10q23 0 44.5 4t38 13t26.5 23t10 35q0 28 -21 45t-52 29.5t-67.5 25t-67.5 32t-52 49t-21 77.5q0 73 43.5 118.5t112.5 57.5v95h71v-93q31 -3 58.5 -13t47.5 -25t31.5 -35t11.5 -42q0 -35 -14 -50.5
t-34 -15.5h-28v20q0 16 -7 31t-20 27t-32.5 19t-44.5 7q-49 0 -77 -24.5t-28 -62.5q0 -34 21 -53.5t52 -33t68 -25.5t68 -30t52 -46t21 -74q0 -33 -11.5 -59.5t-31.5 -46t-46.5 -32.5t-56.5 -19v-98h-71z" />
    <glyph glyph-name="cent.aalt" horiz-adv-x="444" 
d="M205 -117v111q-78 13 -123 70.5t-45 157.5q0 81 46.5 133t121.5 66v121h71v-118q56 -5 92.5 -34.5t36.5 -77.5q0 -26 -11.5 -40.5t-29.5 -14.5h-32v18q0 41 -25 57.5t-58 16.5q-56 0 -89 -36t-33 -91q0 -34 8 -62t26.5 -48.5t47.5 -31.5t71 -11q55 0 104 22v-33
q0 -17 -10 -29t-25.5 -19.5t-34.5 -12t-38 -6.5v-108h-71z" />
    <glyph glyph-name="sterling.aalt" horiz-adv-x="463" 
d="M222 210q9 -28 15.5 -59.5t8.5 -70.5h198v-80h-411v80h122q-2 36 -10.5 68t-20.5 62h-79v64h53q-11 31 -19.5 64t-8.5 71q0 37 14 69t40.5 55t63.5 36t82 13q31 0 59 -7.5t49 -21t33 -33t12 -44.5q0 -32 -14.5 -50t-37.5 -18h-31v22q0 35 -22 54.5t-57 19.5
q-45 0 -71.5 -26.5t-26.5 -68.5q0 -39 9.5 -71t23.5 -64h135q20 0 23 -15.5t3 -48.5h-135z" />
    <glyph glyph-name="yen.aalt" horiz-adv-x="503" 
d="M205 0v109h-141v64h141v63h-141v64h106l-152 262v10h102l138 -244q39 63 71.5 123t61.5 121h104q-38 -72 -77.5 -138.5t-84.5 -133.5h76q20 0 23 -15.5t3 -48.5h-140v-63h114q20 0 23 -15.5t3 -48.5h-140v-109h-90z" />
    <glyph glyph-name="florin.aalt" horiz-adv-x="422" 
d="M130 -165v423l-105 26q1 14 5 28t12 22h88v52q0 42 11.5 77.5t34 62t55 41.5t73.5 15q12 0 25 -2.5t24 -9t18 -17t7 -26.5v-30q-8 3 -20.5 5t-22.5 2q-66 0 -93.5 -34t-27.5 -100v-36h142q23 0 27 -18t4 -59h-173v-422h-84z" />
    <glyph glyph-name="Euro.aalt" horiz-adv-x="522" 
d="M203 179q19 -56 56.5 -84t91.5 -28q32 0 61.5 7t56.5 20v-31q0 -21 -14 -35t-35.5 -22.5t-47 -12t-47.5 -3.5q-83 0 -140.5 47.5t-80.5 141.5h-78v64h67q-3 27 -3 58h-64v64h68q8 55 29.5 95.5t52.5 67.5t70 40.5t82 13.5q33 0 62.5 -7t52 -20t36 -32t13.5 -44
q0 -32 -14.5 -49.5t-36.5 -17.5h-31v21q0 40 -24 55.5t-56 15.5q-22 0 -44 -6.5t-41.5 -22t-34 -42.5t-20.5 -68h196v-64h-200q0 -31 3 -58h197v-64h-183z" />
    <glyph glyph-name="zero.pnum" horiz-adv-x="523" 
d="M480 304q0 -62 -13 -118.5t-39.5 -100t-68 -69.5t-98.5 -26q-58 0 -99.5 26t-68.5 69.5t-39.5 100t-12.5 118.5t12.5 113t39.5 88t68.5 57t99.5 20q57 0 98.5 -20t68 -57t39.5 -88t13 -113zM383 304q0 97 -28.5 147.5t-93.5 50.5q-66 0 -94.5 -50.5t-28.5 -147.5
q0 -48 7 -91t22 -74.5t38 -50t56 -18.5q32 0 55 18.5t38 50t22 74.5t7 91z" />
    <glyph glyph-name="one.pnum" horiz-adv-x="408" 
d="M38 403q23 6 55 17t60.5 25t48.5 30.5t20 33.5v20q0 18 3.5 27.5t13.5 14t27.5 5t45.5 0.5v-576h-90v389q-34 -22 -73.5 -38t-86.5 -30z" />
    <glyph glyph-name="two.pnum" horiz-adv-x="487" 
d="M38 0q-2 21 0.5 43t10.5 39q53 26 105.5 59.5t94 72.5t67.5 82.5t26 90.5q0 60 -32 87.5t-82 27.5q-29 0 -50 -8.5t-35.5 -23t-21.5 -32t-7 -35.5v-21h-34q-15 0 -27.5 12t-12.5 37q0 34 15.5 62t42.5 47.5t62 30.5t74 11q44 0 81.5 -12.5t65 -36t43 -57t15.5 -75.5
q0 -48 -19 -93t-51.5 -85t-75.5 -76t-91 -66h231v-81h-395z" />
    <glyph glyph-name="three.pnum" horiz-adv-x="455" 
d="M402 165q0 -45 -18 -78t-48 -54.5t-68 -32t-78 -10.5q-66 0 -107 20t-41 66v30q29 -14 64.5 -24.5t74.5 -10.5q24 0 46.5 6t40 17.5t27.5 29t10 41.5q0 23 -11 38t-29.5 23.5t-42.5 11.5t-49 3h-42v75h25q77 0 111.5 30.5t34.5 77.5q0 35 -25.5 56.5t-68.5 21.5
q-25 0 -43.5 -7.5t-30.5 -19t-17.5 -26t-5.5 -28.5v-21h-34q-15 0 -27.5 12t-12.5 36q0 34 15.5 59.5t40.5 42t57.5 24.5t67.5 8q40 0 73.5 -10.5t57.5 -30t37.5 -46.5t13.5 -60q0 -48 -27.5 -84.5t-75.5 -58.5q49 -14 77 -45t28 -82z" />
    <glyph glyph-name="four.pnum" horiz-adv-x="511" 
d="M309 0v116h-281q-2 21 1 42t11 37q67 94 126 189t107 188h97v-12q-55 -100 -111.5 -187.5t-122.5 -176.5h173v87q0 17 4 26.5t13.5 14t26.5 5t43 0.5v-133h86v-80h-86v-116h-87z" />
    <glyph glyph-name="five.pnum" horiz-adv-x="468" 
d="M423 169q0 -44 -19 -77.5t-50 -56t-71 -34t-81 -11.5q-33 0 -62 5t-50.5 15.5t-34 26.5t-12.5 39v30q33 -16 67.5 -25.5t76.5 -9.5q29 0 54.5 6.5t44.5 19t30 30t11 39.5q0 21 -7 37.5t-23 28t-42.5 17.5t-65.5 6q-22 0 -50 -2.5t-57 -9.5q-10 17 -16 33t-11 37l12 259
h321q26 0 30.5 -17.5t4.5 -62.5h-282l-9 -166q17 2 33.5 3.5t29.5 1.5q118 0 173 -39.5t55 -122.5z" />
    <glyph glyph-name="six.pnum" horiz-adv-x="503" 
d="M461 179q0 -44 -17 -79t-45 -59.5t-64.5 -37.5t-76.5 -13q-57 0 -98 22t-67.5 58.5t-38.5 84t-12 98.5q0 72 18.5 132.5t54 104t86 68t114.5 24.5q31 0 59 -7.5t48 -21t32 -33t12 -43.5q0 -32 -18 -48t-44 -16h-22v22q0 32 -21 49t-56 17t-65.5 -16.5t-53 -45.5
t-35 -69.5t-12.5 -88.5v-17t1 -18q30 37 73.5 57.5t93.5 20.5q31 0 59 -8t49 -25.5t33.5 -45t12.5 -66.5zM364 163q0 35 -21 59t-72 24q-21 0 -41 -6t-35.5 -17.5t-24.5 -28t-9 -36.5q0 -17 6.5 -33.5t19 -29t30.5 -20t41 -7.5q26 0 45.5 8t33 21.5t20.5 30.5t7 35z" />
    <glyph glyph-name="seven.pnum" horiz-adv-x="459" 
d="M82 0v12q30 66 59.5 127.5t60.5 120t64 115.5t69 116h-311q0 44 4 62.5t29 18.5h380q2 -21 -0.5 -43t-10.5 -38q-35 -64 -66 -123t-59.5 -118t-56.5 -120t-56 -130h-106z" />
    <glyph glyph-name="eight.pnum" horiz-adv-x="493" 
d="M452 155q0 -39 -17 -69.5t-45.5 -52t-65.5 -32.5t-77 -11t-77 11t-65.5 32.5t-45.5 52t-17 69.5q0 51 30 84.5t81 50.5q-51 18 -79.5 53t-28.5 81q0 42 18 72t46.5 49t65 28t72.5 9t72.5 -9t65 -28t46.5 -49t18 -72q0 -46 -29.5 -81t-80.5 -53q51 -17 82 -50.5t31 -84.5z
M355 161q0 39 -30 63t-78 24t-78 -24t-30 -63q0 -42 30 -68t78 -26t78 26t30 68zM352 414q0 42 -28.5 66.5t-76.5 24.5t-76.5 -24.5t-28.5 -66.5q0 -19 7.5 -36t21.5 -30t33.5 -20.5t42.5 -7.5t42 7.5t33 20.5t22 30t8 36z" />
    <glyph glyph-name="nine.pnum" horiz-adv-x="503" 
d="M461 319q0 -72 -21 -132.5t-59 -104t-91 -68t-117 -24.5q-14 0 -33.5 1.5t-37 8.5t-29.5 20t-12 36v31q24 -9 48 -12.5t48 -3.5q48 0 86 16.5t65 46t41.5 70t14.5 87.5v11t-1 11q-35 -45 -77.5 -65t-93.5 -20q-30 0 -57.5 9.5t-48 29t-33 48.5t-12.5 69q0 44 15.5 80.5
t43 62.5t64.5 40.5t80 14.5q57 0 98 -22t67.5 -58.5t39 -84t12.5 -98.5zM342 405q0 19 -6.5 37t-19 31.5t-30.5 21.5t-41 8q-26 0 -46 -8.5t-33.5 -22.5t-20.5 -32.5t-7 -39.5q0 -19 5 -36t16 -29.5t29 -20t44 -7.5q21 0 41 7t35.5 19.5t24.5 30.5t9 41z" />
    <glyph glyph-name="A.aalt" horiz-adv-x="762" 
d="M683 318q0 -147 -75 -225t-227 -78t-227 78t-75 225q0 69 19 125t56.5 95.5t94.5 61t132 21.5t132 -21.5t94.5 -61t56.5 -95.5t19 -125zM574 351h-252l116 97q-20 26 -37 38t-36 -4l-193 -165l193 -164q9 -8 18 -9t18 4.5t18 15t19 22.5l-116 97h252v68z" />
    <glyph glyph-name="B.aalt" horiz-adv-x="762" 
d="M683 318q0 -147 -75 -225t-227 -78t-227 78t-75 225q0 69 19 125t56.5 95.5t94.5 61t132 21.5t132 -21.5t94.5 -61t56.5 -95.5t19 -125zM414 374l98 -114q12 10 21.5 19.5t15 18.5t5 18t-8.5 19l-164 194l-164 -194q-16 -19 -3.5 -36.5t36.5 -38.5l98 114v-248h66v248z
" />
    <glyph glyph-name="C.aalt" horiz-adv-x="762" 
d="M683 318q0 -147 -75 -225t-227 -78t-227 78t-75 225q0 69 19 125t56.5 95.5t94.5 61t132 21.5t132 -21.5t94.5 -61t56.5 -95.5t19 -125zM397 482q-19 16 -36 4t-37 -38l116 -97h-252v-68h252l-116 -97q10 -13 19 -22.5t18 -15t18 -4.5t18 9l193 164z" />
    <glyph glyph-name="D.aalt" horiz-adv-x="762" 
d="M683 318q0 -147 -75 -225t-227 -78t-227 78t-75 225q0 69 19 125t56.5 95.5t94.5 61t132 21.5t132 -21.5t94.5 -61t56.5 -95.5t19 -125zM545 303q16 20 3.5 37.5t-36.5 38.5l-98 -114v248h-66v-249l-98 115q-24 -21 -36.5 -38.5t3.5 -37.5l164 -194z" />
    <glyph glyph-name="E.aalt" horiz-adv-x="762" 
d="M683 318q0 -147 -75 -225t-227 -78t-227 78t-75 225q0 69 19 125t56.5 95.5t94.5 61t132 21.5t132 -21.5t94.5 -61t56.5 -95.5t19 -125zM353 396l166 -16q3 35 1 53t-22 20l-273 22l25 -272q2 -20 20 -22t51 0l-17 161l193 -191l51 52z" />
    <glyph glyph-name="F.aalt" horiz-adv-x="762" 
d="M683 318q0 -147 -75 -225t-227 -78t-227 78t-75 225q0 69 19 125t56.5 95.5t94.5 61t132 21.5t132 -21.5t94.5 -61t56.5 -95.5t19 -125zM537 475l-273 -22q-20 -2 -22 -20t1 -53l166 16l-195 -193l51 -52l193 191l-17 -161q33 -2 51 0t20 22z" />
    <glyph glyph-name="G.aalt" horiz-adv-x="762" 
d="M683 318q0 -147 -75 -225t-227 -78t-227 78t-75 225q0 69 19 125t56.5 95.5t94.5 61t132 21.5t132 -21.5t94.5 -61t56.5 -95.5t19 -125zM512 429q-2 20 -20 22.5t-51 -0.5l17 -161l-193 191l-51 -52l195 -192l-166 15q-3 -34 -1 -52t22 -20l273 -22z" />
    <glyph glyph-name="H.aalt" horiz-adv-x="762" 
d="M683 318q0 -147 -75 -225t-227 -78t-227 78t-75 225q0 69 19 125t56.5 95.5t94.5 61t132 21.5t132 -21.5t94.5 -61t56.5 -95.5t19 -125zM498 180q20 2 22 20t-1 52l-166 -15l195 192l-51 52l-193 -191l17 161q-33 3 -51 0.5t-20 -22.5l-25 -271z" />
    <glyph glyph-name="at.aalt" horiz-adv-x="804" 
d="M267 217q0 41 28.5 65.5t92.5 32.5l91 10v2q-2 46 -29 63t-66 17q-23 0 -43.5 -6t-40.5 -14v22q0 15 11 26t28 18t37 10.5t38 3.5q22 0 45 -5t42.5 -19.5t33.5 -41t17 -69.5l11 -148q35 10 60 31t41 48t23.5 59.5t7.5 65.5q0 42 -16 85.5t-49.5 79t-86 57.5t-125.5 22
q-72 0 -129 -22.5t-97 -64t-61.5 -98.5t-21.5 -126q0 -66 20 -123t58.5 -99t94 -66t127.5 -24q10 0 25 1t30.5 3.5t30 5.5t23.5 8v-22q0 -14 -11 -24t-28 -16t-39.5 -8.5t-44.5 -2.5q-82 0 -145.5 29t-107 79t-66.5 116.5t-23 142.5q0 79 26 146.5t73.5 116t115 76
t150.5 27.5t145.5 -25t104 -66.5t62.5 -95.5t21 -112q0 -55 -17.5 -103.5t-50.5 -85t-81.5 -58t-110.5 -22.5l-4 63q-20 -32 -48.5 -49.5t-69.5 -17.5q-27 0 -46 9t-31.5 23.5t-18.5 33t-6 36.5zM348 222q0 -22 12.5 -37t37.5 -15q18 0 33 9.5t25.5 24.5t16.5 34t7 39
l-82 -10q-23 -3 -36.5 -15t-13.5 -30z" />
    <glyph glyph-name="hyphen.aalt" horiz-adv-x="363" 
d="M308 276h-252v81h252v-81z" />
    <glyph glyph-name="endash.aalt" horiz-adv-x="522" 
d="M486 277h-450v79h450v-79z" />
    <glyph glyph-name="emdash.aalt" horiz-adv-x="949" 
d="M913 277h-877v79h877v-79z" />
    <glyph glyph-name="questiondown.aalt" horiz-adv-x="402" 
d="M326 361q0 -25 -12.5 -45t-31 -38t-40.5 -34.5t-40.5 -33.5t-31 -36.5t-12.5 -42.5q0 -32 23.5 -46.5t55.5 -14.5q26 0 48.5 7.5t44.5 21.5l12 -26q6 -15 -4 -29.5t-30.5 -26t-47 -18.5t-51.5 -7q-30 0 -58 7.5t-49 24t-34 41.5t-13 60q0 33 13.5 59.5t34 47.5t44.5 38
t44.5 32.5t34 30t13.5 30.5q0 19 -12.5 27t-30.5 8v16q0 18 14.5 27t34.5 9q39 0 60 -25.5t21 -63.5zM329 585q0 -32 -16 -49.5t-52 -17.5q-35 0 -51 17.5t-16 49.5q0 33 16 51t51 18q36 0 52 -18t16 -51z" />
    <glyph glyph-name="exclamdown.aalt" horiz-adv-x="320" 
d="M222 39q1 -18 -6 -27.5t-21.5 -14t-36.5 -5t-50 -0.5l22 431h70zM235 580q0 -32 -16 -50t-52 -18q-34 0 -50.5 18t-16.5 50q0 68 67 68q36 0 52 -17.5t16 -50.5z" />
    <glyph glyph-name="periodcentered.aalt" horiz-adv-x="261" 
d="M131 248q-36 0 -52.5 18t-16.5 52q0 32 16.5 50.5t52.5 18.5q34 0 50.5 -18.5t16.5 -50.5q0 -70 -67 -70z" />
    </font>
</defs>
</svg>
